<svg xmlns="http://www.w3.org/2000/svg" viewBox="0 0 100 100"><defs><style>.cls-1{isolation:isolate;}.cls-2{opacity:0.52;}.cls-3,.cls-4{fill:#f2f2f2;}.cls-4{mix-blend-mode:multiply;}</style></defs><title>saddle-bg</title><g class="cls-1"><g id="Layer_1" data-name="Layer 1"><g id="_6" data-name="6" class="cls-2"><path class="cls-3" d="M368.35,95.56a17.59,17.59,0,0,1-9.82,10.66c-4.29,2-9.34,2.81-14.22,3.34l-1.38.16a164.4,164.4,0,0,0-37.91,9q-3.16,1.17-6.29,2.47-4.92,2.06-9.7,4.46l.73-1.41c7.14-13.74,17.41-24.92,27.72-36.31L321,84c6.9-7.72,15.41-19.52,27-18.05a24,24,0,0,1,12.73,6.2,28.69,28.69,0,0,1,4.57,5.33,23.53,23.53,0,0,1,3.87,10.22A17.83,17.83,0,0,1,368.35,95.56Z"/><path class="cls-3" d="M300.17,455.16l-12.45-54c-2-8.52-8.56-15.69-17.74-20.24v-3.06A14.94,14.94,0,0,0,255,363H237.87a14.94,14.94,0,0,0-14.94,15v3c-9.18,4.55-15.78,11.74-17.75,20.26l-12.44,54c-1.33,5.79,0,17.1,3.7,21.74a19.3,19.3,0,0,0,15.14,7.3h69.75a19.3,19.3,0,0,0,15.14-7.3C300.15,472.26,301.5,461,300.17,455.16Zm-67.46-78.73a8.74,8.74,0,0,1,8.74-8.73h10a8.74,8.74,0,0,1,8.74,8.73V381H232.71Zm56.71,86.17a8.65,8.65,0,0,1-8.09,5.59H211.58a8.64,8.64,0,0,1-6.78-3.28,8,8,0,0,1-1.31-2.33,8.54,8.54,0,0,1-.36-5l12.45-54c2.24-9.68,15.8-17.25,30.87-17.25s28.64,7.57,30.88,17.25l12.43,54A8.61,8.61,0,0,1,289.42,462.6Z"/><path class="cls-3" d="M313.39,157.47c-3.56-29.53.25-59.49,13.89-86-21.94,6.65-50.79,15.89-79,19-33.28,3.64-65.69-1.25-84.84-29,0,0-34.67-18-34.67,10.16s17.33,47.77,17.33,47.77c1.35,1.53-4.92,19.42-5.4,21.55a442.3,442.3,0,0,0-8.57,52.41c-3.5,35.32-5.36,84.72,22.73,111.52C175,324,201.87,334,229.49,335.7c24.91,1.52,50.39-3.71,72-15.12,20.12-10.61,24.72-23.27,25.08-45.24.36-21.72-2.84-43.52-5.67-65C319.06,196.53,313.13,175.19,313.39,157.47Z"/><path class="cls-3" d="M313.63,155.5c-3.51-29,.24-58.34,13.65-84.38-21.57,6.52-49.94,15.57-77.71,18.61C216.84,93.3,185,88.5,166.15,61.28c0,0-34.1-17.6-34.1,10s17,46.83,17,46.84c1.32,1.49-4.84,19-5.31,21.13a431.33,431.33,0,0,0-8.43,51.39c-3.45,34.64-5.27,83.08,22.35,109.36,19.78,18.83,46.25,28.65,73.41,30.3,24.49,1.49,49.55-3.64,70.78-14.82,19.78-10.42,24.3-22.83,24.66-44.37.36-21.3-2.79-42.67-5.58-63.74C319.19,193.8,313.36,172.88,313.63,155.5Z"/><path class="cls-3" d="M327.28,71.12c-21.57,6.52-49.94,15.57-77.71,18.61-35.42,62.9-45,140.75-27.69,212.77a166.3,166.3,0,0,0,9.24,27.77c24.49,1.49,49.55-3.64,70.78-14.82,19.78-10.42,24.3-22.83,24.66-44.37.36-21.3-2.79-42.67-5.58-63.74-1.79-13.54-7.62-34.46-7.35-51.84C310.12,126.54,313.87,97.16,327.28,71.12Z"/><rect class="cls-3" x="235.22" y="86.37" width="22.43" height="289.96"/><path class="cls-3" d="M257.65,156.25V86.37H235.22v49.84A231.63,231.63,0,0,1,257.65,156.25Z"/><path class="cls-3" d="M240.66,112.07l95.75,191.76,15.9,8,3.19-17.5L259.76,102.53ZM330.35,267.8a5.33,5.33,0,1,1,2.39-7.15A5.34,5.34,0,0,1,330.35,267.8Zm-17-34a5.34,5.34,0,1,1,2.39-7.16A5.33,5.33,0,0,1,313.39,233.84Zm-17-34a5.34,5.34,0,1,1,2.4-7.16A5.32,5.32,0,0,1,296.43,199.88Zm-16.94-33.95a5.34,5.34,0,1,1,2.39-7.16A5.34,5.34,0,0,1,279.49,165.93Zm-17-34a5.34,5.34,0,1,1,2.39-7.16A5.33,5.33,0,0,1,262.53,132Z"/><path class="cls-4" d="M365.26,77.52a27.88,27.88,0,0,1-2.54,3.74c-8.32,10.45-21.1,18-32.44,24.75A197.72,197.72,0,0,1,305,118.74q-3.11,1.31-6.29,2.47c-2.21.83-4.43,1.6-6.67,2.33l-2.3.72c-20.48,6.26-42.31,8-63.58,6.17-21.11-1.83-50.85-3.89-66.73-19.68-14-13.94-16.53-35-1.32-49.19l-.29,4c-1.54,8.86,12.65,12.65,18.67,14.32C194.35,84.75,213.34,86,231.73,87c19.63,1.07,39.31,1.27,59,1.07,8.68-.09,18,.54,26.8-.1,1.81-.13,3.59-.31,5.36-.57a88.9,88.9,0,0,0,37.85-15.19A28.69,28.69,0,0,1,365.26,77.52Z"/><path class="cls-3" d="M305.49,105.05C252.7,117.47,179.6,117.69,147.65,70.24c-11.06,20.87,12.31,34.9,30,38.91,52,11.79,107.84,15,156.63-9.68,12-6.08,32.42-23.38,35.76-40.27A112.75,112.75,0,0,1,305.49,105.05Z"/><path class="cls-3" d="M305.49,105.05A112.75,112.75,0,0,0,370,59.2a20.44,20.44,0,0,0-2.11-14.51c-15.29-26.81-49.33,66.45-152.83,42.5,0,0-51.91-44.4-67-17.72-.15.26-.27.51-.41.77C179.6,117.69,252.7,117.47,305.49,105.05Z"/><path class="cls-3" d="M369.05,40.9c-.32,1.21-.7,2.47-1.12,3.79-13.52,41.89-67.16,61.5-107.43,60.36-18.63-.52-34.69-10.13-49.44-20.67-9.46-6.78-17.13-12-25.95-16.16a153.64,153.64,0,0,0-19-6.93c-.13,0-.06-.16.18-.34a.1.1,0,0,1,0,0,50.6,50.6,0,0,1,9.77-5c40.81-7.77,75.55,54,158.92-16.6,3.05-2.56,6.14-5.31,9.31-8.23l0,0v0s.05,0,.07,0q2.88-2.67,5.83-5.55C364.37,11.67,375.43,17.29,369.05,40.9Z"/><rect class="cls-3" x="284.53" y="165.62" width="8.89" height="41.42" transform="translate(308.7 -156.94) rotate(60.47)"/><path class="cls-3" d="M289.83,465.09a8,8,0,0,1-7.93,8H211a7.93,7.93,0,0,1-7.93-8,7.68,7.68,0,0,1,.41-2.51,8,8,0,0,0,1.31,2.33,8.64,8.64,0,0,0,6.78,3.28h69.75a8.65,8.65,0,0,0,8.09-5.59A7.6,7.6,0,0,1,289.83,465.09Z"/><path class="cls-3" d="M335,39.26c-30.59,49.87-102.9,43.09-124.27,28.43-22.68-15.56-42.41-8.61-44.61-6.4,0,0,0-.11.18-.34a.1.1,0,0,1,0,0,50.6,50.6,0,0,1,9.77-5C216.92,48.09,251.66,109.88,335,39.26Z"/><path class="cls-3" d="M344.36,31s.05,0,.07,0-.06,0-.07.07Z"/><path class="cls-3" d="M369.05,40.9c-.57-3.22-1.18-6.33-1.76-9.18-3.47-16.6-21.39-2-22.86-.78q2.88-2.67,5.83-5.55C364.37,11.67,375.43,17.29,369.05,40.9Z"/></g></g></g></svg>
