<svg height="512pt" viewBox="0 0 512 512" width="512pt" xmlns="http://www.w3.org/2000/svg"><path d="m512 256c0 141.386719-114.613281 256-256 256s-256-114.613281-256-256 114.613281-256 256-256 256 114.613281 256 256zm0 0" fill="#6db581"/><path d="m201.5 317.738281c4.734375 5.484375 10.3125 10.84375 16.78125 15.988281l98.011719 59.734376c46.425781 34.285156 104.039062-18.515626 104.039062-18.515626s-62.683593 20.972657-62.683593-53.289062c0-94.03125-49.035157-112.859375-114.082032-111.625-59.984375 1.148438-83.957031 59.246094-42.066406 107.707031zm0 0" fill="#ffd833"/><path d="m382.121094 449.578125v29.246094c-25.550782 14.503906-53.84375 24.722656-83.90625 29.707031-6.449219 1.066406-12.96875 1.902344-19.5625 2.476562-4.105469.367188-8.242188.625-12.414063.785157-3.394531.144531-6.8125.207031-10.238281.207031-7.648438 0-15.203125-.335938-22.675781-.992188-18.953125-1.660156-37.3125-5.390624-54.855469-10.960937-17.03125-5.402344-33.300781-12.550781-48.589844-21.222656v-29.246094c0-44.011719 29.886719-81.042969 70.480469-91.898437 1.484375-.398438 2.976563-.761719 4.492187-1.085938 4.035157-.878906 8.171876-1.484375 12.382813-1.828125 2.570313-.210937 5.160156-.316406 7.785156-.316406h61.953125c6.925782 0 13.675782.734375 20.175782 2.144531.375.070312.75.15625 1.117187.238281 1.097656.25 2.195313.523438 3.269531.816407.03125.007812.054688.007812.085938.019531 10.710937 2.863281 20.675781 7.554687 29.539062 13.710937 24.753906 17.175782 40.960938 45.796875 40.960938 78.199219zm0 0" fill="#2f373b"/><path d="m311.851562 356.59375-.230468 1.074219-32.96875 153.339843c-7.460938.65625-15.023438.992188-22.652344.992188-7.648438 0-15.203125-.335938-22.675781-.992188l-32.964844-153.328124-.230469-1.085938zm0 0" fill="#c1dce5"/><path d="m341.160156 371.378906-42.945312 137.152344c-6.449219 1.066406-12.96875 1.902344-19.5625 2.476562-4.105469.367188-8.242188.625-12.414063.785157l45.296875-154.144531.316406-1.054688zm0 0" fill="#151a1c"/><path d="m170.507812 371.378906 42.945313 137.152344c6.445313 1.066406 12.964844 1.902344 19.558594 2.476562 4.105469.367188 8.246093.625 12.414062.785157l-45.296875-154.144531-.3125-1.054688zm0 0" fill="#151a1c"/><path d="m255.988281 393.394531-42.828125 23.804688-13.03125-60.605469 26.613282-15.671875" fill="#9fc2cc"/><path d="m255.988281 393.394531 42.832031 23.804688 13.027344-60.605469-26.613281-15.671875" fill="#9fc2cc"/><path d="m289.9375 317.804688v41.652343c0 15.25-10.054688 28.140625-23.90625 32.421875-3.167969.984375-6.546875 1.515625-10.042969 1.515625-18.742187 0-33.9375-15.191406-33.9375-33.9375v-41.652343zm0 0" fill="#eaa27f"/><path d="m289.9375 356.820312v2.640626c0 15.25-10.054688 28.140624-23.90625 32.417968-12.492188-3.839844-21.890625-14.707031-23.625-28 2.265625.140625 4.546875.207032 6.835938.207032 6.421874 0 12.71875-.507813 18.851562-1.515626 7.554688-1.214843 14.855469-3.15625 21.84375-5.75zm0 0" fill="#f6ba97"/><g fill="#151a1c"><path d="m171.667969 178.71875v95.605469c-5.160157 1.828125-10.707031 2.832031-16.496094 2.832031-13.59375 0-25.90625-5.503906-34.808594-14.417969-8.902343-8.902343-14.40625-21.210937-14.40625-34.804687 0-27.179688 22.023438-49.214844 49.214844-49.214844zm0 0"/><path d="m255.988281 360.648438c-70.515625 0-127.882812-57.371094-127.882812-127.886719v-44.722657c0-14.578124 33.238281-11.160156 38.035156-24.753906 9.054687-25.765625-5.449219-69.261718 13.917969-88.464844 23.472656-23.273437 49.730468-35.574218 75.929687-35.574218 6.71875 0 13.417969.519531 19.925781 1.546875 29.136719 4.550781 56.707032 23.789062 77.617188 54.160156 19.289062 28.015625 30.355469 61.945313 30.355469 93.085937v44.722657c0 30.566406-10.960938 60.15625-30.859375 83.3125-19.6875 22.90625-46.863282 38.148437-76.527344 42.921875l-.535156.089844c-6.488282 1.039062-13.191406 1.5625-19.976563 1.5625zm0 0"/><path d="m265.394531 425.554688c0 5.195312-4.210937 9.402343-9.40625 9.402343-5.191406 0-9.402343-4.207031-9.402343-9.402343 0-5.195313 4.210937-9.402344 9.402343-9.402344 5.195313 0 9.40625 4.207031 9.40625 9.402344zm0 0"/><path d="m265.394531 476.921875c0 5.195313-4.210937 9.402344-9.40625 9.402344-5.191406 0-9.402343-4.207031-9.402343-9.402344s4.210937-9.402344 9.402343-9.402344c5.195313 0 9.40625 4.207031 9.40625 9.402344zm0 0"/></g><path d="m373.4375 188.039062v44.722657c0 58.441406-42.691406 106.921875-98.59375 115.917969-.1875.03125-.386719.0625-.574219.097656-5.945312.949218-12.050781 1.417968-18.277343 1.417968-59.695313 0-108.992188-44.542968-116.453126-102.210937-.648437-4.984375-.984374-10.0625-.984374-15.222656v-44.722657c0-10.660156 1.421874-21.003906 4.097656-30.824218.742187-2.757813 1.597656-5.476563 2.539062-8.152344 16.058594-45.703125 59.613282-99.367188 110.800782-99.367188h.011718c6.214844 0 12.328125.480469 18.285156 1.421876 56.171876 8.773437 99.148438 78.28125 99.148438 136.921874zm0 0" fill="#eaa27f"/><path d="m373.4375 200.902344v31.859375c0 58.441406-42.691406 106.921875-98.59375 115.917969-.1875.03125-.386719.0625-.574219.097656-56.175781-8.777344-99.140625-57.386719-99.140625-116.015625v-31.859375zm0 0" fill="#f6ba97"/><path d="m373.4375 104.644531v84.523438h-234.882812v-84.523438c0-38.964843 32.441406-70.5625 72.464843-70.5625h89.953125c40.027344 0 72.464844 31.597657 72.464844 70.5625zm0 0" fill="#151a1c"/><path d="m335.929688 263.597656c0 8.078125-6.550782 14.628906-14.628907 14.628906s-14.628906-6.550781-14.628906-14.628906c0-8.082031 6.550781-14.628906 14.628906-14.628906s14.628907 6.546875 14.628907 14.628906zm0 0" fill="#eaa27f"/><path d="m205.316406 263.597656c0 8.078125-6.546875 14.628906-14.628906 14.628906-8.078125 0-14.628906-6.550781-14.628906-14.628906 0-8.082031 6.550781-14.628906 14.628906-14.628906 8.082031 0 14.628906 6.546875 14.628906 14.628906zm0 0" fill="#eaa27f"/><path d="m319.0625 222.84375c0-10.773438-8.730469-19.503906-19.503906-19.503906-10.773438 0-19.507813 8.730468-19.507813 19.503906" fill="#eaa27f"/><path d="m231.945312 222.84375c0-10.773438-8.730468-19.503906-19.503906-19.503906-10.773437 0-19.507812 8.730468-19.507812 19.503906" fill="#eaa27f"/><path d="m225.761719 231.148438c0 7.355468-5.964844 13.320312-13.320313 13.320312-7.359375 0-13.324218-5.964844-13.324218-13.320312 0-7.359376 5.964843-13.324219 13.324218-13.324219 7.355469 0 13.320313 5.964843 13.320313 13.324219zm0 0" fill="#2f373b"/><path d="m312.882812 231.148438c0 7.355468-5.964843 13.320312-13.324218 13.320312s-13.324219-5.964844-13.324219-13.320312c0-7.359376 5.964844-13.324219 13.324219-13.324219s13.324218 5.964843 13.324218 13.324219zm0 0" fill="#2f373b"/><path d="m269.324219 269.914062h-26.648438c-3.171875 0-5.746093-2.570312-5.746093-5.746093 0-3.171875 2.574218-5.746094 5.746093-5.746094h26.648438c3.171875 0 5.746093 2.574219 5.746093 5.746094 0 3.175781-2.574218 5.746093-5.746093 5.746093zm0 0" fill="#eaa27f"/><path d="m256 306.273438c-9.835938 0-19.667969-2.460938-28.632812-7.390626-2.527344-1.390624-3.449219-4.566406-2.0625-7.09375 1.390624-2.527343 4.570312-3.449218 7.097656-2.0625 14.777344 8.125 32.417968 8.125 47.195312 0 2.527344-1.390624 5.703125-.46875 7.09375 2.0625 1.390625 2.527344.46875 5.703126-2.058594 7.09375-8.964843 4.929688-18.800781 7.390626-28.632812 7.390626zm0 0" fill="#eaa27f"/><path d="m223.046875 228.796875c0 3.152344-2.554687 5.707031-5.707031 5.707031s-5.710938-2.554687-5.710938-5.707031 2.558594-5.710937 5.710938-5.710937 5.707031 2.558593 5.707031 5.710937zm0 0" fill="#fff"/><path d="m310.820312 228.796875c0 3.152344-2.558593 5.707031-5.710937 5.707031s-5.707031-2.554687-5.707031-5.707031 2.554687-5.710937 5.707031-5.710937 5.710937 2.558593 5.710937 5.710937zm0 0" fill="#fff"/><path d="m387.660156 104.644531v84.523438h-194.378906v-84.523438c0-38.964843 32.441406-70.5625 72.464844-70.5625h49.449218c40.027344 0 72.464844 31.597657 72.464844 70.5625zm0 0" fill="#2f373b"/><path d="m217.34375 189.167969c-16.78125 23.152343-37.128906 42.265625-55.171875 51.953125-8.203125 4.40625-15.933594 6.863281-22.632813 6.863281-.648437-4.984375-.984374-10.0625-.984374-15.222656v-44.722657c0-4.515624.253906-8.964843.753906-13.34375.679687-5.976562 78.035156 14.472657 78.035156 14.472657zm0 0" fill="#ffd833"/><path d="m193.277344 189.167969c-24.054688 0-31.105469 29.488281-31.105469 51.953125-8.203125 4.40625-15.933594 6.863281-22.632813 6.863281-.648437-4.984375-.984374-10.0625-.984374-15.222656v-44.722657c0-4.515624.253906-8.964843.753906-13.34375 27.691406 5.464844 70.730468 14.472657 53.96875 14.472657zm0 0" fill="#e8c018"/><path d="m283.691406 159.472656v29.695313h-184.671875c-8.203125 0-14.847656-6.644531-14.847656-14.847657 0-4.097656 1.664063-7.816406 4.347656-10.503906 2.683594-2.683594 6.40625-4.34375 10.5-4.34375zm0 0" fill="#151a1c"/><path d="m387.660156 159.472656v29.695313h-238.601562c-2.980469 0-5.394532-6.644531-5.394532-14.847657 0-4.097656.605469-7.816406 1.578126-10.503906.976562-2.683594 2.324218-4.34375 3.816406-4.34375zm0 0" fill="#2f373b"/><path d="m387.660156 178.71875v95.605469c-5.160156 1.828125-10.710937 2.832031-16.5 2.832031-13.59375 0-25.902344-5.503906-34.804687-14.417969-8.902344-8.902343-14.410157-21.210937-14.410157-34.804687 0-27.179688 22.027344-49.214844 49.214844-49.214844zm0 0" fill="#2f373b"/></svg>