<?xml version="1.0" encoding="iso-8859-1"?>
<!-- Generator: Adobe Illustrator 19.0.0, SVG Export Plug-In . SVG Version: 6.00 Build 0)  -->
<svg version="1.1" id="Capa_1" xmlns="http://www.w3.org/2000/svg" xmlns:xlink="http://www.w3.org/1999/xlink" x="0px" y="0px"
	 viewBox="0 0 512 512" style="enable-background:new 0 0 512 512;" xml:space="preserve">
<path style="fill:#874D1B;" d="M71.503,204.262l52.083,69.394v35.31l0,0c0,23.225,5.402,46.124,15.793,66.895l1.863,3.725V512h35.31
	v-79.448l17.655-79.448l0,0c19.889,6.63,40.881,9.287,61.793,7.839l43.644-9.26l44.632-16.234l28.902,9.631l0,0
	c3.708,9.048,8.695,17.514,14.804,25.141l35.743,44.676L414.897,512h35.31l16.675-116.736c0.644-4.52,0.406-9.128-0.697-13.559
	l-7.459-29.837c-5.658-22.634-8.519-45.868-8.519-69.199v-0.185c0-29.255-23.711-52.966-52.966-52.966H203.034l-26.483-26.483
	l-26.483-26.483l-52.966-52.966h-35.31L5.482,179.897C1.969,183.411,0,188.169,0,193.139l0,0
	c0.009,10.337,8.386,18.714,18.723,18.723h34.242C59.904,211.862,66.56,209.126,71.503,204.262z"/>
<path style="fill:#6B3713;" d="M97.103,123.586h7.574c23.411,0,45.868,9.304,62.42,25.856l18.282,18.282l26.483,26.483l35.31,35.31
	h-44.138L97.103,123.586z"/>
<path style="fill:#EA3836;" d="M341.001,221.052l-76.173,8.466l-17.655,79.448l14.239,78.318
	c2.225,12.438,14.106,20.71,26.545,18.485c11.714-2.092,19.862-12.818,18.741-24.664l-6.559-72.139l32.159-57.882
	C337.408,241.849,340.383,231.583,341.001,221.052z"/>
<g>
	<path style="fill:#6B3713;" d="M503.172,185.379c-14.627,0-26.483,11.855-26.483,26.483c0,19.5-15.81,35.31-35.31,35.31h-4.74
		c8.739,9.684,13.577,22.263,13.568,35.31h8.828c29.255,0,52.966-23.711,52.966-52.966v-44.138H503.172z"/>
	<path style="fill:#6B3713;" d="M61.793,123.586c0-15.819,10.116-29.855,25.123-34.86l1.359-0.45l8.828,35.31H61.793z"/>
</g>
<path style="fill:#FFD33F;" d="M146.856,179.2c-9.384,3.972-13.762,14.804-9.79,24.188c3.866,9.137,14.274,13.577,23.543,10.046
	l17.479-6.55l-14.027-35.063L146.856,179.2z"/>
<g>
	<path style="fill:#874D1B;" d="M248.399,361.101c2.534-0.062,5.076,0,7.601-0.159l0.6-0.132l-2.542-13.956
		C252.151,351.532,250.262,356.281,248.399,361.101z"/>
	<path style="fill:#874D1B;" d="M466.185,381.705l-7.459-29.837c-5.658-22.634-8.519-45.868-8.519-69.199v-0.185
		c0-29.255-23.711-52.966-52.966-52.966h-57.3c-1.351,7.556-3.937,14.848-7.645,21.566l-32.159,57.882l3.743,41.172l40.395-14.689
		l28.902,9.631c3.708,9.048,8.695,17.514,14.804,25.141l35.743,44.676L414.897,512h35.31l16.675-116.736
		C467.527,390.744,467.288,386.136,466.185,381.705z"/>
</g>
<path style="fill:#D62121;" d="M321.095,223.267c-1.448,2.057-2.895,4.131-4.334,6.25c-24.956,36.802-45.965,76.129-62.676,117.336
	l2.542,13.956l4.811,26.483c2.225,12.438,14.106,20.71,26.545,18.485c11.714-2.092,19.862-12.818,18.741-24.664l-2.816-30.985
	l-3.769-41.163l32.159-57.882c3.708-6.718,6.294-14.009,7.645-21.566c0.521-2.798,0.874-5.623,1.059-8.466L321.095,223.267z"/>
<g>
	<polygon style="fill:#91CECE;" points="179.765,206.248 176.552,203.034 176.552,203.034 178.088,206.874 	"/>
	<path style="fill:#91CECE;" d="M340.215,205.18l-13.594-81.593l-3.946-7.892c-2.993-5.985-9.101-9.763-15.793-9.763h-33.227
		l-79.448,52.966l-30.146,12.915l14.027,35.063l33.774-12.668L256,167.724l8.828,61.793l76.173-8.466
		C341.336,215.746,341.071,210.423,340.215,205.18z"/>
</g>
<path style="fill:#83B2B7;" d="M341.001,221.052c0.335-5.305,0.079-10.637-0.786-15.89l-1.033-6.241
	c-5.994,7.609-12.023,15.722-18.088,24.329L341.001,221.052z"/>
<path style="fill:#6B3713;" d="M344.276,229.517h-4.334c-1.351,7.556-3.937,14.848-7.645,21.566l-32.159,57.882l3.743,41.172
	l31.267-11.37c8.828-56.691,23.261-90.191,39.203-109.25L344.276,229.517z"/>
<path style="fill:#FFD33F;" d="M247.172,39.724c-0.053,21.884,17.638,39.662,39.512,39.724c15.078,0.035,28.866-8.483,35.584-21.99
	c-19.959-19.836-46.954-30.967-75.096-30.976V39.724z"/>
<path style="fill:#383856;" d="M286.897,0h-39.724v26.483c28.142,0.009,55.137,11.14,75.096,30.976
	c2.825-5.491,4.317-11.564,4.352-17.735C326.621,17.788,308.833,0,286.897,0z"/>
<path style="fill:#FFAC3E;" d="M278.069,70.621c-8.369-0.018-16.508-2.692-23.252-7.645c12.694,17.708,37.35,21.778,55.058,9.084
	c5.27-3.778,9.525-8.792,12.394-14.601c-2.931-2.878-6.02-5.579-9.26-8.095C306.22,62.393,292.758,70.577,278.069,70.621z"/>
<path style="fill:#202033;" d="M310.148,7.645c8.836,11.917,10.108,27.816,3.293,40.986c-0.132,0.256-0.3,0.486-0.433,0.733
	c3.24,2.516,6.329,5.217,9.26,8.095C331.202,40.157,326.029,18.918,310.148,7.645z"/>
<g>
</g>
<g>
</g>
<g>
</g>
<g>
</g>
<g>
</g>
<g>
</g>
<g>
</g>
<g>
</g>
<g>
</g>
<g>
</g>
<g>
</g>
<g>
</g>
<g>
</g>
<g>
</g>
<g>
</g>
</svg>
