<?xml version="1.0" encoding="iso-8859-1"?>
<!-- Generator: Adobe Illustrator 19.0.0, SVG Export Plug-In . SVG Version: 6.00 Build 0)  -->
<svg version="1.1" id="Layer_1" xmlns="http://www.w3.org/2000/svg" xmlns:xlink="http://www.w3.org/1999/xlink" x="0px" y="0px"
	 viewBox="0 0 496.072 496.072" style="enable-background:new 0 0 496.072 496.072;" xml:space="preserve">
<path style="fill:#839392;" d="M248.044,496.072h-0.016c-63.149,0-122.502-24.686-167.164-69.348
	c-92.168-92.168-92.176-277.984-0.016-370.16l54.689,54.65c-62.031,62.031-62.031,162.958,0,224.981
	c30.066,30.058,70.002,46.608,112.482,46.608c42.512,0,82.448-16.549,112.506-46.6c62.031-62.039,62.039-162.981,0.008-225.012
	l54.682-54.666c92.176,92.176,92.16,278.047-0.016,370.223C370.553,471.394,311.193,496.072,248.044,496.072z"/>
<g>
	<path style="fill:#96AAA8;" d="M80.848,56.516C47.135,90.253,25.812,136.53,16.761,186.155
		c9.051,49.632,30.381,96.288,64.11,130.009c44.654,44.662,104.007,69.632,167.156,69.632h0.016
		c63.149,0,122.51-24.962,167.164-69.616c33.729-33.737,55.075-80.211,64.118-129.851c-9.043-49.625-30.366-95.996-64.102-129.725
		l-13.989,13.934c8.822,32.106,7.389,66.347-4.246,97.753c20.929,56.525,8.877,122.581-36.454,167.912
		c-30.058,30.043-69.994,46.592-112.506,46.592c-42.48,0-82.416-16.549-112.482-46.608c-45.332-45.332-57.383-111.411-36.439-167.92
		c-11.642-31.382-13.076-65.654-4.261-97.76L80.848,56.516z"/>
	<path style="fill:#96AAA8;" d="M186.69,78.186c2.119,1.938,2.237,5.222,0.299,7.326l-38.699,41.921
		c-1.93,2.103-5.215,2.237-7.31,0.291l-83.228-76.8c-2.103-1.93-2.237-5.222-0.284-7.326L96.169,1.669
		c1.93-2.103,5.222-2.229,7.326-0.299L186.69,78.186z"/>
</g>
<path style="fill:#A5BFBC;" d="M186.997,85.503c1.938-2.103,1.82-5.388-0.299-7.326L103.486,1.37
	c-2.103-1.938-5.396-1.804-7.326,0.299L76.665,22.787l90.852,83.834L186.997,85.503z"/>
<path style="fill:#96AAA8;" d="M309.389,78.186c-2.111,1.938-2.229,5.222-0.299,7.326l38.707,41.929
	c1.93,2.103,5.207,2.237,7.318,0.291l83.22-76.8c2.095-1.938,2.229-5.23,0.284-7.333L399.918,1.669
	c-1.938-2.103-5.222-2.229-7.326-0.299L309.389,78.186z"/>
<path style="fill:#A5BFBC;" d="M309.09,85.503c-1.93-2.103-1.812-5.388,0.299-7.326L392.601,1.37
	c2.103-1.938,5.388-1.804,7.326,0.299l19.495,21.118l-90.852,83.834L309.09,85.503z"/>
<circle style="fill:#55605F;" cx="54.295" cy="179.215" r="14.501"/>
<path style="fill:#323F3E;" d="M54.287,164.714c-3.545,0-6.766,1.323-9.279,3.442c-2.119,2.521-3.45,5.742-3.45,9.279
	c0,8.011,6.498,14.501,14.509,14.501c3.545,0,6.751-1.323,9.279-3.434c2.119-2.528,3.442-5.742,3.442-9.287
	C68.788,171.204,62.306,164.714,54.287,164.714z"/>
<path style="fill:#465453;" d="M54.287,164.714c-3.545,0-6.766,1.323-9.279,3.442c-2.119,2.521-3.45,5.742-3.45,9.279
	c0,8.011,6.498,14.501,14.509,14.501c3.545,0,6.751-1.323,9.279-3.434"/>
<circle style="fill:#55605F;" cx="61.943" cy="299.228" r="16.045"/>
<path style="fill:#323F3E;" d="M58.155,283.647c-3.828,0.929-6.916,3.198-9.082,6.136c-1.615,3.269-2.198,7.058-1.26,10.878
	c2.103,8.594,10.776,13.871,19.385,11.76c3.812-0.922,6.916-3.19,9.066-6.136c1.607-3.261,2.198-7.05,1.268-10.87
	C75.421,286.822,66.74,281.544,58.155,283.647z"/>
<path style="fill:#465453;" d="M58.155,283.647c-3.828,0.929-6.916,3.198-9.082,6.136c-1.615,3.269-2.198,7.058-1.26,10.878
	c2.103,8.594,10.776,13.871,19.385,11.76c3.812-0.922,6.916-3.19,9.066-6.136"/>
<circle style="fill:#55605F;" cx="120.981" cy="401.518" r="17.4"/>
<path style="fill:#323F3E;" d="M116.853,384.598c-4.143,1.016-7.507,3.482-9.846,6.672c-1.764,3.545-2.402,7.656-1.378,11.807
	c2.292,9.35,11.705,15.069,21.047,12.776c4.135-1,7.507-3.466,9.854-6.656c1.741-3.552,2.379-7.656,1.347-11.815
	C135.624,388.032,126.172,382.314,116.853,384.598z"/>
<path style="fill:#465453;" d="M116.853,384.598c-4.143,1.016-7.507,3.482-9.846,6.672c-1.764,3.545-2.402,7.656-1.378,11.807
	c2.292,9.35,11.705,15.069,21.047,12.776c4.135-1,7.507-3.466,9.854-6.656"/>
<circle style="fill:#55605F;" cx="441.816" cy="179.215" r="14.494"/>
<path style="fill:#323F3E;" d="M441.792,164.714c3.545,0,6.766,1.323,9.287,3.442c2.119,2.521,3.442,5.742,3.442,9.279
	c0,8.011-6.491,14.501-14.494,14.501c-3.553,0-6.766-1.323-9.287-3.434c-2.119-2.528-3.45-5.742-3.45-9.287
	C427.291,171.204,433.773,164.714,441.792,164.714z"/>
<path style="fill:#465453;" d="M441.792,164.714c3.545,0,6.766,1.323,9.287,3.442c2.119,2.521,3.442,5.742,3.442,9.279
	c0,8.011-6.491,14.501-14.494,14.501c-3.553,0-6.766-1.323-9.287-3.434"/>
<circle style="fill:#55605F;" cx="434.096" cy="299.228" r="16.037"/>
<path style="fill:#323F3E;" d="M437.932,283.647c3.82,0.929,6.916,3.198,9.074,6.136c1.615,3.269,2.198,7.058,1.252,10.878
	c-2.087,8.594-10.76,13.871-19.369,11.76c-3.82-0.922-6.916-3.19-9.066-6.136c-1.607-3.261-2.198-7.05-1.26-10.87
	C420.658,286.822,429.347,281.544,437.932,283.647z"/>
<path style="fill:#465453;" d="M437.932,283.647c3.82,0.929,6.916,3.198,9.074,6.136c1.615,3.269,2.198,7.058,1.252,10.878
	c-2.087,8.594-10.76,13.871-19.369,11.76c-3.82-0.922-6.916-3.19-9.066-6.136"/>
<circle style="fill:#55605F;" cx="375.106" cy="401.518" r="17.4"/>
<path style="fill:#323F3E;" d="M379.234,384.598c4.135,1.016,7.507,3.482,9.838,6.672c1.78,3.545,2.402,7.656,1.378,11.807
	c-2.284,9.35-11.697,15.069-21.047,12.776c-4.127-1-7.499-3.466-9.846-6.656c-1.749-3.552-2.387-7.656-1.355-11.815
	C360.463,388.032,369.907,382.314,379.234,384.598z"/>
<path style="fill:#465453;" d="M379.234,384.598c4.135,1.016,7.507,3.482,9.838,6.672c1.78,3.545,2.402,7.656,1.378,11.807
	c-2.284,9.35-11.697,15.069-21.047,12.776c-4.127-1-7.499-3.466-9.846-6.656"/>
<circle style="fill:#55605F;" cx="248.044" cy="443.77" r="21.709"/>
<path style="fill:#323F3E;" d="M229.478,432.498c-2.757,4.537-3.56,9.689-2.796,14.572c1.568,4.671,4.655,8.862,9.208,11.618
	c10.256,6.223,23.607,2.97,29.83-7.294c2.765-4.537,3.56-9.681,2.804-14.572c-1.583-4.679-4.647-8.846-9.216-11.611
	C249.075,418.973,235.677,422.25,229.478,432.498z"/>
<path style="fill:#465453;" d="M229.478,432.498c-2.757,4.537-3.56,9.689-2.796,14.572c1.568,4.671,4.655,8.862,9.208,11.618
	c10.256,6.223,23.607,2.97,29.83-7.294c2.765-4.537,3.56-9.681,2.804-14.572"/>
<g>
</g>
<g>
</g>
<g>
</g>
<g>
</g>
<g>
</g>
<g>
</g>
<g>
</g>
<g>
</g>
<g>
</g>
<g>
</g>
<g>
</g>
<g>
</g>
<g>
</g>
<g>
</g>
<g>
</g>
</svg>
