<?xml version="1.0" encoding="iso-8859-1"?>
<!-- Generator: Adobe Illustrator 19.0.0, SVG Export Plug-In . SVG Version: 6.00 Build 0)  -->
<svg version="1.1" id="Capa_1" xmlns="http://www.w3.org/2000/svg" xmlns:xlink="http://www.w3.org/1999/xlink" x="0px" y="0px"
	 viewBox="0 0 512 512" style="enable-background:new 0 0 512 512;" xml:space="preserve">
<path style="fill:#F5913F;" d="M297.102,241.553c0,2.197,0.354,4.336,0.243,6.505c-0.113,2.193,0.012,4.356-0.212,6.517
	c-0.226,2.183-1.716,4.128-2.053,6.276c-0.34,2.167,0.163,4.409-0.287,6.537c-0.453,2.145,0.261,4.548-0.301,6.65
	c-0.565,2.117-2.816,3.701-3.487,5.772c-0.676,2.083,0.932,4.964,0.152,6.998c-0.784,2.043-1.404,4.223-2.291,6.213
	c-0.89,1.998-1.964,3.983-2.954,5.925c-0.993,1.948-1.806,4.078-2.897,5.965c-1.094,1.893-1.747,4.171-2.935,5.999
	c-1.191,1.832-2.694,3.581-3.976,5.345c-1.284,1.767-6.094,0.805-7.467,2.501c-1.374,1.697-0.09,5.624-1.549,7.246
	c-1.46,1.623-5.346,0.9-6.888,2.444s-2.688,3.359-4.309,4.821c-1.62,1.461-0.911,5.663-2.606,7.039
	c-1.693,1.374-3.204,3.179-4.969,4.465c-1.762,1.284-4.999,0.541-6.829,1.733c-1.826,1.19-2.566,4.27-4.456,5.365
	c-1.885,1.092-5.214-0.376-7.16,0.618c-1.939,0.991-3.779,2.138-5.775,3.029c-1.988,0.887-4.006,1.656-6.047,2.441
	c-2.03,0.781-3.322,3.788-5.402,4.464c-2.068,0.672-4.603,0.028-6.716,0.594c-2.1,0.562-4.249,1.091-6.391,1.544
	c-2.125,0.45-4.697-1.662-6.861-1.322c-2.145,0.337-3.825,4.288-6.005,4.515c-2.159,0.225-4.596-2.914-6.786-2.801
	c-2.166,0.112-4.267,0.037-6.461,0.037s-4.448,3.047-6.614,2.935c-2.19-0.113-4.548,0.765-6.706,0.54
	c-2.18-0.227-3.719-5.324-5.864-5.662c-2.164-0.34-4.51,0.817-6.635,0.366c-2.142-0.454-4.562,0.318-6.661-0.244
	c-2.114-0.566-4.369-0.769-6.437-1.442c-2.08-0.676-4.73,0.001-6.761-0.78c-2.041-0.785-3.716-2.707-5.703-3.595
	c-1.996-0.891-3.617-2.669-5.556-3.66c-1.946-0.995-4.477-1.021-6.362-2.113c-1.89-1.095-2.276-4.662-4.102-5.852
	c-1.83-1.192-4.252-1.463-6.014-2.747c-1.765-1.286-3.825-2.204-5.518-3.578c-1.695-1.376-2.527-3.751-4.147-5.212
	c-1.621-1.462-2.844-3.268-4.386-4.812s-4.521-1.708-5.981-3.331c-1.459-1.622-2.166-3.913-3.54-5.61
	c-1.373-1.695-2.484-3.576-3.768-5.343c-1.282-1.764-3.045-3.195-4.236-5.027c-1.188-1.828-2.451-3.633-3.545-5.526
	c-1.091-1.887-3.816-2.967-4.809-4.915c-0.99-1.941,1.43-5.542,0.54-7.54c-0.886-1.99-2.686-3.552-3.47-5.596
	c-0.78-2.033-0.033-4.547-0.708-6.63c-0.671-2.071-2.213-3.81-2.778-5.926c-0.561-2.102-2.167-3.941-2.62-6.085
	c-0.45-2.128,0.21-4.45-0.13-6.617c-0.337-2.147-0.443-4.283-0.669-6.465c-0.224-2.161-0.32-4.286-0.433-6.479
	c-0.112-2.169-1.299-4.293-1.299-6.49s1.827-4.287,1.938-6.456c0.113-2.193,0.555-4.247,0.78-6.409
	c0.226-2.183-0.488-4.395-0.151-6.543c0.34-2.167,0.686-4.266,1.136-6.395c0.453-2.145,0.134-4.433,0.695-6.536
	c0.565-2.117,2.476-3.78,3.148-5.851c0.675-2.083-0.454-4.768,0.326-6.801c0.784-2.043,3.13-3.41,4.016-5.4
	c0.89-1.998,0.31-4.673,1.299-6.614c0.993-1.948,1.262-4.341,2.353-6.228c1.094-1.893,4.867-2.122,6.055-3.951
	c1.191-1.832,1.114-4.475,2.396-6.239c1.284-1.767,1.667-4.253,3.04-5.949c1.374-1.697,5.316-1.15,6.775-2.772
	c1.46-1.623,2.605-3.391,4.147-4.935c1.542-1.544,0.491-5.822,2.111-7.284c1.62-1.461,3.399-2.885,5.094-4.261
	c1.693-1.374,4.143-1.872,5.908-3.158c1.762-1.284,3.894-2.072,5.723-3.265c1.826-1.19,4.19-1.471,6.08-2.566
	c1.885-1.092,4.252-1.151,6.197-2.145c1.939-0.991,2.7-4.392,4.695-5.283c1.988-0.887,4.875,0.435,6.915-0.35
	c2.03-0.781,3.759-2.256,5.839-2.932c2.068-0.672,3.832-2.368,5.946-2.934c2.1-0.562,4.605,0.65,6.747,0.197
	c2.125-0.45,4.057-1.74,6.221-2.081c2.145-0.337,4.378,0.29,6.557,0.064c2.159-0.225,4.136-2.853,6.326-2.967
	c2.166-0.112,4.404,0.63,6.598,0.63s4.326,1.287,6.492,1.399c2.19,0.113,4.206,1.338,6.365,1.562
	c2.18,0.227,4.608-1.852,6.753-1.514c2.164,0.34,4.222,1.245,6.347,1.695c2.142,0.454,4.618-0.394,6.718,0.169
	c2.114,0.566,4.18,1.481,6.248,2.154c2.08,0.676,3.468,3.293,5.499,4.074c2.041,0.785,3.532,2.665,5.52,3.552
	c1.996,0.891,4.325,0.871,6.264,1.862c1.946,0.995,4.138,1.438,6.023,2.53c1.89,1.095,4.551,0.956,6.377,2.146
	c1.83,1.192,3.72,2.392,5.482,3.676c1.765,1.286,1.887,4.692,3.58,6.067c1.695,1.376,3.389,2.636,5.009,4.097
	c1.621,1.462,3.058,3.009,4.6,4.553c1.542,1.544,2.674,3.355,4.134,4.978c1.459,1.622,4.057,2.194,5.431,3.891
	c1.373,1.695,2.906,3.256,4.19,5.023c1.282,1.764,3.7,2.79,4.89,4.622c1.188,1.828,0.401,4.888,1.494,6.781
	c1.091,1.887,4.713,2.432,5.706,4.38c0.99,1.941,0.885,4.494,1.775,6.492c0.886,1.99,0.5,4.523,1.284,6.566
	c0.78,2.033,3.001,3.577,3.676,5.66c0.671,2.071-1.181,4.884-0.616,7c0.561,2.102,1.392,4.076,1.845,6.22
	c0.45,2.128,2.592,3.939,2.932,6.105c0.337,2.147,1.818,4.22,2.045,6.402c0.224,2.161-1.201,4.516-1.088,6.708
	C298.517,237.162,297.102,239.356,297.102,241.553z"/>
<path style="fill:#DE7839;" d="M259.792,241.553c0,2.197,0.207,4.33,0.048,6.486c-0.161,2.188-0.197,4.34-0.516,6.48
	c-0.324,2.168-1.556,4.09-2.036,6.203c-0.485,2.135-0.422,4.335-1.06,6.408c-0.643,2.091-0.533,4.424-1.325,6.444
	c-0.798,2.034-2.753,3.529-3.695,5.486c-0.948,1.967-0.437,4.698-1.524,6.579c-1.092,1.889-2.133,3.886-3.358,5.682
	c-1.229,1.801-2.628,3.562-3.985,5.263c-1.358,1.703-2.667,3.549-4.147,5.145c-1.48,1.597-2.776,3.521-4.371,5.004
	c-1.594,1.482-3.438,2.844-5.139,4.204c-1.699,1.358-5.264,0.174-7.063,1.404c-1.794,1.227-2.295,4.455-4.181,5.548
	c-1.879,1.089-4.859,0.047-6.824,0.996c-1.954,0.944-3.707,2.112-5.738,2.911c-2.017,0.793-3.236,3.924-5.324,4.568
	c-2.07,0.639-4.193,1.575-6.325,2.06c-2.11,0.48-4.628-0.786-6.793-0.462c-2.138,0.32-4.186,2.121-6.371,2.283
	c-2.153,0.159-4.444-1.769-6.637-1.769c-2.194,0-4.348,0.088-6.501-0.072c-2.185-0.162-4.321-0.446-6.459-0.766
	c-2.165-0.324-4.652,0.913-6.762,0.433c-2.132-0.485-4.059-1.969-6.129-2.607c-2.088-0.644-4.175-1.367-6.193-2.16
	c-2.032-0.799-3.284-3.286-5.238-4.23c-1.964-0.949-5.091,0.315-6.97-0.774c-1.887-1.093-2.501-4.218-4.294-5.445
	c-1.799-1.23-3.428-2.549-5.127-3.907c-1.701-1.36-4.758-1.137-6.352-2.618c-1.595-1.482-3.727-2.573-5.208-4.17
	c-1.48-1.596-0.338-5.462-1.696-7.165c-1.356-1.701-3.478-2.738-4.707-4.539c-1.225-1.796-3.157-3.145-4.248-5.034
	c-1.087-1.882-2.399-3.696-3.346-5.663c-0.943-1.956-2.825-3.61-3.622-5.644c-0.792-2.02-0.8-4.433-1.443-6.524
	c-0.638-2.072-0.604-4.386-1.088-6.521c-0.48-2.112-1.707-4.154-2.031-6.322c-0.32-2.14,1.403-4.537,1.242-6.725
	c-0.159-2.156-1.042-4.272-1.042-6.469c0-2.197-0.288-4.399-0.129-6.555c0.161-2.188,1.278-4.248,1.597-6.389
	c0.324-2.168,1.036-4.197,1.516-6.31c0.485-2.135-0.336-4.599,0.302-6.671c0.643-2.091,1.994-3.944,2.787-5.965
	c0.798-2.034,1.833-3.944,2.775-5.9c0.948-1.967,1.569-4.099,2.656-5.98c1.092-1.889,2.181-3.796,3.407-5.592
	c1.229-1.801,1.509-4.389,2.865-6.089c1.358-1.703,4.767-1.666,6.246-3.262c1.48-1.597,2.458-3.629,4.053-5.111
	c1.594-1.481,3.899-2.046,5.6-3.406c1.699-1.358,2.978-3.162,4.777-4.392c1.794-1.227,3.195-3.048,5.082-4.141
	c1.879-1.089,4.134-1.439,6.098-2.388c1.954-0.944,3.947-1.686,5.979-2.485c2.017-0.793,4.031-1.448,6.119-2.092
	c2.07-0.639,3.938-1.958,6.07-2.444c2.11-0.48,4.43,0.342,6.594,0.018c2.138-0.32,4.222-0.355,6.407-0.517
	c2.153-0.159,4.221-0.932,6.414-0.932s4.315,0.051,6.468,0.211c2.185,0.162,4.381-0.185,6.519,0.135
	c2.165,0.324,4.082,1.654,6.192,2.134c2.132,0.485,4.558-0.283,6.628,0.356c2.088,0.644,3.742,2.442,5.759,3.235
	c2.032,0.799,4.474,0.59,6.428,1.534c1.964,0.949,4.224,1.431,6.103,2.52c1.887,1.093,2.567,4.079,4.361,5.306
	c1.799,1.23,4.155,1.619,5.854,2.977c1.701,1.36,3.917,2.156,5.511,3.638c1.595,1.482,1.455,4.655,2.935,6.252
	c1.48,1.596,3.031,2.987,4.389,4.69c1.356,1.701,4.795,1.863,6.023,3.664c1.225,1.796,2.391,3.749,3.483,5.638
	c1.087,1.882,1.458,4.224,2.406,6.191c0.943,1.956,1.464,4.13,2.262,6.164c0.792,2.02,0.848,4.289,1.491,6.379
	c0.638,2.072,0.453,4.301,0.938,6.436c0.48,2.112,2.754,3.87,3.077,6.038c0.32,2.14-1.054,4.467-0.893,6.655
	C259.523,237.258,259.792,239.356,259.792,241.553z"/>
<path style="fill:#C96D34;" d="M213.848,241.553c0,2.177-0.033,4.27-0.36,6.355c-0.336,2.14-0.736,4.211-1.39,6.227
	c-0.665,2.052-1.834,3.823-2.8,5.718c-0.976,1.915-1.813,3.838-3.067,5.564c-1.26,1.734-2.334,3.62-3.845,5.133
	s-3.482,2.467-5.214,3.729c-1.723,1.256-3.122,3.066-5.034,4.043c-1.893,0.967-3.898,1.895-5.947,2.561
	c-2.014,0.655-4.171,1.137-6.308,1.473c-2.082,0.328-4.281,0.602-6.454,0.602c-2.174,0-4.42,0.029-6.502-0.299
	c-2.137-0.336-4.305-0.942-6.319-1.597c-2.049-0.666-3.467-2.812-5.36-3.779c-1.913-0.978-4.31-1.103-6.033-2.359
	c-1.732-1.262-2.636-3.461-4.147-4.974s-2.969-2.956-4.229-4.69c-1.254-1.726-3.394-2.936-4.37-4.851
	c-0.966-1.895-1.986-3.917-2.651-5.969c-0.654-2.016-0.394-4.349-0.73-6.489c-0.327-2.085-1.228-4.222-1.228-6.399
	s1.109-4.281,1.436-6.366c0.336-2.14,0.755-4.217,1.409-6.233c0.665-2.052,1.499-4.004,2.466-5.899
	c0.976-1.915,1.453-4.185,2.707-5.911c1.26-1.734,3.027-3.131,4.537-4.644c1.511-1.513,3.161-2.931,4.892-4.193
	c1.723-1.256,3.953-1.656,5.866-2.633c1.893-0.967,3.406-2.904,5.455-3.57c2.014-0.655,4.353-0.106,6.49-0.443
	c2.082-0.328,4.138-0.449,6.311-0.449c2.174,0,4.38-0.839,6.462-0.512c2.137,0.336,4.398,0.527,6.411,1.181
	c2.049,0.666,3.425,2.953,5.318,3.921c1.913,0.978,3.935,1.625,5.658,2.881c1.732,1.262,3.633,2.326,5.144,3.839
	s3.038,3.078,4.299,4.812c1.254,1.726,2.846,3.369,3.822,5.284c0.966,1.895,1.486,4.108,2.152,6.16
	c0.654,2.016,0.88,4.215,1.216,6.355C214.237,237.217,213.848,239.376,213.848,241.553z"/>
<path style="fill:#FFD237;" d="M489.56,396.499H22.44c-8.251,0-14.94-6.689-14.94-14.94v-0.12c0-8.251,6.689-14.94,14.94-14.94
	h467.12c8.251,0,14.94,6.689,14.94,14.94v0.12C504.5,389.81,497.811,396.499,489.56,396.499z"/>
<path style="fill:#FFB922;" d="M489.56,366.499h-30c8.251,0,14.94,6.689,14.94,14.94v0.12c0,8.251-6.689,14.94-14.94,14.94h30
	c8.251,0,14.94-6.689,14.94-14.94v-0.12C504.5,373.188,497.811,366.499,489.56,366.499z"/>
<path d="M171.786,335.987c0.395-0.004,0.79-0.008,1.187-0.011c0.224,0.084,0.543,0.216,0.795,0.321
	c1.426,0.591,3.513,1.457,6.042,1.457c0.265,0,0.535-0.009,0.809-0.03c2.587-0.191,4.622-1.181,6.107-1.903
	c0.243-0.118,0.544-0.265,0.78-0.371c0.247,0.039,0.56,0.098,0.814,0.145c1.67,0.311,3.959,0.736,6.573,0.142
	c1.767-0.402,3.388-0.985,4.818-1.5c0.69-0.248,1.375-0.498,2.054-0.707c3.17-0.978,5.04-3.182,6.278-4.64
	c0.119-0.139,0.26-0.306,0.385-0.449c1.343-0.584,2.519-1.23,3.576-1.812c0.422-0.232,0.845-0.466,1.276-0.691
	c0.196-0.002,0.426,0,0.615,0c1.822,0.004,4.569,0.024,7.303-1.56c2.509-1.454,3.842-3.588,4.727-5.208
	c1.995-0.064,4.893-0.338,7.442-2.376c0.42-0.336,0.85-0.672,1.282-1.01c1.409-1.103,2.866-2.244,4.28-3.558
	c1.33-1.237,2.397-2.55,3.339-3.709c0.509-0.627,0.99-1.219,1.426-1.689c1.264-1.363,2.376-2.811,3.358-4.087
	c0.384-0.499,0.766-0.996,1.151-1.48c1.36-1.706,2.902-3.638,4.316-5.712c1.075-1.575,1.958-3.148,2.813-4.67
	c0.281-0.499,0.56-0.996,0.844-1.488c1.36-2.355,1.621-4.767,1.793-6.363c0.03-0.276,0.067-0.625,0.103-0.87
	c0.179-0.249,0.478-0.616,0.711-0.903c0.948-1.169,2.248-2.77,3.099-4.941c0.76-1.937,1.009-3.758,1.209-5.221
	c0.094-0.684,0.19-1.391,0.302-1.755c0.565-1.834,0.761-3.562,0.918-4.95c0.086-0.758,0.167-1.475,0.288-2.005
	c0.083-0.364,0.344-1.009,0.596-1.634c0.55-1.36,1.234-3.053,1.543-5.122c0.273-1.832,0.37-3.536,0.462-5.184
	c0.035-0.615,0.069-1.232,0.115-1.851c0.131-1.779,0.074-3.451,0.023-4.927c-0.024-0.699-0.05-1.402-0.05-2.112
	c0-1.888-0.152-3.589-0.3-5.234c-0.046-0.514-0.092-1.029-0.132-1.547c0.043-0.24,0.155-0.683,0.24-1.018
	c0.407-1.606,0.963-3.806,0.574-6.413c-0.425-2.848-1.86-4.935-2.809-6.315c-0.141-0.205-0.317-0.461-0.441-0.653
	c-0.063-0.419-0.107-0.948-0.154-1.499c-0.121-1.422-0.271-3.191-0.86-5.106c-0.148-0.48-0.273-1.189-0.406-1.94
	c-0.248-1.402-0.556-3.148-1.271-4.971c-0.24-0.611-0.473-1.318-0.719-2.066c-0.462-1.401-0.986-2.989-1.769-4.615
	c-0.201-0.417-0.424-1.107-0.66-1.837c-0.449-1.391-1.009-3.121-2.009-4.851c-1.002-1.734-2.337-3.996-3.78-6.112
	c-1.914-2.805-4.76-3.955-6.46-4.642c-0.154-0.062-0.335-0.135-0.498-0.203c-0.936-1.099-1.88-2.055-2.731-2.916
	c-0.313-0.317-0.628-0.635-0.94-0.959c-0.058-0.185-0.123-0.403-0.176-0.584c-0.52-1.754-1.305-4.405-3.631-6.567
	c-1.507-1.402-3.1-2.312-4.38-3.043c-0.61-0.349-1.241-0.709-1.554-0.959c-1.757-1.405-3.61-2.162-4.963-2.714
	c-0.295-0.121-0.656-0.268-0.938-0.395c-0.099-0.158-0.207-0.336-0.299-0.487c-0.917-1.51-2.302-3.791-4.939-5.32
	c-1.655-0.959-3.325-1.554-4.667-2.032c-0.742-0.264-1.442-0.514-1.934-0.751c-2.074-1.002-4.097-1.302-5.574-1.521
	c-0.494-0.073-1.169-0.173-1.351-0.231c-0.216-0.097-0.783-0.483-1.196-0.764c-1.232-0.839-2.92-1.989-5.118-2.666
	c-2.347-0.724-4.484-0.625-6.044-0.552c-0.409,0.019-0.957,0.046-1.205,0.03c-0.325-0.093-0.939-0.356-1.441-0.571
	c-1.379-0.592-3.096-1.329-5.232-1.648c-1.862-0.279-3.521-0.234-4.987-0.195c-0.781,0.021-1.518,0.04-2.088-0.002
	c-2.13-0.158-4.361-0.231-7.021-0.231c-1.981,0-3.705,0.351-5.091,0.633c-0.721,0.146-1.402,0.285-1.877,0.32
	c-0.614,0.045-1.219,0.08-1.82,0.114c-1.626,0.093-3.309,0.19-5.091,0.458c-0.229,0.02-0.869-0.045-1.339-0.09
	c-1.505-0.144-3.566-0.34-5.862,0.183c-1.989,0.453-3.621,1.23-4.933,1.855c-0.658,0.313-1.279,0.609-1.684,0.734
	c-1.965,0.606-4.292,1.351-6.652,2.279l-0.958,0.375c-1.787,0.697-3.636,1.417-5.539,2.337c-0.419,0.202-1.091,0.421-1.803,0.653
	c-1.367,0.445-3.068,1-4.792,1.999c-1.759,1.019-3.088,2.245-4.155,3.23c-0.54,0.499-1.049,0.969-1.402,1.21
	c-3.419,2.339-4.294,7.006-1.955,10.425s7.006,4.294,10.425,1.955c1.255-0.858,2.282-1.807,3.107-2.568
	c0.551-0.509,1.176-1.085,1.5-1.273c0.356-0.207,1.186-0.477,1.918-0.715c1.101-0.358,2.349-0.765,3.682-1.409
	c1.375-0.664,2.875-1.249,4.463-1.868l0.999-0.39c1.892-0.744,3.802-1.355,5.583-1.905c1.449-0.447,2.706-1.045,3.715-1.526
	c0.61-0.291,1.295-0.617,1.693-0.739c0.27,0,0.815,0.053,1.225,0.092c1.27,0.121,3.007,0.286,4.931-0.001
	c1.158-0.173,2.433-0.247,3.783-0.324c0.683-0.039,1.37-0.079,2.068-0.13c1.424-0.105,2.665-0.358,3.759-0.581
	c0.838-0.17,1.63-0.332,2.101-0.332c2.282,0,4.161,0.061,5.913,0.19c1.324,0.099,2.532,0.066,3.596,0.038
	c0.93-0.024,1.808-0.048,2.356,0.034c0.269,0.051,1.008,0.368,1.548,0.6c1.102,0.473,2.473,1.061,4.101,1.432
	c2,0.456,3.825,0.37,5.156,0.309c0.322-0.015,0.732-0.034,1.008-0.035c0.272,0.162,0.691,0.446,1.016,0.667
	c1.074,0.731,2.411,1.642,4.126,2.316c1.745,0.687,3.363,0.927,4.663,1.119c0.461,0.068,1.084,0.161,1.338,0.232
	c1.187,0.566,2.326,0.973,3.333,1.332c0.548,0.195,1.108,0.395,1.561,0.585c0.087,0.141,0.179,0.292,0.258,0.422
	c0.817,1.345,2.051,3.378,4.25,4.882c1.493,1.021,2.959,1.62,4.138,2.101c0.477,0.195,1.129,0.461,1.266,0.543
	c1.225,0.979,2.475,1.694,3.479,2.268c0.308,0.176,0.678,0.387,0.992,0.58c0.027,0.092,0.055,0.184,0.079,0.267
	c0.467,1.576,1.172,3.957,3.08,6.017c0.578,0.623,1.164,1.218,1.748,1.81c0.884,0.895,1.647,1.667,2.278,2.458
	c1.885,2.364,4.364,3.365,6.004,4.027c0.097,0.039,0.204,0.083,0.312,0.126c0.943,1.453,1.845,2.987,2.56,4.224
	c0.204,0.353,0.48,1.208,0.724,1.961c0.363,1.123,0.774,2.395,1.419,3.732c0.357,0.742,0.687,1.742,1.036,2.802
	c0.286,0.866,0.609,1.849,1.001,2.847c0.168,0.429,0.319,1.28,0.464,2.103c0.197,1.113,0.42,2.375,0.841,3.743
	c0.116,0.375,0.188,1.219,0.25,1.963c0.093,1.098,0.209,2.464,0.542,3.927c0.547,2.412,1.757,4.17,2.64,5.455
	c0.044,0.064,0.092,0.134,0.14,0.205c-0.029,0.119-0.059,0.237-0.086,0.344c-0.355,1.403-0.842,3.325-0.675,5.582
	c0.049,0.671,0.109,1.337,0.168,2.002c0.123,1.377,0.24,2.679,0.24,3.896c0,0.884,0.029,1.759,0.059,2.629
	c0.042,1.202,0.081,2.336,0.009,3.307c-0.052,0.706-0.092,1.409-0.131,2.108c-0.077,1.37-0.15,2.665-0.322,3.815
	c-0.046,0.31-0.375,1.122-0.614,1.714c-0.431,1.066-0.967,2.392-1.318,3.936c-0.303,1.336-0.442,2.557-0.564,3.634
	c-0.101,0.888-0.196,1.728-0.351,2.229c-0.472,1.533-0.669,2.976-0.828,4.135c-0.079,0.582-0.186,1.36-0.285,1.698
	c-0.149,0.232-0.527,0.698-0.809,1.045c-0.832,1.025-1.868,2.302-2.687,4.001c-1.013,2.103-1.232,4.13-1.393,5.611
	c-0.03,0.282-0.069,0.639-0.105,0.883c-0.233,0.408-0.464,0.819-0.696,1.232c-0.73,1.3-1.42,2.527-2.128,3.565
	c-1.1,1.613-2.455,3.312-3.652,4.813c-0.44,0.553-0.876,1.119-1.314,1.688c-0.861,1.12-1.674,2.177-2.468,3.033
	c-0.769,0.829-1.459,1.679-2.068,2.429c-0.693,0.853-1.347,1.659-1.91,2.181c-0.948,0.882-2.097,1.781-3.313,2.733
	c-0.091,0.071-0.182,0.142-0.272,0.213c-0.069,0.001-0.136,0.003-0.196,0.004c-1.921,0.039-4.825,0.098-7.548,1.96
	c-2.088,1.429-3.269,3.334-4.063,4.787c-1.604,0.009-3.771,0.132-5.969,1.194c-0.941,0.455-1.81,0.932-2.577,1.354
	c-0.994,0.547-1.853,1.019-2.644,1.33c-2.728,1.073-4.411,3.055-5.524,4.368c-0.092,0.108-0.197,0.232-0.298,0.349
	c-0.556,0.188-1.115,0.388-1.676,0.59c-0.957,0.344-1.868,0.672-2.658,0.885c-0.254-0.037-0.621-0.105-0.91-0.159
	c-1.46-0.271-3.462-0.646-5.742-0.304c-2.145,0.321-3.886,1.168-5.158,1.787c-0.131,0.064-0.279,0.135-0.424,0.205
	c-0.08-0.033-0.157-0.065-0.229-0.095c-1.492-0.619-3.535-1.466-6.085-1.466c-0.603,0-1.202,0.006-1.8,0.012
	c-1.48,0.016-2.877,0.03-4.148-0.063c-2.09-0.155-4.156-0.443-5.903-0.705c-2.257-0.339-4.24,0.021-5.688,0.284
	c-0.256,0.046-0.574,0.104-0.819,0.142c-0.374-0.16-0.923-0.44-1.321-0.643c-1.07-0.546-2.401-1.225-3.96-1.706
	c-1.807-0.558-3.551-1.159-5.189-1.79c-0.17-0.165-0.399-0.402-0.581-0.59c-1.044-1.082-2.473-2.564-4.611-3.597
	c-2.322-1.122-4.607-1.174-6.303-1.11c-0.809-1.379-1.996-3.183-3.989-4.546c-1.447-0.989-2.85-2.112-4.335-3.301l-0.341-0.273
	c-2.085-1.668-4.396-2.254-5.924-2.643c-0.194-0.049-0.428-0.108-0.625-0.162c-0.856-0.731-1.703-1.335-2.467-1.881
	c-0.212-0.151-0.434-0.309-0.646-0.464c-0.104-2.031-0.317-4.991-2.414-7.622c-1.131-1.418-2.356-2.416-3.341-3.218
	c-0.392-0.32-0.93-0.757-1.034-0.872c-0.923-1.353-1.954-2.414-2.783-3.268c-0.431-0.443-1.02-1.05-1.167-1.292
	c-0.446-0.772-0.925-1.536-1.407-2.301c-0.649-1.03-1.262-2.002-1.677-2.864c-0.758-1.574-1.71-2.833-2.476-3.845
	c-0.328-0.433-0.822-1.087-0.921-1.284c-0.142-0.362-0.291-1.289-0.41-2.033c-0.189-1.181-0.404-2.52-0.846-3.957
	c-0.159-0.516-0.267-1.439-0.371-2.332c-0.127-1.089-0.272-2.324-0.572-3.645c-0.34-1.498-0.838-2.77-1.278-3.893
	c-0.174-0.445-0.376-0.961-0.51-1.364c0.057-0.183,0.123-0.385,0.179-0.557c0.495-1.52,1.172-3.601,0.986-6.124
	c-0.112-1.524-0.421-2.891-0.67-3.989c-0.165-0.728-0.351-1.553-0.351-1.927c0-1.056-0.05-2.031-0.099-2.974
	c-0.058-1.125-0.113-2.188-0.051-3.029c0.022-0.301,0.295-1.145,0.494-1.761c0.359-1.111,0.806-2.494,1.042-4.075
	c0.137-0.918,0.425-1.975,0.729-3.094c0.241-0.883,0.479-1.766,0.682-2.661c0.464-2.043,0.356-3.905,0.278-5.264
	c-0.02-0.353-0.047-0.811-0.045-1.079c0.19-0.491,0.555-1.177,0.91-1.843c0.52-0.978,1.11-2.086,1.614-3.37
	c0.456-1.161,1.063-2.381,1.707-3.672c0.284-0.57,0.567-1.139,0.844-1.713c0.5-1.037,0.904-2.049,1.262-2.941
	c0.391-0.977,0.759-1.898,1.131-2.542l0.189-0.327c0.989-1.713,1.923-3.331,2.92-4.792c2.334-3.422,1.452-8.088-1.971-10.422
	c-3.423-2.335-8.088-1.451-10.422,1.971c-1.313,1.925-2.434,3.865-3.517,5.742l-0.188,0.324c-0.911,1.577-1.527,3.116-2.07,4.475
	c-0.293,0.734-0.571,1.427-0.848,2.001c-0.248,0.514-0.502,1.025-0.757,1.536c-0.76,1.526-1.546,3.103-2.244,4.882
	c-0.188,0.479-0.53,1.122-0.892,1.801c-0.672,1.263-1.508,2.834-2.081,4.696c-0.733,2.383-0.608,4.554-0.517,6.138
	c0.023,0.404,0.055,0.947,0.044,1.19c-0.15,0.648-0.327,1.288-0.501,1.928c-0.387,1.42-0.825,3.03-1.092,4.822
	c-0.054,0.358-0.27,1.028-0.48,1.676c-0.457,1.414-1.025,3.172-1.18,5.269c-0.131,1.778-0.046,3.439,0.029,4.905
	c0.038,0.733,0.079,1.468,0.079,2.203c0,2.049,0.399,3.816,0.721,5.235c0.117,0.516,0.229,1.011,0.292,1.4
	c-0.066,0.224-0.163,0.523-0.241,0.762c-0.524,1.611-1.316,4.045-0.89,6.902c0.303,2.034,0.977,3.752,1.517,5.133
	c0.259,0.662,0.527,1.345,0.617,1.743c0.123,0.539,0.209,1.281,0.301,2.067c0.166,1.415,0.372,3.175,0.933,5.001
	c0.134,0.435,0.255,1.189,0.372,1.919c0.233,1.456,0.524,3.269,1.257,5.136c0.808,2.061,1.981,3.611,2.923,4.856
	c0.34,0.449,0.805,1.064,0.925,1.305c0.784,1.626,1.694,3.072,2.497,4.347c0.379,0.603,0.76,1.203,1.112,1.813
	c1.06,1.834,2.355,3.167,3.396,4.238c0.449,0.462,0.958,0.986,1.15,1.269c1.274,1.868,2.823,3.129,3.954,4.05
	c0.082,0.066,0.169,0.138,0.258,0.211c0.104,2.08,0.295,5.521,2.885,8.314c1.344,1.45,2.825,2.507,4.015,3.357
	c0.635,0.453,1.235,0.881,1.587,1.209c2.23,2.073,4.816,2.729,6.527,3.164c0.221,0.056,0.495,0.125,0.704,0.184
	c1.435,1.147,2.914,2.328,4.549,3.479c0.107,0.179,0.235,0.403,0.34,0.586c0.906,1.583,2.274,3.976,4.998,5.554
	c2.883,1.67,5.78,1.53,7.696,1.436c0.003,0,0.006,0,0.009,0c0.035,0.037,0.07,0.073,0.103,0.107
	c1.128,1.169,2.833,2.936,5.416,3.952c2.125,0.835,4.388,1.625,6.727,2.347c0.321,0.099,0.984,0.437,1.569,0.735
	c1.351,0.689,3.033,1.546,5.108,2.019c2.597,0.592,4.867,0.18,6.522-0.121c0.342-0.062,0.792-0.144,1.039-0.171
	c1.968,0.292,4.29,0.609,6.77,0.792C168.278,336.024,170.062,336.004,171.786,335.987z"/>
<path d="M125.678,249.115c0.068,0.436,0.098,1.083,0.129,1.77c0.075,1.643,0.168,3.687,0.876,5.871
	c0.868,2.675,2.107,5.106,3.103,7.061c1.169,2.293,2.824,3.817,4.033,4.93c0.347,0.32,0.823,0.758,0.952,0.922
	c1.562,2.15,3.225,3.815,4.833,5.425l0.157,0.157c0.168,0.169,0.563,0.735,0.85,1.148c0.915,1.314,2.168,3.115,4.186,4.586
	c2.052,1.496,4.18,2.111,5.734,2.56c0.421,0.122,0.984,0.285,1.237,0.388c0.19,0.141,0.557,0.465,0.833,0.708
	c1.219,1.075,3.061,2.7,5.686,3.554c2.798,0.91,5.242,1.522,7.472,1.873c2.322,0.366,4.624,0.391,6.692,0.391
	c0.167,0,0.332,0,0.496,0h0.48c2.853,0,5.571-0.37,7.621-0.693c2.678-0.421,5.188-1.01,7.462-1.75
	c2.142-0.697,4.379-1.655,7.043-3.016c2.075-1.062,3.568-2.442,4.767-3.551c0.484-0.448,0.941-0.87,1.269-1.109
	c0.415-0.302,0.936-0.633,1.487-0.984c1.359-0.864,3.051-1.939,4.617-3.507c1.567-1.569,2.681-3.212,3.663-4.662
	c0.31-0.457,0.619-0.915,0.943-1.362c1.356-1.867,2.284-3.747,3.102-5.404c0.191-0.387,0.382-0.774,0.579-1.162
	c0.245-0.48,0.506-0.951,0.766-1.421c0.841-1.525,1.795-3.255,2.487-5.39c0.866-2.67,1.328-5.228,1.665-7.378
	c0.416-2.646,0.45-5.165,0.45-7.518c0-0.533,0.04-1.162,0.082-1.829c0.102-1.601,0.228-3.594-0.111-5.755
	c-0.065-0.415-0.125-0.833-0.187-1.25c-0.276-1.899-0.59-4.051-1.304-6.255c-0.158-0.488-0.307-0.985-0.457-1.485
	c-0.529-1.766-1.128-3.768-2.147-5.767c-1.008-1.979-2.309-3.598-3.354-4.898c-0.372-0.463-0.744-0.921-1.083-1.388
	c-1.567-2.158-3.359-4-5.059-5.703c-1.564-1.567-3.202-2.67-4.647-3.644c-0.466-0.314-0.934-0.627-1.386-0.957
	c-1.785-1.301-3.606-2.109-5.069-2.759c-0.482-0.214-0.968-0.427-1.444-0.664c-0.179-0.145-0.513-0.456-0.764-0.691
	c-1.225-1.145-3.075-2.874-5.797-3.759c-2.151-0.699-4.253-0.991-6.108-1.248c-0.489-0.068-0.977-0.135-1.456-0.21
	c-2.389-0.375-4.517-0.031-6.073,0.22c-0.582,0.094-1.242,0.201-1.555,0.201c-2.757,0-5.133,0.171-7.478,0.54
	c-0.262,0.04-0.972,0.029-1.49,0.02c-1.604-0.029-3.798-0.066-6.152,0.699c-2.469,0.803-4.234,2.214-5.523,3.244
	c-0.361,0.289-0.855,0.683-1.025,0.781c-0.358,0.183-0.941,0.396-1.559,0.623c-1.527,0.559-3.427,1.254-5.311,2.627
	c-2.032,1.481-3.978,3.148-5.782,4.955c-0.396,0.396-0.813,0.782-1.23,1.17c-1.295,1.205-2.764,2.57-4.067,4.363
	c-1.352,1.859-2.075,3.765-2.657,5.295c-0.241,0.633-0.467,1.23-0.666,1.619c-1.204,2.361-2.158,4.648-2.918,6.992
	c-0.694,2.141-1.229,4.487-1.684,7.384c-0.05,0.316-0.245,0.951-0.418,1.511c-0.468,1.518-1.108,3.597-1.108,6.018
	c0,2.304,0.513,4.286,0.926,5.877C125.453,248.075,125.61,248.684,125.678,249.115z M139.803,239.953
	c0.305-0.991,0.685-2.223,0.901-3.603c0.333-2.125,0.684-3.693,1.135-5.084c0.514-1.585,1.172-3.157,2.012-4.805
	c0.568-1.114,0.97-2.172,1.324-3.106c0.233-0.612,0.584-1.538,0.768-1.802c0.45-0.619,1.275-1.387,2.149-2.2
	c0.554-0.515,1.104-1.029,1.628-1.554c1.253-1.255,2.6-2.409,3.99-3.422c0.244-0.161,1.055-0.457,1.646-0.673
	c0.964-0.353,2.058-0.753,3.23-1.353c1.485-0.76,2.637-1.68,3.562-2.419c0.271-0.216,0.615-0.492,0.857-0.666
	c0.321-0.012,0.811-0.004,1.194,0.003c1.128,0.018,2.533,0.043,4.081-0.2c1.554-0.244,3.189-0.358,5.147-0.358
	c1.517,0,2.865-0.218,3.948-0.393c0.496-0.08,1.166-0.188,1.448-0.195c0.539,0.083,1.084,0.16,1.631,0.235
	c1.148,0.159,2.242,0.311,3.089,0.528c0.187,0.163,0.433,0.394,0.63,0.578c0.95,0.888,2.251,2.104,4.032,3.015
	c0.829,0.424,1.627,0.778,2.332,1.091c0.939,0.417,1.827,0.811,2.324,1.173c0.601,0.438,1.219,0.856,1.837,1.273
	c0.966,0.651,1.878,1.266,2.416,1.804c1.333,1.335,2.606,2.639,3.538,3.921c0.479,0.66,0.998,1.311,1.523,1.963
	c0.677,0.843,1.377,1.715,1.685,2.318c0.403,0.79,0.762,1.988,1.142,3.257c0.182,0.609,0.365,1.216,0.557,1.81
	c0.323,0.995,0.52,2.352,0.729,3.788c0.069,0.473,0.138,0.946,0.212,1.416c0.083,0.532,0.021,1.523-0.04,2.481
	c-0.053,0.829-0.112,1.769-0.112,2.777c0,1.834-0.021,3.611-0.269,5.191c-0.247,1.57-0.572,3.401-1.115,5.077
	c-0.25,0.772-0.762,1.7-1.354,2.774c-0.338,0.613-0.675,1.227-0.994,1.853c-0.227,0.446-0.447,0.892-0.667,1.336
	c-0.633,1.283-1.18,2.391-1.785,3.224c-0.421,0.58-0.825,1.173-1.228,1.768c-0.667,0.984-1.296,1.914-1.857,2.476
	c-0.396,0.396-1.199,0.907-2.05,1.447c-0.691,0.439-1.475,0.938-2.275,1.521c-1.035,0.754-1.875,1.532-2.617,2.218
	c-0.458,0.424-1.151,1.064-1.412,1.208c-1.94,0.991-3.482,1.661-4.854,2.107c-1.523,0.496-3.257,0.898-5.154,1.197
	c-1.51,0.237-3.476,0.51-5.289,0.51h-0.495c-1.804-0.001-3.498,0.002-4.842-0.208c-1.354-0.212-2.929-0.607-4.805-1.205
	c-0.205-0.163-0.519-0.439-0.762-0.654c-0.925-0.815-2.191-1.932-3.862-2.786c-1.459-0.746-2.848-1.148-3.964-1.47
	c-0.345-0.1-0.787-0.228-1.07-0.326c-0.196-0.248-0.482-0.659-0.704-0.978c-0.642-0.923-1.441-2.071-2.549-3.18l-0.158-0.158
	c-1.309-1.311-2.44-2.444-3.313-3.644c-0.975-1.341-2.055-2.336-2.923-3.136c-0.315-0.291-0.735-0.677-0.92-0.884
	c-0.772-1.517-1.626-3.212-2.107-4.693c-0.089-0.312-0.133-1.289-0.163-1.936c-0.046-1.013-0.098-2.16-0.295-3.413
	c-0.181-1.156-0.452-2.2-0.69-3.12c-0.199-0.768-0.446-1.723-0.448-2.065C139.382,241.318,139.635,240.496,139.803,239.953z"/>
<path d="M489.56,358.998H480c-4.142,0-7.5,3.358-7.5,7.5s3.358,7.5,7.5,7.5h9.56c4.103,0,7.44,3.338,7.44,7.44v0.119
	c0,4.103-3.338,7.44-7.44,7.44H96.667c-4.142,0-7.5,3.358-7.5,7.5s3.358,7.5,7.5,7.5H489.56c12.374,0,22.44-10.067,22.44-22.44
	v-0.119C512,369.065,501.933,358.998,489.56,358.998z"/>
<path d="M22.44,373.998C22.445,373.998,22.436,373.998,22.44,373.998C22.446,373.998,22.435,373.998,22.44,373.998H448.5
	c4.142,0,7.5-3.358,7.5-7.5s-3.358-7.5-7.5-7.5h-16v-42.5c0-9.649-7.851-17.5-17.5-17.5h-12.5V166.499c0-4.142-3.358-7.5-7.5-7.5
	s-7.5,3.358-7.5,7.5v132.499H375c-9.649,0-17.5,7.851-17.5,17.5v42.5H239.434c0.456-0.179,0.913-0.384,1.368-0.648
	c2.562-1.491,3.955-3.72,4.879-5.221c1.828-0.18,4.534-0.477,7.072-2.312c1.383-1.014,2.527-2.122,3.537-3.099
	c0.621-0.601,1.208-1.169,1.744-1.601c3.042-2.484,3.635-6.011,3.989-8.119c0.015-0.089,0.032-0.19,0.05-0.294
	c0.765-0.802,1.411-1.589,2.003-2.31c0.205-0.249,0.399-0.485,0.586-0.708c0.048-0.008,0.095-0.015,0.138-0.022
	c2-0.321,5.349-0.857,7.861-3.646c1.839-2.04,2.419-4.394,2.619-6.34c2.24-0.428,4.963-1.361,6.869-3.996
	c0.434-0.591,0.894-1.181,1.355-1.773c0.953-1.224,1.938-2.489,2.863-3.912c0.991-1.524,1.641-3.028,2.215-4.355
	c0.33-0.762,0.641-1.482,0.935-1.987c0.828-1.435,1.488-2.888,2.071-4.17c0.327-0.719,0.65-1.437,1.01-2.142
	c0.26-0.512,0.527-1.027,0.794-1.543c0.782-1.511,1.591-3.073,2.337-4.748c0.655-1.481,1.148-2.913,1.625-4.297
	c0.259-0.753,0.516-1.505,0.812-2.268c1.144-2.993,0.649-5.749,0.322-7.574c-0.004-0.021-0.008-0.043-0.012-0.065
	c0.048-0.061,0.094-0.121,0.138-0.177c0.973-1.244,2.443-3.124,3.123-5.7c0.59-2.215,0.497-4.25,0.429-5.736
	c-0.022-0.482-0.052-1.142-0.039-1.294c0.42-1.989,0.376-3.765,0.341-5.193c-0.017-0.682-0.034-1.388,0.006-1.66
	c0.053-0.215,0.307-0.802,0.492-1.231c0.588-1.36,1.393-3.224,1.621-5.486c0.177-1.673,0.188-3.253,0.197-4.648
	c0.005-0.76,0.007-1.521,0.043-2.248c0.095-1.71-0.016-3.269-0.114-4.644c-0.055-0.761-0.106-1.483-0.113-2.125
	c0.053-0.241,0.203-0.725,0.316-1.089c0.453-1.458,1.069-3.437,0.983-5.778c0.049-0.247,0.18-0.717,0.279-1.073
	c0.438-1.572,1.039-3.724,0.772-6.227c-0.227-2.26-1.012-4.147-1.585-5.524c-0.195-0.47-0.463-1.114-0.508-1.303
	c-0.421-2.671-1.722-4.699-2.582-6.04c-0.165-0.256-0.377-0.588-0.497-0.796c-0.343-1.503-0.787-2.853-1.183-4.054
	c-0.158-0.479-0.311-0.941-0.445-1.38c0.04-0.163,0.083-0.339,0.122-0.49c0.461-1.829,1.158-4.593,0.148-7.713
	c-0.791-2.429-2.196-4.142-3.222-5.393c-0.19-0.232-0.432-0.527-0.589-0.735c-0.045-0.294-0.09-0.752-0.125-1.11
	c-0.148-1.505-0.351-3.567-1.29-5.687c-0.088-0.235-0.219-0.939-0.314-1.454c-0.269-1.453-0.638-3.442-1.645-5.415
	c-1.457-2.87-3.95-4.354-5.647-5.263c-0.134-1.758-0.415-4.225-1.953-6.59c-1.314-2.022-3-3.323-4.229-4.272
	c-0.33-0.255-0.774-0.598-0.956-0.771c-0.95-1.3-1.958-2.453-2.85-3.473c-0.505-0.578-1.011-1.154-1.507-1.769
	c-1.622-2.001-3.555-3.076-4.967-3.861c-0.29-0.161-0.669-0.373-0.874-0.503c-0.403-0.464-0.826-1.012-1.271-1.587
	c-0.825-1.068-1.759-2.279-2.988-3.515c-0.468-0.466-0.925-0.932-1.38-1.396c-1.085-1.107-2.207-2.253-3.485-3.405
	c-1.267-1.142-2.51-2.127-3.713-3.079c-0.293-0.232-0.587-0.465-0.888-0.706c-0.062-0.155-0.128-0.323-0.184-0.467
	c-0.693-1.775-1.741-4.458-4.408-6.398c-1.678-1.223-3.379-2.325-5.025-3.392l-0.778-0.505c-2.093-1.369-4.223-1.839-5.778-2.183
	c-0.372-0.082-0.867-0.191-1.104-0.265c-1.563-0.885-3.095-1.436-4.336-1.882c-0.733-0.264-1.425-0.513-1.836-0.721
	c-1.916-0.993-3.799-1.397-5.174-1.692c-0.53-0.113-1.255-0.269-1.464-0.36c-0.201-0.106-0.722-0.51-1.102-0.805
	c-1.047-0.812-2.45-1.9-4.308-2.704c-0.172-0.155-0.415-0.392-0.606-0.578c-1.208-1.174-3.035-2.949-5.737-3.819
	c-0.719-0.236-1.437-0.505-2.157-0.774c-1.339-0.499-2.856-1.065-4.5-1.506c-2.313-0.619-4.417-0.46-5.954-0.346
	c-0.417,0.031-0.983,0.076-1.227,0.065c-0.591-0.131-1.304-0.352-2.056-0.584c-1.338-0.414-2.854-0.883-4.585-1.156
	c-3.108-0.489-5.658,0.507-7.345,1.168c-0.114,0.044-0.243,0.095-0.368,0.144c-0.271-0.083-0.581-0.187-0.841-0.273
	c-1.344-0.448-3.184-1.061-5.285-1.164c-0.225-0.031-0.847-0.226-1.302-0.368c-1.414-0.442-3.35-1.047-5.641-1.047
	c-0.445,0-1.202-0.118-1.935-0.232c-1.388-0.217-3.117-0.487-5.043-0.389c-3.213,0.162-5.542,1.734-7.083,2.774
	c-0.102,0.069-0.217,0.147-0.33,0.222c-0.323-0.017-0.691-0.045-1.035-0.073c-1.427-0.113-3.202-0.254-5.215,0.058
	c-2.053,0.321-3.725,1.017-5.069,1.576c-0.45,0.187-0.945,0.393-1.277,0.507c-0.242-0.028-0.589-0.081-0.863-0.123
	c-1.567-0.239-3.933-0.601-6.524,0.089c-2.137,0.567-3.837,1.589-5.079,2.334c-0.442,0.266-1.048,0.63-1.278,0.716
	c-1.872,0.612-3.373,1.489-4.58,2.193c-0.364,0.213-0.735,0.43-1.057,0.601c-0.175-0.016-0.366-0.035-0.529-0.051
	c-1.776-0.176-4.462-0.443-7.332,0.826c-3.088,1.39-4.715,3.982-5.688,5.531c-0.031,0.049-0.063,0.101-0.097,0.154
	c-0.218,0.059-0.447,0.118-0.647,0.169c-1.374,0.352-3.255,0.834-5.151,1.934c-0.235,0.137-0.974,0.385-1.513,0.566
	c-1.397,0.47-3.137,1.056-4.884,2.198c-0.504,0.328-1.201,0.686-1.938,1.064c-1.249,0.642-2.665,1.37-4.127,2.427
	c-0.217,0.147-0.906,0.449-1.409,0.669c-1.389,0.608-3.118,1.365-4.793,2.724l-0.64,0.518c-1.569,1.271-3.192,2.585-4.755,3.993
	c-3.003,2.707-3.338,6.375-3.539,8.566c-0.007,0.075-0.014,0.157-0.022,0.243c-0.674,0.768-1.265,1.517-1.808,2.206
	c-0.202,0.255-0.398,0.505-0.591,0.745c-0.056,0.012-0.11,0.023-0.16,0.034c-1.996,0.415-5.336,1.11-7.729,4.061
	c-1.41,1.75-2.168,3.619-2.722,4.983c-0.188,0.464-0.446,1.101-0.556,1.278c-1.484,2.053-2.038,4.165-2.441,5.707
	c-0.003,0.011-0.006,0.022-0.009,0.034c-1.815,0.775-4.676,2.074-6.419,5.097c-1.005,1.743-1.529,3.463-1.95,4.845
	c-0.198,0.65-0.422,1.388-0.594,1.722c-1.193,2.338-1.367,4.59-1.494,6.234c-0.017,0.221-0.038,0.489-0.06,0.713
	c-0.152,0.168-0.337,0.365-0.49,0.528c-1.123,1.194-2.66,2.83-3.591,5.265c-1.014,2.649-0.803,5.142-0.663,6.792
	c0.016,0.184,0.034,0.403,0.048,0.597c-0.139,0.217-0.315,0.479-0.46,0.693c-0.853,1.264-2.021,2.996-2.646,5.324
	c-0.512,1.919-0.584,3.682-0.643,5.098c-0.029,0.706-0.059,1.436-0.139,1.814c-0.503,2.382-0.88,4.671-1.215,6.808
	c-0.317,2.059-0.14,3.853,0.002,5.295c0.055,0.559,0.131,1.326,0.099,1.627c-0.077,0.76-0.188,1.505-0.296,2.25
	c-0.183,1.253-0.388,2.662-0.481,4.157c-0.085,0.221-0.239,0.57-0.358,0.841c-0.642,1.457-1.613,3.658-1.613,6.372
	c0,2.224,0.55,4.129,0.952,5.52c0.142,0.491,0.336,1.163,0.357,1.346l0.035,0.697c0.099,1.996,0.201,4.06,0.428,6.194
	c0.074,0.705,0.134,1.405,0.193,2.103c0.129,1.514,0.263,3.08,0.525,4.741c0.034,0.255-0.01,0.997-0.043,1.538
	c-0.089,1.497-0.201,3.36,0.242,5.448c0.458,2.184,1.396,3.94,2.081,5.223c0.239,0.447,0.566,1.06,0.628,1.246
	c0.544,2.061,1.446,3.655,2.17,4.936c0.24,0.425,0.529,0.936,0.663,1.229c0.013,0.25,0.011,0.678,0.009,1.006
	c-0.01,1.594-0.022,3.777,0.896,6.181c0.777,2.006,1.921,3.557,2.757,4.689c0.04,0.055,0.082,0.111,0.125,0.17
	c-0.555,2.101-1.389,5.505,0.368,8.984c1.253,2.443,3.182,3.98,4.459,4.997c0.239,0.19,0.546,0.435,0.733,0.598
	c0.836,1.412,1.707,2.721,2.55,3.991c0.337,0.507,0.673,1.013,1.004,1.521c0.998,1.534,2.143,2.767,3.063,3.757
	c0.545,0.587,1.061,1.141,1.394,1.602c0.454,0.623,0.882,1.263,1.31,1.9c0.776,1.154,1.656,2.463,2.698,3.748
	c0.2,0.246,0.565,0.93,0.86,1.479c0.691,1.289,1.55,2.894,2.932,4.426c1.939,2.153,4.322,3.083,5.898,3.698
	c0.218,0.085,0.488,0.19,0.693,0.276c0.356,0.388,0.734,0.833,1.127,1.298c0.882,1.042,1.881,2.22,3.145,3.367
	c0.163,0.186,0.508,0.713,0.762,1.102c0.815,1.247,1.932,2.953,3.75,4.438c1.351,1.088,2.701,1.888,3.892,2.593
	c0.72,0.426,1.4,0.829,1.924,1.213c1.799,1.308,3.669,1.973,5.034,2.458c0.171,0.061,0.365,0.13,0.551,0.197
	c0.021,0.044,0.042,0.086,0.061,0.127c0.805,1.688,2.151,4.515,5.097,6.214c0.895,0.524,1.794,0.902,2.646,1.197H22.44
	C10.067,358.998,0,369.065,0,381.439v0.119c0,12.373,10.067,22.44,22.44,22.44H64c4.142,0,7.5-3.358,7.5-7.5s-3.358-7.5-7.5-7.5
	H22.44c-4.103,0-7.44-3.338-7.44-7.44v-0.119C15,377.336,18.338,373.998,22.44,373.998 M415,313.999c1.378,0,2.5,1.122,2.5,2.5
	v42.499h-15v-45H415V313.999z M372.5,316.499c0-1.378,1.122-2.5,2.5-2.5h12.5v45h-15V316.499z M155.406,355.389
	c-2.259-0.354-4.213-0.021-5.64,0.223c-0.309,0.053-0.71,0.122-0.952,0.149c-1.876-0.348-3.581-0.247-4.847-0.172
	c-0.412,0.024-0.964,0.058-1.221,0.046c-1.135-0.294-2.231-0.5-3.202-0.683c-1.03-0.193-2.002-0.376-2.735-0.613
	c-2.08-0.67-4.042-0.692-5.475-0.708c-0.328-0.003-0.745-0.008-1.028-0.024c-0.296-0.192-0.755-0.536-1.082-0.781
	c-1.078-0.807-2.418-1.812-4.126-2.571c-0.277-0.125-1.009-0.68-1.493-1.048c-0.982-0.746-2.206-1.674-3.679-2.426
	c-1.729-0.891-3.391-1.29-4.728-1.61c-0.139-0.033-0.292-0.07-0.446-0.108c-0.797-1.673-2.005-4.155-4.633-5.873
	c-1.613-1.049-3.192-1.61-4.46-2.061c-0.452-0.161-1.063-0.378-1.296-0.5c-1.064-0.773-2.114-1.395-3.042-1.944
	c-0.781-0.463-1.521-0.901-2-1.269c-0.17-0.207-0.492-0.7-0.732-1.067c-0.723-1.104-1.712-2.618-3.216-3.983
	c-0.541-0.487-1.124-1.175-1.798-1.971c-0.662-0.782-1.413-1.668-2.31-2.57c-1.86-1.86-4.052-2.716-5.502-3.282
	c-0.15-0.059-0.326-0.127-0.488-0.193c-0.183-0.311-0.398-0.714-0.574-1.042c-0.595-1.11-1.335-2.491-2.433-3.843
	c-0.616-0.76-1.238-1.686-1.896-2.666c-0.535-0.795-1.071-1.591-1.622-2.345c-0.856-1.184-1.752-2.149-2.543-3
	c-0.609-0.656-1.185-1.275-1.477-1.725c-0.357-0.55-0.721-1.097-1.085-1.645c-0.823-1.238-1.6-2.408-2.256-3.534
	c-1.045-1.811-2.416-3.057-3.563-3.994c0.488-2.006,0.945-4.854-0.343-7.75c-0.753-1.702-1.72-3.013-2.497-4.065
	c-0.242-0.328-0.552-0.748-0.719-0.997c-0.007-0.251-0.005-0.6-0.004-0.877c0.009-1.436,0.021-3.402-0.681-5.578
	c-0.55-1.684-1.316-3.039-1.932-4.128c-0.275-0.487-0.652-1.154-0.73-1.404c-0.488-1.831-1.269-3.292-1.897-4.467
	c-0.225-0.42-0.526-0.984-0.628-1.251c-0.02-0.293,0.02-0.958,0.049-1.454c0.079-1.307,0.176-2.934-0.112-4.766
	c-0.181-1.141-0.286-2.377-0.398-3.686c-0.068-0.796-0.137-1.596-0.222-2.407c-0.183-1.718-0.27-3.483-0.362-5.353l-0.037-0.746
	c-0.104-1.874-0.56-3.452-0.926-4.72c-0.098-0.339-0.22-0.763-0.295-1.054c0.083-0.199,0.186-0.432,0.271-0.625
	c0.615-1.395,1.457-3.305,1.592-5.752c0.048-0.957,0.202-2.016,0.365-3.137c0.139-0.956,0.276-1.914,0.373-2.863
	c0.19-1.798,0.034-3.378-0.091-4.648c-0.054-0.548-0.128-1.299-0.107-1.518c0.3-1.915,0.637-3.968,1.07-6.018
	c0.338-1.609,0.399-3.096,0.448-4.291c0.024-0.594,0.054-1.313,0.116-1.692c0.132-0.232,0.41-0.645,0.622-0.958
	c0.761-1.128,1.803-2.673,2.446-4.66c0.8-2.459,0.606-4.76,0.477-6.283c-0.007-0.077-0.014-0.16-0.021-0.244
	c0.088-0.095,0.176-0.188,0.256-0.273c1.018-1.083,2.412-2.566,3.342-4.668c0.962-2.15,1.12-4.198,1.235-5.694
	c0.023-0.305,0.054-0.697,0.084-0.943c0.661-1.378,1.066-2.71,1.397-3.799c0.059-0.191,0.126-0.414,0.197-0.637
	c1.797-0.766,4.443-1.931,6.237-4.69c1.235-1.899,1.737-3.815,2.104-5.215c0.085-0.323,0.195-0.745,0.273-0.983
	c1.027-1.487,1.626-2.963,2.113-4.163c0.012-0.029,0.024-0.06,0.036-0.09c1.908-0.407,4.778-1.148,6.968-3.577
	c0.791-0.877,1.476-1.746,2.08-2.513c0.663-0.841,1.235-1.567,1.82-2.152c2.647-2.665,2.974-6.109,3.164-8.183
	c0.907-0.768,1.864-1.542,2.799-2.3l0.6-0.489c0.217-0.147,0.906-0.449,1.409-0.669c1.223-0.536,2.746-1.202,4.212-2.277
	c0.511-0.369,1.313-0.782,2.164-1.219c0.991-0.509,2.114-1.086,3.255-1.829c0.229-0.133,0.961-0.379,1.495-0.559
	c1.213-0.408,2.722-0.916,4.207-1.783c0.219-0.102,0.9-0.276,1.397-0.404c1.264-0.324,2.836-0.727,4.496-1.574
	c2.416-1.232,3.838-3.145,4.806-4.638c1.623,0.14,3.805,0.201,6.097-0.682c1.512-0.581,2.776-1.319,3.792-1.913
	c0.622-0.363,1.327-0.774,1.656-0.882c1.798-0.582,3.219-1.436,4.362-2.122c0.301-0.181,0.677-0.407,0.938-0.554
	c0.215,0.029,0.468,0.067,0.678,0.1c1.515,0.23,3.589,0.547,6.004,0.04c1.647-0.357,3.041-0.937,4.162-1.403
	c0.569-0.237,1.348-0.561,1.611-0.604c0.28-0.044,1.118,0.024,1.728,0.073c1.224,0.097,2.748,0.218,4.486,0.042
	c2.899-0.31,5.04-1.756,6.457-2.712c0.078-0.052,0.163-0.11,0.249-0.168c0.364,0.045,0.781,0.111,1.17,0.171
	c1.149,0.179,2.573,0.401,4.139,0.411c0.256,0.047,0.839,0.229,1.272,0.364c1.319,0.413,2.961,0.926,4.901,1.023
	c0.243,0.032,0.922,0.258,1.418,0.423c1.233,0.411,2.769,0.923,4.589,1.108c2.882,0.305,5.262-0.626,6.834-1.243
	c0.11-0.043,0.235-0.092,0.357-0.139c0.507,0.132,1.076,0.308,1.665,0.49c1.029,0.319,2.196,0.68,3.452,0.945
	c2.087,0.449,3.99,0.308,5.379,0.205c0.388-0.029,0.89-0.056,1.169-0.066c0.894,0.255,1.886,0.625,2.933,1.015
	c0.706,0.263,1.41,0.524,2.134,0.774c0.166,0.153,0.376,0.357,0.545,0.521c1.092,1.062,2.737,2.66,5.1,3.586
	c0.219,0.126,0.712,0.509,1.077,0.792c1.012,0.785,2.398,1.86,4.171,2.644c1.653,0.736,3.199,1.067,4.44,1.333
	c0.518,0.111,1.227,0.263,1.476,0.373c1.299,0.66,2.523,1.1,3.603,1.488c0.826,0.297,1.605,0.578,2.073,0.85
	c1.909,1.102,3.815,1.523,5.207,1.831c0.347,0.077,0.801,0.177,1.051,0.25l0.586,0.38c1.216,0.788,2.38,1.542,3.48,2.308
	c0.047,0.12,0.095,0.241,0.137,0.35c0.65,1.666,1.633,4.182,3.982,6.074c0.583,0.477,1.168,0.94,1.75,1.401
	c1.065,0.844,2.071,1.64,2.983,2.462c0.932,0.84,1.845,1.772,2.812,2.759c0.501,0.512,1.005,1.026,1.489,1.506
	c0.535,0.539,1.085,1.251,1.722,2.076c0.621,0.805,1.326,1.717,2.157,2.639c1.54,1.708,3.292,2.683,4.57,3.394
	c0.271,0.151,0.622,0.346,0.832,0.477c0.533,0.649,1.085,1.283,1.638,1.915c0.773,0.885,1.504,1.721,2.085,2.525
	c1.245,1.711,2.748,2.872,3.846,3.72c0.126,0.097,0.269,0.207,0.407,0.315c0.004,0.057,0.008,0.112,0.012,0.164
	c0.119,1.647,0.298,4.137,1.693,6.535c1.58,2.74,4.03,4.075,5.701,4.957c0.028,0.148,0.055,0.295,0.08,0.429
	c0.243,1.311,0.543,2.932,1.274,4.626c0.053,0.259,0.109,0.827,0.15,1.252c0.132,1.341,0.313,3.178,1.051,5.12
	c0.81,2.105,2.072,3.645,2.994,4.769c0.027,0.033,0.054,0.066,0.083,0.101c-0.427,1.703-1.009,4.204-0.262,7.033
	c0.292,1.094,0.629,2.12,0.928,3.024c0.336,1.02,0.653,1.983,0.831,2.814c0.501,2.374,1.639,4.146,2.469,5.44
	c0.155,0.241,0.353,0.55,0.476,0.76c0.327,1.685,0.913,3.094,1.391,4.245c0.147,0.353,0.333,0.8,0.443,1.11
	c-0.062,0.252-0.154,0.583-0.229,0.85c-0.379,1.357-0.892,3.195-0.832,5.38c-0.058,0.247-0.199,0.701-0.307,1.046
	c-0.419,1.349-0.994,3.196-0.994,5.388c0,1.213,0.081,2.347,0.152,3.347c0.076,1.066,0.142,1.987,0.097,2.788
	c-0.049,0.985-0.058,1.965-0.064,2.942c-0.007,1.104-0.014,2.149-0.105,3.091c-0.073,0.245-0.308,0.788-0.482,1.191
	c-0.513,1.188-1.216,2.815-1.527,4.781c-0.264,1.687-0.227,3.207-0.197,4.429c0.015,0.61,0.036,1.447-0.023,1.728
	c-0.412,1.956-0.329,3.759-0.269,5.075c0.014,0.303,0.031,0.677,0.035,0.968c-0.131,0.174-0.289,0.376-0.419,0.543
	c-0.923,1.18-2.187,2.796-2.936,5.078c-0.901,2.797-0.442,5.357-0.138,7.052c0.027,0.151,0.059,0.327,0.086,0.491
	c-0.218,0.601-0.429,1.209-0.638,1.818c-0.393,1.139-0.763,2.215-1.154,3.099c-0.558,1.253-1.231,2.554-1.945,3.932
	c-0.287,0.554-0.572,1.105-0.843,1.639c-0.48,0.94-0.896,1.854-1.297,2.738c-0.485,1.068-0.944,2.077-1.394,2.858
	c-0.728,1.25-1.257,2.475-1.724,3.554c-0.354,0.82-0.722,1.668-1.022,2.131c-0.577,0.888-1.328,1.852-2.123,2.873
	c-0.106,0.137-0.213,0.273-0.319,0.41c-2.261,0.286-5.996,0.779-8.52,3.912c-1.661,2.034-2.167,4.331-2.338,6.201
	c-1.75,0.406-3.852,1.173-5.596,2.93c-0.952,0.952-1.727,1.895-2.411,2.728c-0.618,0.752-1.152,1.401-1.617,1.824
	c-2.74,2.469-3.303,5.816-3.639,7.816c-0.008,0.046-0.016,0.096-0.025,0.147c-0.481,0.441-0.93,0.876-1.349,1.282
	c-0.459,0.444-0.901,0.873-1.295,1.224c-0.153,0.016-0.313,0.032-0.453,0.045c-1.704,0.167-4.279,0.42-6.707,1.999
	c-2.028,1.319-3.274,3.105-4.128,4.464c-1.84-0.128-4.321-0.144-6.813,1.133c-0.826,0.421-1.636,0.867-2.445,1.313
	c-1.06,0.584-2.061,1.136-2.949,1.538c-1.645,0.727-3.353,1.388-5.161,2.087l-0.547,0.212c-2.677,1.029-4.383,2.933-5.512,4.192
	c-0.03,0.034-0.062,0.069-0.095,0.105c-0.188,0-0.381,0-0.551-0.002c-1.352-0.007-3.208-0.019-5.236,0.517
	c-1.723,0.468-3.387,0.88-4.968,1.232c-0.13-0.046-0.264-0.095-0.381-0.138c-1.646-0.598-4.134-1.501-7.098-1.035
	c-2.639,0.414-4.558,1.842-5.94,3.169h-0.017c-1.584-0.872-3.593-1.669-6.05-1.54c-1.335,0.067-2.717,0.055-4.181,0.042
	c-0.628-0.005-1.26-0.011-1.899-0.011c-2.208,0-4.017,0.711-5.466,1.51h-6.451C160.124,357.411,158.19,355.839,155.406,355.389z"/>
<g>
</g>
<g>
</g>
<g>
</g>
<g>
</g>
<g>
</g>
<g>
</g>
<g>
</g>
<g>
</g>
<g>
</g>
<g>
</g>
<g>
</g>
<g>
</g>
<g>
</g>
<g>
</g>
<g>
</g>
</svg>
