<svg height="480pt" viewBox="0 0 480 480.04337" width="480pt" xmlns="http://www.w3.org/2000/svg"><path d="m472.023438 472.003906-160-16v-448l160 16zm0 0" fill="#ffd77f"/><path d="m312.023438 456.003906-152 16v-448l152-16zm0 0" fill="#f7ab48"/><path d="m160.023438 472.003906-152-16v-448l152 16zm0 0" fill="#ffd77f"/><path d="m48.023438 88.003906 40-40 40 40zm0 0" fill="#07b671"/><path d="m80.023438 144.003906h16v40h-16zm0 0" fill="#572b17"/><path d="m192.023438 112.003906 40-40 40 40zm0 0" fill="#07b671"/><path d="m224.023438 136.003906h16v40h-16zm0 0" fill="#572b17"/><path d="m384.023438 336.003906c-13.257813 0-24-10.746094-24-24s10.742187-24 24-24c13.253906 0 24 10.746094 24 24s-10.746094 24-24 24zm0-32c-4.421876 0-8 3.582032-8 8 0 4.417969 3.578124 8 8 8 4.417968 0 8-3.582031 8-8 0-4.417968-3.582032-8-8-8zm0 0" fill="#d32144"/><path d="m120.023438 360.003906c-13.257813 0-24-10.746094-24-24s10.742187-24 24-24c13.253906 0 24 10.746094 24 24s-10.746094 24-24 24zm0-32c-4.421876 0-8 3.582032-8 8 0 4.417969 3.578124 8 8 8 4.417968 0 8-3.582031 8-8 0-4.417968-3.582032-8-8-8zm0 0" fill="#d32144"/><path d="m360.023438 392.003906h48v32h-48zm0 0" fill="#d32144"/><path d="m344.023438 392.003906h80l-40-40zm0 0" fill="#0d70b1"/><path d="m40.023438 424.003906 48-48 48.496093 48.496094zm0 0" fill="#4d220e"/><path d="m104.023438 424.003906 80-80 82.460937 82.464844zm0 0" fill="#572b17"/><path d="m376.023438 230.003906h16v42h-16zm0 0" fill="#572b17"/><path d="m48.023438 336.003906h16v40h-16zm0 0" fill="#572b17"/><path d="m216.023438 296.003906h16v40h-16zm0 0" fill="#572b17"/><path d="m256.023438 296.003906h16v40h-16zm0 0" fill="#572b17"/><path d="m365.820312 319.691406-56-16c-3.429687-.980468-5.796874-4.117187-5.796874-7.6875v-102.242187l-104 20.800781v17.441406c0 3.667969-2.5 6.867188-6.058594 7.757813l-32 8c-1.175782.296875-2.402344.324219-3.589844.074219l-152-32 3.292969-15.664063 150.203125 31.625 24.152344-6.042969v-17.75c-.003907-3.800781 2.671874-7.082031 6.398437-7.839844l120-24c2.355469-.480468 4.800781.121094 6.660156 1.640626 1.859375 1.519531 2.941407 3.796874 2.941407 6.199218v105.96875l50.199218 14.34375zm0 0" fill="#d32144"/><path d="m320.023438 184.003906h-16v-96c0-2.328125 1.011718-4.542968 2.777343-6.0625 1.761719-1.519531 4.101563-2.195312 6.40625-1.851562l160 24-2.402343 15.824218-150.78125-22.621093zm0 0" fill="#d32144"/><path d="m112.023438 232.003906h16v88h-16zm0 0" fill="#d32144"/><g fill="#07b671"><path d="m48.023438 120.003906 40-40 40 40zm0 0"/><path d="m48.023438 152.003906 40-40 40 40zm0 0"/><path d="m192.023438 144.003906 40-40 40 40zm0 0"/><path d="m398.292969 195.203125c8.328125-6.160156 11.765625-16.96875 8.523437-26.808594-3.246094-9.839843-12.433594-16.488281-22.792968-16.488281-10.363282 0-19.550782 6.648438-22.796876 16.488281-3.242187 9.839844.195313 20.648438 8.523438 26.808594-8.328125 6.160156-11.765625 16.96875-8.523438 26.808594 3.246094 9.839843 12.433594 16.488281 22.796876 16.488281 10.359374 0 19.546874-6.648438 22.792968-16.488281 3.242188-9.839844-.195312-20.648438-8.523437-26.808594zm0 0"/><path d="m70.292969 299.203125c8.328125-6.160156 11.765625-16.96875 8.523437-26.808594-3.246094-9.839843-12.433594-16.488281-22.792968-16.488281-10.363282 0-19.550782 6.648438-22.796876 16.488281-3.242187 9.839844.195313 20.648438 8.523438 26.808594-8.328125 6.160156-11.765625 16.96875-8.523438 26.808594 3.246094 9.839843 12.433594 16.488281 22.796876 16.488281 10.359374 0 19.546874-6.648438 22.792968-16.488281 3.242188-9.839844-.195312-20.648438-8.523437-26.808594zm0 0"/><path d="m224.023438 312.003906-32-24 32-72 32 72zm0 0"/><path d="m264.023438 312.003906-24-24 24-48 24 48zm0 0"/></g><path d="m135.414062 91.066406c1.238282-2.988281.554688-6.429687-1.734374-8.71875l-40-40c-3.125-3.125-8.191407-3.125-11.3125 0l-40 40c-2.289063 2.289063-2.972657 5.726563-1.734376 8.71875 1.238282 2.988282 4.152344 4.9375 7.390626 4.9375h12.6875l-18.34375 18.34375c-2.289063 2.289063-2.972657 5.726563-1.734376 8.71875 1.238282 2.988282 4.152344 4.9375 7.390626 4.9375h12.6875l-18.34375 18.34375c-2.289063 2.289063-2.972657 5.726563-1.734376 8.71875 1.238282 2.988282 4.152344 4.9375 7.390626 4.9375h32v24h16v-24h32c3.234374 0 6.148437-1.949218 7.386718-4.9375 1.238282-2.992187.554688-6.429687-1.730468-8.71875l-18.347657-18.34375h12.691407c3.234374 0 6.148437-1.949218 7.386718-4.9375 1.238282-2.992187.554688-6.429687-1.730468-8.71875l-18.347657-18.34375h12.691407c3.234374 0 6.152343-1.949218 7.390624-4.9375zm-39.390624 52.9375h-28.691407l16-16h9.378907l16 16zm3.308593-32-5.652343-5.65625c-3.125-3.125-8.191407-3.125-11.3125 0l-5.65625 5.65625h-9.378907l16-16h9.378907l16 16zm0-32-5.652343-5.65625c-3.125-3.125-8.191407-3.125-11.3125 0l-5.65625 5.65625h-9.378907l20.691407-20.6875 20.6875 20.6875zm0 0"/><path d="m184.628906 147.066406c1.238282 2.988282 4.15625 4.9375 7.394532 4.9375h32v24h16v-24h32c3.234374 0 6.148437-1.949218 7.386718-4.9375 1.238282-2.992187.554688-6.429687-1.730468-8.71875l-18.347657-18.34375h12.691407c3.234374 0 6.148437-1.949218 7.386718-4.9375 1.238282-2.992187.554688-6.429687-1.730468-8.71875l-40-40c-3.125-3.125-8.191407-3.125-11.3125 0l-40 40c-2.289063 2.289063-2.972657 5.726563-1.734376 8.71875 1.238282 2.988282 4.152344 4.9375 7.390626 4.9375h12.6875l-18.34375 18.34375c-2.289063 2.289063-2.976563 5.730469-1.738282 8.71875zm47.394532-63.75 20.6875 20.6875h-9.378907l-5.652343-5.65625c-3.125-3.125-8.191407-3.125-11.3125 0l-5.65625 5.65625h-9.378907zm-4.691407 36.6875h9.378907l16 16h-41.378907zm0 0"/><path d="m389.679688 346.347656c-3.125-3.125-8.191407-3.125-11.3125 0l-40 40c-2.289063 2.289063-2.972657 5.726563-1.734376 8.71875 1.238282 2.988282 4.152344 4.9375 7.390626 4.9375h8v24c0 4.417969 3.578124 8 8 8h48c4.417968 0 8-3.582031 8-8v-24h8c3.234374 0 6.148437-1.949218 7.386718-4.9375 1.238282-2.992187.554688-6.429687-1.730468-8.71875zm10.34375 69.65625h-32v-16h32zm-36.691407-32 20.691407-20.6875 20.6875 20.6875zm0 0"/><path d="m409.574219 195.203125c4.199219-5.515625 6.464843-12.265625 6.449219-19.199219 0-17.671875-14.328126-32-32-32-17.675782 0-32 14.328125-32 32-.019532 6.933594 2.246093 13.683594 6.445312 19.199219-4.199219 5.515625-6.464844 12.265625-6.445312 19.199219.054687 14.546875 9.914062 27.226562 24 30.863281v26.738281h16v-26.738281c14.082031-3.636719 23.945312-16.316406 24-30.863281.019531-6.933594-2.25-13.683594-6.449219-19.199219zm-16.054688 6.398437c4.085938 2.984376 6.503907 7.742188 6.503907 12.800782 0 8.835937-7.164063 16-16 16-8.839844 0-16-7.164063-16-16-.003907-5.058594 2.414062-9.816406 6.503906-12.800782 2.011718-1.507812 3.199218-3.878906 3.199218-6.398437s-1.1875-4.890625-3.199218-6.398437c-4.089844-2.984376-6.503906-7.742188-6.503906-12.800782 0-8.835937 7.160156-16 16-16 8.835937 0 16 7.164063 16 16 0 5.058594-2.417969 9.816406-6.503907 12.800782-2.015625 1.507812-3.203125 3.878906-3.203125 6.398437s1.1875 4.890625 3.203125 6.398437zm0 0"/><path d="m48.023438 349.265625v26.738281h16v-26.738281c14.082031-3.636719 23.945312-16.316406 24-30.863281.019531-6.933594-2.25-13.683594-6.449219-19.199219 4.199219-5.515625 6.464843-12.265625 6.449219-19.199219 0-17.671875-14.328126-32-32-32-17.675782 0-32 14.328125-32 32-.019532 6.933594 2.246093 13.683594 6.445312 19.199219-4.199219 5.515625-6.464844 12.265625-6.445312 19.199219.054687 14.546875 9.914062 27.226562 24 30.863281zm-1.496094-56.460937c-4.089844-2.984376-6.503906-7.742188-6.503906-12.800782 0-8.835937 7.160156-16 16-16 8.835937 0 16 7.164063 16 16 0 5.058594-2.417969 9.816406-6.503907 12.800782-2.015625 1.507812-3.203125 3.878906-3.203125 6.398437s1.1875 4.890625 3.203125 6.398437c4.085938 2.984376 6.503907 7.742188 6.503907 12.800782 0 8.835937-7.164063 16-16 16-8.839844 0-16-7.164063-16-16-.003907-5.058594 2.414062-9.816406 6.503906-12.800782 2.011718-1.507812 3.199218-3.878906 3.199218-6.398437s-1.1875-4.890625-3.199218-6.398437zm0 0"/><path d="m2.667969 2.058594c-1.683594 1.515625-2.6445315 3.679687-2.6445315 5.945312v448c-.0234375 4.125 3.0937505 7.585938 7.1992185 8l152 16c.269532 0 .550782.039063.800782.039063.246093 0 .558593 0 .796874-.039063l151.203126-15.960937 159.199218 15.960937c.265625.015625.53125.015625.800782 0 4.417968 0 8-3.582031 8-8v-448c.019531-4.125-3.097657-7.589844-7.203126-8l-160-15.99999975c-.265624.01562495-.535156.04296875-.796874.08593755-.273438 0-.539063-.109375-.800782-.08593755l-151.199218 15.95312475-151.203126-15.9140622c-2.238281-.1992188-4.460937.5312502-6.152343 2.0156252zm317.355469 14.785156 144 14.398438v71.472656l-144-21.597656zm0 289.769531 40.941406 11.695313c3.089844 11.207031 13.78125 18.578125 25.355468 17.476562 11.570313-1.101562 20.679688-10.359375 21.597657-21.949218.917969-11.589844-6.621094-22.160157-17.878907-25.070313-11.253906-2.910156-22.972656 2.6875-27.785156 13.269531l-42.230468-12.0625v-192.679687l144 21.597656v344.3125l-144-14.398437zm56 5.390625c0-4.417968 3.578124-8 8-8 4.417968 0 8 3.582032 8 8 0 4.417969-3.582032 8-8 8-4.421876 0-8-3.582031-8-8zm-208-280.800781 136-14.3125v160.554687l-113.601563 22.71875c-3.726563.757813-6.402344 4.039063-6.398437 7.839844v17.75l-16 4zm66.34375 262.457031.335937.335938-10.679687 8.007812-22.105469-16.578125 22.105469-49.726562 15.621093 35.160156-6.78125 13.601563c-1.523437 3.070312-.917969 6.769531 1.503907 9.199218zm-66.34375 77.65625 16-16 66.34375 66.34375 11.3125-11.3125-72-72c-3.125-3.125-8.191407-3.125-11.3125 0l-10.34375 10.34375v-102.398437l25.941406-6.488281c3.574218-.898438 6.074218-4.117188 6.058594-7.800782v-17.441406l17.796874-3.558594c-.445312.53125-.816406 1.121094-1.109374 1.75l-32 72c-1.515626 3.410156-.472657 7.414063 2.511718 9.648438l28.800782 21.601562v20h16v-20l14.101562-10.585937 9.898438 9.898437v20.6875h16v-20.6875l21.65625-21.65625c2.433593-2.433594 3.039062-6.152344 1.503906-9.234375l-24-48c-1.503906-2.519531-4.226563-4.066406-7.160156-4.066406-2.9375 0-5.65625 1.546875-7.160157 4.066406l-7.945312 15.898438-17.601563-39.570313c-.738281-1.609375-1.992187-2.925781-3.566406-3.742187l76.273438-15.25v255.042969l-136 14.3125zm95.308593-86.5625-6-13.488281 6.691407-13.375 14.261718 28.511719-14.261718 14.289062-4.96875-4.96875 1.765624-1.320312c2.984376-2.234375 4.027344-6.238282 2.511719-9.648438zm-247.308593-267.863281 136 14.3125v198.945313l-136-28.632813zm112 319.113281c0 4.417969-3.582032 8-8 8-4.421876 0-8-3.582031-8-8 0-4.417968 3.578124-8 8-8 4.417968 0 8 3.582032 8 8zm-112-118.144531 96 20.214844v75.402343c-11.023438 3.894532-17.632813 15.164063-15.65625 26.683594 1.976562 11.523438 11.964843 19.941406 23.65625 19.941406 11.6875 0 21.675781-8.417968 23.652343-19.941406 1.976563-11.519531-4.632812-22.789062-15.652343-26.683594v-72l24 5.046876v118.167968l-32 32-26.34375-26.34375c-3.125-3.125-8.191407-3.125-11.3125 0l-48 48 11.3125 11.3125 42.34375-42.34375 20.6875 20.6875-10.34375 10.34375 11.3125 11.3125 42.34375-42.34375v75.800782l-136-14.3125zm0 0"/></svg>