<svg height="466pt" viewBox="0 -1 466.832 466" width="466pt" xmlns="http://www.w3.org/2000/svg"><path d="m465.648438 464.414062-160-16v-448l160 16zm0 0" fill="#ffd77f"/><path d="m305.648438 448.414062-152 16v-448l152-16zm0 0" fill="#f7ab48"/><path d="m153.648438 464.414062-152-16v-448l152 16zm0 0" fill="#ffd77f"/><path d="m41.648438 80.414062 40-40 40 40zm0 0" fill="#07b671"/><path d="m73.648438 136.414062h16v40h-16zm0 0" fill="#572b17"/><path d="m185.648438 104.414062 40-40 40 40zm0 0" fill="#07b671"/><path d="m217.648438 128.414062h16v40h-16zm0 0" fill="#572b17"/><path d="m377.648438 328.414062c-13.253907 0-24-10.742187-24-24 0-13.253906 10.746093-24 24-24 13.253906 0 24 10.746094 24 24 0 13.257813-10.746094 24-24 24zm0-32c-4.417969 0-8 3.582032-8 8 0 4.421876 3.582031 8 8 8 4.417968 0 8-3.578124 8-8 0-4.417968-3.582032-8-8-8zm0 0" fill="#d32144"/><path d="m113.648438 352.414062c-13.253907 0-24-10.742187-24-24 0-13.253906 10.746093-24 24-24 13.253906 0 24 10.746094 24 24 0 13.257813-10.746094 24-24 24zm0-32c-4.417969 0-8 3.582032-8 8 0 4.421876 3.582031 8 8 8 4.417968 0 8-3.578124 8-8 0-4.417968-3.582032-8-8-8zm0 0" fill="#d32144"/><path d="m353.648438 384.414062h48v32h-48zm0 0" fill="#d32144"/><path d="m337.648438 384.414062h80l-40-40zm0 0" fill="#0d70b1"/><path d="m33.648438 416.414062 48-48 48.496093 48.496094zm0 0" fill="#4d220e"/><path d="m97.648438 416.414062 80-80 82.464843 82.464844zm0 0" fill="#572b17"/><path d="m369.648438 222.414062h16v42h-16zm0 0" fill="#572b17"/><path d="m41.648438 328.414062h16v40h-16zm0 0" fill="#572b17"/><path d="m209.648438 288.414062h16v40h-16zm0 0" fill="#572b17"/><path d="m249.648438 288.414062h16v40h-16zm0 0" fill="#572b17"/><path d="m359.449219 312.105469-56-16c-3.433594-.984375-5.800781-4.121094-5.800781-7.691407v-102.238281l-104 20.800781v17.4375c0 3.671876-2.496094 6.871094-6.054688 7.761719l-32 8c-1.179688.296875-2.40625.320313-3.59375.070313l-152-32 3.296875-15.660156 150.199219 31.621093 24.152344-6.039062v-17.753907c0-3.800781 2.675781-7.078124 6.398437-7.839843l120-24c2.355469-.480469 4.800781.125 6.660156 1.644531 1.863281 1.519531 2.941407 3.792969 2.941407 6.195312v105.96875l50.199218 14.34375zm0 0" fill="#d32144"/><path d="m313.648438 176.414062h-16v-96c0-2.328124 1.015624-4.539062 2.777343-6.058593 1.765625-1.519531 4.101563-2.195313 6.40625-1.851563l160 24-2.398437 15.824219-150.785156-22.625zm0 0" fill="#d32144"/><path d="m105.648438 224.414062h16v88h-16zm0 0" fill="#d32144"/><g fill="#07b671"><path d="m41.648438 112.414062 40-40 40 40zm0 0"/><path d="m41.648438 144.414062 40-40 40 40zm0 0"/><path d="m185.648438 136.414062 40-40 40 40zm0 0"/><path d="m391.921875 187.617188c8.328125-6.160157 11.761719-16.972657 8.519531-26.808594-3.242187-9.839844-12.433594-16.488282-22.792968-16.488282-10.359376 0-19.550782 6.648438-22.792969 16.488282-3.246094 9.835937.191406 20.648437 8.519531 26.808594-8.328125 6.160156-11.765625 16.96875-8.519531 26.808593 3.242187 9.839844 12.433593 16.484375 22.792969 16.484375 10.359374 0 19.550781-6.644531 22.792968-16.484375 3.242188-9.839843-.191406-20.648437-8.519531-26.808593zm0 0"/><path d="m63.921875 291.617188c8.328125-6.160157 11.761719-16.972657 8.519531-26.808594-3.242187-9.839844-12.433594-16.488282-22.792968-16.488282-10.359376 0-19.550782 6.648438-22.792969 16.488282-3.246094 9.835937.191406 20.648437 8.519531 26.808594-8.328125 6.160156-11.765625 16.96875-8.519531 26.808593 3.242187 9.839844 12.433593 16.484375 22.792969 16.484375 10.359374 0 19.550781-6.644531 22.792968-16.484375 3.242188-9.839843-.191406-20.648437-8.519531-26.808593zm0 0"/><path d="m217.648438 304.414062-32-24 32-72 32 72zm0 0"/><path d="m257.648438 304.414062-24-24 24-48 24 48zm0 0"/></g></svg>