<svg xmlns="http://www.w3.org/2000/svg" width="66.011" height="69.289" viewBox="0 0 66.011 69.289"><path d="M44.74,117.919h0a32.814,32.814,0,0,1-23.349-9.686c-12.874-12.874-12.875-38.827,0-51.7l7.639,7.633a22.221,22.221,0,1,0,31.426,0l7.638-7.635c12.875,12.875,12.872,38.836,0,51.711A32.813,32.813,0,0,1,44.74,117.919Z" transform="translate(-11.733 -48.63)" fill="#839392"/><g transform="translate(0.702 0)"><path d="M25.712,56.516a34.158,34.158,0,0,0-8.951,18.107C18.025,81.556,21,88.072,25.716,92.782a32.847,32.847,0,0,0,23.347,9.726h0a32.852,32.852,0,0,0,23.349-9.724c4.711-4.712,7.693-11.2,8.956-18.137-1.263-6.931-4.241-13.408-8.953-18.119l-1.954,1.946a22.313,22.313,0,0,1-.593,13.654,22.2,22.2,0,1,1-41.606,0,22.315,22.315,0,0,1-.6-13.655Z" transform="translate(-16.761 -48.623)" fill="#96aaa8"/><path d="M74.327,10.923a.723.723,0,0,1,.042,1.023L68.964,17.8a.721.721,0,0,1-1.021.041L56.318,7.115a.723.723,0,0,1-.04-1.023L61.684.236A.726.726,0,0,1,62.707.194Z" transform="translate(-50.592 -0.003)" fill="#96aaa8"/></g><path d="M92.076,11.942a.723.723,0,0,0-.042-1.023L80.411.191a.725.725,0,0,0-1.023.042l-2.723,2.95,12.69,11.709Z" transform="translate(-67.596 0)" fill="#a5bfbc"/><path d="M307.953,10.923a.725.725,0,0,0-.042,1.023l5.406,5.856a.722.722,0,0,0,1.022.041L325.964,7.116A.726.726,0,0,0,326,6.092L320.6.236a.726.726,0,0,0-1.023-.042Z" transform="translate(-266.378 -0.002)" fill="#96aaa8"/><path d="M307.911,11.942a.725.725,0,0,1,.042-1.023L319.576.191A.725.725,0,0,1,320.6.233l2.723,2.95-12.69,11.709Z" transform="translate(-266.378 0)" fill="#a5bfbc"/><ellipse cx="2.025" cy="2.025" rx="2.025" ry="2.025" transform="translate(3.919 23.006)" fill="#55605f"/><path d="M43.336,164.714a1.659,1.659,0,0,0-1.778,1.777,1.906,1.906,0,1,0,1.778-1.777Z" transform="translate(-37.392 -141.708)" fill="#323f3e"/><path d="M43.336,164.714a1.659,1.659,0,0,0-1.778,1.777,2.017,2.017,0,0,0,3.323,1.546" transform="translate(-37.392 -141.708)" fill="#465453"/><ellipse cx="2.241" cy="2.241" rx="2.241" ry="2.241" transform="translate(4.772 39.554)" fill="#55605f"/><path d="M48.871,283.25a2.227,2.227,0,1,0,2.706,1.644A2.222,2.222,0,0,0,48.871,283.25Z" transform="translate(-42.387 -243.631)" fill="#323f3e"/><path d="M48.871,283.647a2.113,2.113,0,1,0,2.529,3.162" transform="translate(-42.387 -244.029)" fill="#465453"/><circle cx="2.43" cy="2.43" r="2.43" transform="translate(12.829 53.652)" fill="#55605f"/><path d="M106.775,384.166a2.415,2.415,0,0,0-1.375.932,2.391,2.391,0,0,0-.192,1.649,2.422,2.422,0,0,0,4.316.855,2.423,2.423,0,0,0-2.748-3.436Z" transform="translate(-92.092 -330.447)" fill="#323f3e"/><path d="M106.775,384.6a2.416,2.416,0,0,0-1.375.932,2.391,2.391,0,0,0-.192,1.649,2.422,2.422,0,0,0,4.316.855" transform="translate(-92.092 -330.879)" fill="#465453"/><ellipse cx="2.024" cy="2.024" rx="2.024" ry="2.024" transform="translate(58.047 23.007)" fill="#55605f"/><path d="M429.316,164.714a2.015,2.015,0,1,1-2.026,2.025A2.01,2.01,0,0,1,429.316,164.714Z" transform="translate(-369.247 -141.708)" fill="#323f3e"/><path d="M432.284,164.714a1.911,1.911,0,1,1-1.544,3.323" transform="translate(-372.215 -141.708)" fill="#465453"/><ellipse cx="2.24" cy="2.24" rx="2.24" ry="2.24" transform="translate(56.753 39.555)" fill="#55605f"/><path d="M420.883,283.25a2.228,2.228,0,1,1-2.705,1.644A2.22,2.22,0,0,1,420.883,283.25Z" transform="translate(-361.354 -243.631)" fill="#323f3e"/><path d="M422.352,283.647a2.113,2.113,0,1,1-2.529,3.162" transform="translate(-362.823 -244.029)" fill="#465453"/><circle cx="2.43" cy="2.43" r="2.43" transform="translate(48.324 53.652)" fill="#55605f"/><path d="M360.713,384.166a2.413,2.413,0,0,1,1.374.932,2.378,2.378,0,0,1,.192,1.649,2.421,2.421,0,0,1-4.315.855,2.4,2.4,0,0,1-.189-1.65A2.429,2.429,0,0,1,360.713,384.166Z" transform="translate(-309.382 -330.447)" fill="#323f3e"/><path d="M362.305,384.6a2.413,2.413,0,0,1,1.374.932,2.378,2.378,0,0,1,.192,1.649,2.421,2.421,0,0,1-4.315.855" transform="translate(-310.975 -330.879)" fill="#465453"/><ellipse cx="3.032" cy="3.032" rx="3.032" ry="3.032" transform="translate(29.974 58.951)" fill="#55605f"/><path d="M226.837,423.507a2.485,2.485,0,0,0,.9,3.658,3.031,3.031,0,0,0,4.166-1.019,2.482,2.482,0,0,0-.9-3.657A3.031,3.031,0,0,0,226.837,423.507Z" transform="translate(-196.423 -363.098)" fill="#323f3e"/><path d="M226.837,432.5a2.485,2.485,0,0,0,.9,3.658,3.031,3.031,0,0,0,4.166-1.019,3,3,0,0,0,.392-2.035" transform="translate(-196.423 -372.089)" fill="#465453"/></svg>