<svg xmlns="http://www.w3.org/2000/svg" width="71.513" height="41.343" viewBox="0 0 71.513 41.343"><path d="M83.236,133.1c0,.307.049.606.034.909s0,.608-.03.91-.24.577-.287.877.023.616-.04.913.036.635-.042.929-.393.517-.487.806.13.693.021.977-.2.59-.32.868-.274.556-.413.828-.252.57-.4.833-.244.583-.41.838-.376.5-.555.747-.851.112-1.043.349-.013.786-.216,1.012-.747.126-.962.341-.375.469-.6.673-.127.791-.364.983-.448.444-.694.624-.7.076-.954.242-.358.6-.622.749-.728-.053-1,.086-.528.3-.807.423-.56.231-.845.341-.464.529-.755.623-.643,0-.938.083-.593.152-.893.216-.656-.232-.958-.185-.534.6-.839.631-.642-.407-.948-.391-.6.005-.9.005-.621.426-.924.41-.635.107-.937.075-.519-.744-.819-.791-.63.114-.927.051-.637.044-.93-.034-.61-.107-.9-.2-.661,0-.944-.109-.519-.378-.8-.5-.505-.373-.776-.511-.625-.143-.889-.3-.318-.651-.573-.817-.594-.2-.84-.384-.534-.308-.771-.5-.353-.524-.579-.728-.4-.456-.613-.672-.631-.239-.835-.465-.3-.547-.494-.784-.347-.5-.526-.746-.425-.446-.592-.7-.342-.507-.5-.772-.533-.414-.672-.686.2-.774.075-1.053-.375-.5-.485-.782,0-.635-.1-.926-.309-.532-.388-.828-.3-.55-.366-.85.029-.622-.018-.924-.062-.6-.093-.9-.045-.6-.06-.9-.181-.6-.181-.906.255-.6.271-.9.078-.593.109-.9-.068-.614-.021-.914.1-.6.159-.893.019-.619.1-.913.346-.528.44-.817-.063-.666.046-.95.437-.476.561-.754.043-.653.181-.924.176-.606.329-.87.68-.3.846-.552.156-.625.335-.871.233-.594.425-.831.743-.161.946-.387.364-.474.579-.689.069-.813.295-1.017.475-.4.712-.6.579-.261.825-.441.544-.289.8-.456.585-.205.849-.358.594-.161.866-.3.377-.613.656-.738.681.061.966-.049.525-.315.816-.41.535-.331.83-.41.643.091.942.027.567-.243.869-.291.611.04.916.009.578-.4.884-.414.615.088.922.088.6.18.907.2.587.187.889.218.644-.259.943-.211.59.174.887.237.645-.055.938.024.584.207.873.3.484.46.768.569.493.372.771.5.6.122.875.26.578.2.841.353.636.134.891.3.52.334.766.513.264.655.5.847.473.368.7.572.427.42.643.636.373.469.577.7.567.306.759.543.406.455.585.7.517.39.683.646.056.683.209.947.658.34.8.612.124.628.248.907.07.632.179.917.419.5.513.791-.165.682-.086.978.194.569.258.869.362.55.41.853.254.589.286.894-.168.631-.152.937S83.236,132.8,83.236,133.1Z" transform="translate(-41.739 -114.45)" fill="#f5913f"/><path d="M110.252,167.047c0,.307.029.6.007.906s-.028.606-.072.905-.217.571-.284.866-.059.605-.148.9-.074.618-.185.9-.385.493-.516.766-.061.656-.213.919-.3.543-.469.794-.367.5-.557.735-.373.5-.579.719-.388.492-.611.7-.48.4-.718.587-.735.024-.987.2-.321.622-.584.775-.679.007-.953.139-.518.295-.8.407-.452.548-.744.638-.586.22-.883.288-.646-.11-.949-.065-.585.3-.89.319-.621-.247-.927-.247-.607.012-.908-.01-.6-.062-.9-.107-.65.128-.944.06-.567-.275-.856-.364-.583-.191-.865-.3-.459-.459-.732-.591-.711.044-.974-.108-.349-.589-.6-.761-.479-.356-.716-.546-.665-.159-.887-.366-.521-.359-.727-.582-.047-.763-.237-1-.486-.382-.657-.634-.441-.439-.593-.7-.335-.516-.467-.791-.395-.5-.506-.788-.112-.619-.2-.911-.084-.613-.152-.911-.238-.58-.284-.883.2-.634.173-.939-.146-.6-.146-.9-.04-.614-.018-.916.179-.593.223-.892.145-.586.212-.881-.047-.642.042-.932.279-.551.389-.833.256-.551.388-.824.219-.573.371-.835.3-.53.476-.781.211-.613.4-.85.666-.233.872-.456.343-.507.566-.714.545-.286.782-.476.416-.442.667-.613.446-.426.71-.578.577-.2.852-.334.551-.235.835-.347.563-.2.855-.292.55-.273.848-.341.619.048.921,0,.59-.05.895-.072.59-.13.9-.13.6.007.9.029.612-.026.911.019.57.231.865.3.637-.04.926.05.523.341.8.452.625.082.9.214.59.2.852.352.359.57.609.741.58.226.818.416.547.3.77.508.2.65.41.873.423.417.613.655.67.26.841.512.334.524.486.787.2.59.336.865.2.577.316.861.118.6.208.891.063.6.131.9.385.541.43.843-.147.624-.125.93S110.252,166.74,110.252,167.047Z" transform="translate(-73.966 -148.393)" fill="#de7839"/><path d="M143.312,206.34a5.694,5.694,0,0,1-.05.888,5.626,5.626,0,0,1-.194.87,18.347,18.347,0,0,1-.819,1.576,5.272,5.272,0,0,1-3.68,2.366,5.844,5.844,0,0,1-.9.084,5.957,5.957,0,0,1-.908-.042,5.84,5.84,0,0,1-.883-.223c-.286-.093-.484-.393-.749-.528a5.964,5.964,0,0,1-.843-.329c-.242-.176-.368-.483-.579-.695a5.562,5.562,0,0,1-.591-.655c-.175-.241-.474-.41-.61-.678a5.871,5.871,0,0,1-.37-.834,6.029,6.029,0,0,1-.1-.906,2.229,2.229,0,0,1,.029-1.783,5.147,5.147,0,0,1,.541-1.695,2.649,2.649,0,0,1,1.012-1.474,3.146,3.146,0,0,1,1.5-.953c.264-.135.476-.406.762-.5a6.059,6.059,0,0,1,.906-.062,5.6,5.6,0,0,1,.882-.063,6.144,6.144,0,0,1,.9-.072,5.908,5.908,0,0,1,.9.165c.286.093.478.412.743.548a5.63,5.63,0,0,1,.79.4,4.49,4.49,0,0,1,1.319,1.208,3.151,3.151,0,0,1,.834,1.6,5.813,5.813,0,0,1,.17.888A5.911,5.911,0,0,1,143.312,206.34Z" transform="translate(-113.442 -187.686)" fill="#c96d34"/><path d="M74.832,370.689H9.587A2.087,2.087,0,0,1,7.5,368.6v-.017A2.087,2.087,0,0,1,9.587,366.5H74.832a2.087,2.087,0,0,1,2.087,2.087v.017A2.087,2.087,0,0,1,74.832,370.689Z" transform="translate(-6.452 -330.393)" fill="#ffd237"/><path d="M463.75,366.5h-4.19a2.087,2.087,0,0,1,2.087,2.087v.017a2.087,2.087,0,0,1-2.087,2.087h4.19a2.087,2.087,0,0,0,2.087-2.087v-.017A2.087,2.087,0,0,0,463.75,366.5Z" transform="translate(-395.371 -330.393)" fill="#ffb922"/><path d="M91.506,173.786l.166,0,.111.045a2.154,2.154,0,0,0,.844.2c.037,0,.075,0,.113,0a2.279,2.279,0,0,0,.853-.266l.109-.052.114.02a2.176,2.176,0,0,0,.918.02,5.69,5.69,0,0,0,.673-.21c.1-.035.192-.07.287-.1a1.863,1.863,0,0,0,.877-.648l.054-.063c.188-.082.352-.172.5-.253.059-.032.118-.065.178-.1h.086a1.914,1.914,0,0,0,1.02-.218,1.769,1.769,0,0,0,.66-.727,1.686,1.686,0,0,0,1.039-.332l.179-.141c.2-.154.4-.313.6-.5a4.9,4.9,0,0,0,.466-.518c.071-.088.138-.17.2-.236.177-.19.332-.393.469-.571.054-.07.107-.139.161-.207.19-.238.405-.508.6-.8.15-.22.273-.44.393-.652.039-.07.078-.139.118-.208a2.164,2.164,0,0,0,.25-.889c0-.039.009-.087.014-.122.025-.035.067-.086.1-.126a2.566,2.566,0,0,0,.433-.69,3.039,3.039,0,0,0,.169-.729,2.017,2.017,0,0,1,.042-.245,3.677,3.677,0,0,0,.128-.691c.012-.106.023-.206.04-.28a2,2,0,0,1,.083-.228,3.05,3.05,0,0,0,.216-.715c.038-.256.052-.494.065-.724,0-.086.01-.172.016-.259a6.248,6.248,0,0,0,0-.688c0-.1-.007-.2-.007-.295,0-.264-.021-.5-.042-.731-.006-.072-.013-.144-.018-.216.006-.034.022-.1.034-.142a2.186,2.186,0,0,0,.08-.9,2.066,2.066,0,0,0-.392-.882c-.02-.029-.044-.064-.062-.091-.009-.059-.015-.132-.022-.209a3.276,3.276,0,0,0-.12-.713,2.582,2.582,0,0,1-.057-.271,3.508,3.508,0,0,0-.178-.694c-.034-.085-.066-.184-.1-.289a5.181,5.181,0,0,0-.247-.645,2.4,2.4,0,0,1-.092-.257,3.375,3.375,0,0,0-.281-.678c-.14-.242-.326-.558-.528-.854a1.858,1.858,0,0,0-.9-.648l-.07-.028c-.131-.153-.263-.287-.381-.407l-.131-.134c-.008-.026-.017-.056-.025-.082a1.9,1.9,0,0,0-.507-.917,3.132,3.132,0,0,0-.612-.425,2.135,2.135,0,0,1-.217-.134,2.674,2.674,0,0,0-.693-.379c-.041-.017-.092-.037-.131-.055l-.042-.068a1.971,1.971,0,0,0-.69-.743,3.808,3.808,0,0,0-.652-.284c-.1-.037-.2-.072-.27-.1a2.588,2.588,0,0,0-.779-.212c-.069-.01-.163-.024-.189-.032a1.88,1.88,0,0,1-.167-.107,2.616,2.616,0,0,0-.715-.372,2.368,2.368,0,0,0-.844-.077c-.057,0-.134.006-.168,0s-.131-.05-.2-.08a2.863,2.863,0,0,0-.731-.23,3.83,3.83,0,0,0-.7-.027c-.109,0-.212.006-.292,0-.3-.022-.609-.032-.981-.032a3.456,3.456,0,0,0-.711.088,2.455,2.455,0,0,1-.262.045l-.254.016c-.227.013-.462.027-.711.064a1.694,1.694,0,0,1-.187-.013,2.485,2.485,0,0,0-.819.026,3.227,3.227,0,0,0-.689.259,2.173,2.173,0,0,1-.235.1c-.274.085-.6.189-.929.318l-.134.052c-.25.1-.508.2-.774.326a2.358,2.358,0,0,1-.252.091,3.347,3.347,0,0,0-.669.279,3.23,3.23,0,0,0-.58.451,2.151,2.151,0,0,1-.2.169,1.048,1.048,0,1,0,1.183,1.729,3.782,3.782,0,0,0,.434-.359,1.806,1.806,0,0,1,.21-.178,1.877,1.877,0,0,1,.268-.1,3.919,3.919,0,0,0,.514-.2c.192-.093.4-.174.623-.261l.14-.054c.264-.1.531-.189.78-.266a3.764,3.764,0,0,0,.519-.213,2.243,2.243,0,0,1,.236-.1c.038,0,.114.007.171.013a2.76,2.76,0,0,0,.689,0c.162-.024.34-.034.528-.045l.289-.018a4.02,4.02,0,0,0,.525-.081,1.872,1.872,0,0,1,.293-.046c.319,0,.581.009.826.027a4.841,4.841,0,0,0,.5.005,2.288,2.288,0,0,1,.329,0,1.778,1.778,0,0,1,.216.084,3.242,3.242,0,0,0,.573.2,2.594,2.594,0,0,0,.72.043c.045,0,.1,0,.141,0,.038.023.1.062.142.093a2.858,2.858,0,0,0,.576.323,2.825,2.825,0,0,0,.651.156c.064.009.151.022.187.032a4.769,4.769,0,0,0,.466.186c.077.027.155.055.218.082l.036.059a2.075,2.075,0,0,0,.594.682,2.943,2.943,0,0,0,.578.293c.067.027.158.064.177.076a3.661,3.661,0,0,0,.486.317c.043.025.095.054.139.081l.011.037a2,2,0,0,0,.43.84c.081.087.163.17.244.253a4.538,4.538,0,0,1,.318.343,1.912,1.912,0,0,0,.839.562l.044.018c.132.2.258.417.358.59a1.976,1.976,0,0,1,.1.274,3.951,3.951,0,0,0,.2.521,3.512,3.512,0,0,1,.145.391c.04.121.085.258.14.4a1.979,1.979,0,0,1,.065.294,4.205,4.205,0,0,0,.117.523,1.788,1.788,0,0,1,.035.274,3.879,3.879,0,0,0,.076.549,2.152,2.152,0,0,0,.369.762l.02.029-.012.048a2.362,2.362,0,0,0-.094.78c.007.094.015.187.023.28.017.192.034.374.034.544,0,.123,0,.246.008.367a4.48,4.48,0,0,1,0,.462c-.007.1-.013.2-.018.294-.011.191-.021.372-.045.533a1.751,1.751,0,0,1-.086.239,3.509,3.509,0,0,0-.184.55,4.512,4.512,0,0,0-.079.508,2.059,2.059,0,0,1-.049.311,3.53,3.53,0,0,0-.116.578,2.276,2.276,0,0,1-.04.237c-.021.032-.074.1-.113.146a2.787,2.787,0,0,0-.375.559,2.291,2.291,0,0,0-.195.784c0,.039-.01.089-.015.123l-.1.172c-.1.182-.2.353-.3.5-.154.225-.343.463-.51.672-.061.077-.122.156-.184.236-.12.156-.234.3-.345.424s-.2.235-.289.339a3.233,3.233,0,0,1-.267.3c-.132.123-.293.249-.463.382l-.038.03h-.027a1.63,1.63,0,0,0-1.622.942,1.89,1.89,0,0,0-.834.167c-.131.064-.253.13-.36.189a3.4,3.4,0,0,1-.369.186,1.945,1.945,0,0,0-.772.61l-.042.049c-.078.026-.156.054-.234.082-.134.048-.261.094-.371.124-.035-.005-.087-.015-.127-.022a2.341,2.341,0,0,0-.8-.042,2.436,2.436,0,0,0-.72.25l-.059.029-.032-.013a2.145,2.145,0,0,0-.85-.2l-.251,0c-.207,0-.4,0-.579-.009-.292-.022-.58-.062-.825-.1a2.346,2.346,0,0,0-.794.04l-.114.02c-.052-.022-.129-.061-.185-.09a3.407,3.407,0,0,0-.553-.238c-.252-.078-.5-.162-.725-.25-.024-.023-.056-.056-.081-.082a2.231,2.231,0,0,0-.644-.5,1.812,1.812,0,0,0-.88-.155,1.9,1.9,0,0,0-.557-.635c-.2-.138-.4-.295-.605-.461l-.048-.038a2.078,2.078,0,0,0-.827-.369l-.087-.023c-.12-.1-.238-.186-.345-.263l-.09-.065a1.757,1.757,0,0,0-.337-1.065,2.914,2.914,0,0,0-.467-.449c-.055-.045-.13-.106-.144-.122a3.391,3.391,0,0,0-.389-.456,1.82,1.82,0,0,1-.163-.18c-.062-.108-.129-.215-.2-.321a4.372,4.372,0,0,1-.234-.4,3.121,3.121,0,0,0-.346-.537c-.046-.06-.115-.152-.129-.179a2.009,2.009,0,0,1-.057-.284,3.926,3.926,0,0,0-.118-.553,2.259,2.259,0,0,1-.052-.326,4.688,4.688,0,0,0-.08-.509,3.679,3.679,0,0,0-.179-.544c-.024-.062-.053-.134-.071-.191l.025-.078a2.151,2.151,0,0,0,.138-.855,3.689,3.689,0,0,0-.094-.557,1.77,1.77,0,0,1-.049-.269c0-.148-.007-.284-.014-.415a3.693,3.693,0,0,1-.007-.423,1.788,1.788,0,0,1,.069-.246,3.482,3.482,0,0,0,.146-.569,4.031,4.031,0,0,1,.1-.432c.034-.123.067-.247.1-.372a2.548,2.548,0,0,0,.039-.735c0-.049-.007-.113-.006-.151a2.775,2.775,0,0,1,.127-.257,4.426,4.426,0,0,0,.225-.471c.064-.162.148-.333.238-.513.04-.08.079-.159.118-.239.07-.145.126-.286.176-.411a3.037,3.037,0,0,1,.158-.355l.026-.046c.138-.239.269-.465.408-.669a1.048,1.048,0,1,0-1.731-1.18c-.183.269-.34.54-.491.8l-.026.045a4.658,4.658,0,0,0-.289.625c-.041.1-.08.2-.118.279s-.07.143-.106.215c-.106.213-.216.433-.313.682a2.776,2.776,0,0,1-.125.252,3.675,3.675,0,0,0-.291.656,2.337,2.337,0,0,0-.072.857c0,.056.008.132.006.166-.021.09-.046.18-.07.269a5.7,5.7,0,0,0-.153.674,1.982,1.982,0,0,1-.067.234,3.048,3.048,0,0,0-.165.736,5.382,5.382,0,0,0,0,.685c.005.1.011.205.011.308a3.2,3.2,0,0,0,.1.731c.016.072.032.141.041.2-.009.031-.023.073-.034.106a2.047,2.047,0,0,0-.124.964,3.225,3.225,0,0,0,.212.717,2.2,2.2,0,0,1,.086.243c.017.075.029.179.042.289a3.84,3.84,0,0,0,.13.7,2.415,2.415,0,0,1,.052.268,3.348,3.348,0,0,0,.176.717,2.787,2.787,0,0,0,.408.678,1.976,1.976,0,0,1,.129.182,6.109,6.109,0,0,0,.349.607c.053.084.106.168.155.253a2.961,2.961,0,0,0,.474.592,1.91,1.91,0,0,1,.161.177,2.653,2.653,0,0,0,.552.566l.036.029a1.735,1.735,0,0,0,.4,1.161,3.518,3.518,0,0,0,.561.469,2.541,2.541,0,0,1,.222.169,1.968,1.968,0,0,0,.912.442l.1.026c.2.16.407.325.635.486l.047.082a1.927,1.927,0,0,0,.7.776,1.848,1.848,0,0,0,1.075.2h0l.014.015a2.128,2.128,0,0,0,.756.552c.3.117.613.227.94.328a2.015,2.015,0,0,1,.219.1,3,3,0,0,0,.713.282,2.176,2.176,0,0,0,.911-.017c.048-.009.111-.02.145-.024.275.041.6.085.946.111C91.016,173.791,91.265,173.789,91.506,173.786Z" transform="translate(-67.512 -141.942)"/><path d="M124.545,200.945c.009.061.014.151.018.247a3,3,0,0,0,.122.82,6.8,6.8,0,0,0,.433.986,2.422,2.422,0,0,0,.563.689c.048.045.115.106.133.129a6.245,6.245,0,0,0,.675.758l.022.022a1.885,1.885,0,0,1,.119.16,2.524,2.524,0,0,0,.585.641,2.431,2.431,0,0,0,.8.358c.059.017.137.04.173.054s.078.065.116.1a2.237,2.237,0,0,0,.794.5,6.814,6.814,0,0,0,1.044.262,5.972,5.972,0,0,0,.935.055h.136a6.885,6.885,0,0,0,1.064-.1,6.794,6.794,0,0,0,1.042-.244,6.72,6.72,0,0,0,.984-.421,2.926,2.926,0,0,0,.666-.5c.068-.063.131-.121.177-.155s.131-.088.208-.137a3.587,3.587,0,0,0,.645-.49,4.229,4.229,0,0,0,.512-.651c.043-.064.086-.128.132-.19a4.987,4.987,0,0,0,.433-.755c.027-.054.053-.108.081-.162s.071-.133.107-.2a4.19,4.19,0,0,0,.347-.753,6.508,6.508,0,0,0,.3-2.081c0-.074.006-.162.011-.255a3.578,3.578,0,0,0-.016-.8c-.009-.058-.017-.116-.026-.175a5.186,5.186,0,0,0-.182-.874c-.022-.068-.043-.138-.064-.207a4.663,4.663,0,0,0-.3-.805,3.954,3.954,0,0,0-.468-.684c-.052-.065-.1-.129-.151-.194a6.75,6.75,0,0,0-.707-.8,4.125,4.125,0,0,0-.649-.509c-.065-.044-.13-.088-.194-.134a3.7,3.7,0,0,0-.708-.385c-.067-.03-.135-.06-.2-.093-.025-.02-.072-.064-.107-.1a2.149,2.149,0,0,0-.81-.525,4.839,4.839,0,0,0-.853-.174l-.2-.029a2.613,2.613,0,0,0-.848.031,1.914,1.914,0,0,1-.217.028,6.581,6.581,0,0,0-1.044.075,1.939,1.939,0,0,1-.208,0,2.527,2.527,0,0,0-.859.1,2.4,2.4,0,0,0-.771.453c-.05.04-.119.1-.143.109a2.333,2.333,0,0,1-.218.087,2.855,2.855,0,0,0-.742.367,6.829,6.829,0,0,0-.808.692c-.055.055-.114.109-.172.163a4.19,4.19,0,0,0-.568.609,3.017,3.017,0,0,0-.371.74c-.034.088-.065.172-.093.226a6.19,6.19,0,0,0-.643,2.008,2.11,2.11,0,0,1-.058.211,2.784,2.784,0,0,0-.155.841,3.169,3.169,0,0,0,.129.821C124.514,200.8,124.535,200.885,124.545,200.945Zm1.973-1.28a3.537,3.537,0,0,0,.126-.5,4.118,4.118,0,0,1,.44-1.381,4.2,4.2,0,0,0,.185-.434,1.927,1.927,0,0,1,.107-.252,2.6,2.6,0,0,1,.3-.307c.077-.072.154-.144.227-.217a4.72,4.72,0,0,1,.557-.478,1.792,1.792,0,0,1,.23-.094,3.864,3.864,0,0,0,.451-.189,2.89,2.89,0,0,0,.5-.338c.038-.03.086-.069.12-.093.045,0,.113,0,.167,0a3.223,3.223,0,0,0,.57-.028,4.558,4.558,0,0,1,.719-.05,3.361,3.361,0,0,0,.551-.055c.069-.011.163-.026.2-.027l.228.033a4.221,4.221,0,0,1,.431.074c.026.023.061.055.088.081a2.45,2.45,0,0,0,.563.421c.116.059.227.109.326.152a2.076,2.076,0,0,1,.325.164c.084.061.17.12.257.178a2.536,2.536,0,0,1,.337.252,4.951,4.951,0,0,1,.494.548c.067.092.139.183.213.274a2.408,2.408,0,0,1,.235.324,3.054,3.054,0,0,1,.159.455c.025.085.051.17.078.253a3.527,3.527,0,0,1,.1.529c.01.066.019.132.03.2a2.058,2.058,0,0,1-.006.347c-.007.116-.016.247-.016.388a4.826,4.826,0,0,1-.038.725,4.728,4.728,0,0,1-.156.709,2.515,2.515,0,0,1-.189.387c-.047.086-.094.171-.139.259-.032.062-.062.125-.093.187a3.249,3.249,0,0,1-.249.45c-.059.081-.115.164-.172.247a2.63,2.63,0,0,1-.259.346,1.992,1.992,0,0,1-.286.2c-.1.061-.206.131-.318.212a3.977,3.977,0,0,0-.366.31,1.864,1.864,0,0,1-.2.169,4.082,4.082,0,0,1-1.4.461,4.959,4.959,0,0,1-.739.071h-.069a4.77,4.77,0,0,1-.676-.029,4.585,4.585,0,0,1-.671-.168c-.029-.023-.072-.061-.106-.091a2.593,2.593,0,0,0-.539-.389,2.974,2.974,0,0,0-.554-.205c-.048-.014-.11-.032-.149-.046-.027-.035-.067-.092-.1-.137a3.113,3.113,0,0,0-.356-.444l-.022-.022a4.548,4.548,0,0,1-.463-.509,2.93,2.93,0,0,0-.408-.438c-.044-.041-.1-.095-.128-.123a4.918,4.918,0,0,1-.294-.655,1.99,1.99,0,0,1-.023-.27,4.2,4.2,0,0,0-.041-.477,4.45,4.45,0,0,0-.1-.436,1.984,1.984,0,0,1-.063-.288A1.873,1.873,0,0,1,126.518,199.665Z" transform="translate(-106.991 -181.235)"/><path d="M145.092,359h-1.335a1.048,1.048,0,1,0,0,2.1h1.335a1.04,1.04,0,0,1,1.039,1.039v.017a1.04,1.04,0,0,1-1.039,1.039H90.215a1.048,1.048,0,1,0,0,2.1h54.877a3.138,3.138,0,0,0,3.134-3.134v-.017A3.138,3.138,0,0,0,145.092,359Z" transform="translate(-76.713 -323.94)"/><path d="M3.134,145.154h59.51a1.048,1.048,0,0,0,0-2.1H60.409v-5.936a2.447,2.447,0,0,0-2.444-2.444H56.219V116.172a1.048,1.048,0,1,0-2.1,0v18.507H52.378a2.447,2.447,0,0,0-2.444,2.444v5.936H33.443a1.384,1.384,0,0,0,.191-.09,1.981,1.981,0,0,0,.681-.729,1.915,1.915,0,0,0,.988-.323,4.717,4.717,0,0,0,.494-.433c.087-.084.169-.163.244-.224a1.729,1.729,0,0,0,.557-1.134l.007-.041c.107-.112.2-.222.28-.323l.082-.1.019,0a1.753,1.753,0,0,0,1.1-.509,1.512,1.512,0,0,0,.366-.886,1.463,1.463,0,0,0,.959-.558c.061-.083.125-.165.189-.248.133-.171.271-.348.4-.546a3.932,3.932,0,0,0,.309-.608,2.9,2.9,0,0,1,.131-.278c.116-.2.208-.4.289-.582.046-.1.091-.2.141-.3l.111-.216c.109-.211.222-.429.326-.663.091-.207.16-.407.227-.6.036-.105.072-.21.113-.317a1.9,1.9,0,0,0,.045-1.058l0-.009.019-.025a2.186,2.186,0,0,0,.436-.8,2.549,2.549,0,0,0,.06-.8c0-.067-.007-.16-.005-.181a3.011,3.011,0,0,0,.048-.725,2.119,2.119,0,0,1,0-.232c.007-.03.043-.112.069-.172a2.526,2.526,0,0,0,.226-.766,6.447,6.447,0,0,0,.028-.649c0-.106,0-.212.006-.314a4.986,4.986,0,0,0-.016-.649c-.008-.106-.015-.207-.016-.3.007-.034.028-.1.044-.152a2.349,2.349,0,0,0,.137-.807c.007-.035.025-.1.039-.15a2.251,2.251,0,0,0,.108-.87,2.659,2.659,0,0,0-.221-.772c-.027-.066-.065-.156-.071-.182a2.162,2.162,0,0,0-.361-.844c-.023-.036-.053-.082-.069-.111-.048-.21-.11-.4-.165-.566-.022-.067-.043-.131-.062-.193l.017-.068a1.865,1.865,0,0,0,.021-1.077,2.276,2.276,0,0,0-.45-.753c-.027-.032-.06-.074-.082-.1-.006-.041-.013-.105-.017-.155a2.484,2.484,0,0,0-.18-.794,1.935,1.935,0,0,1-.044-.2,2.678,2.678,0,0,0-.23-.756,1.757,1.757,0,0,0-.789-.735,1.884,1.884,0,0,0-.273-.92,2.415,2.415,0,0,0-.591-.6c-.046-.036-.108-.084-.134-.108-.133-.182-.273-.343-.4-.485-.071-.081-.141-.161-.21-.247a2.213,2.213,0,0,0-.694-.539c-.041-.022-.093-.052-.122-.07-.056-.065-.115-.141-.178-.222a4.964,4.964,0,0,0-.417-.491c-.065-.065-.129-.13-.193-.195-.152-.155-.308-.315-.487-.476s-.351-.3-.519-.43l-.124-.1-.026-.065a1.849,1.849,0,0,0-.616-.894c-.234-.171-.472-.325-.7-.474L34.378,111a2.306,2.306,0,0,0-.807-.3c-.052-.011-.121-.027-.154-.037a3.776,3.776,0,0,0-.606-.263,2.721,2.721,0,0,1-.256-.1,2.771,2.771,0,0,0-.723-.236,1.867,1.867,0,0,1-.2-.05,1.808,1.808,0,0,1-.154-.112,2.734,2.734,0,0,0-.6-.378c-.024-.022-.058-.055-.085-.081a2.047,2.047,0,0,0-.8-.533c-.1-.033-.2-.071-.3-.108-.187-.07-.4-.149-.629-.21a2.4,2.4,0,0,0-.832-.048c-.058,0-.137.011-.171.009-.083-.018-.182-.049-.287-.082a4.465,4.465,0,0,0-.64-.161,1.9,1.9,0,0,0-1.026.163l-.051.02-.117-.038a2.719,2.719,0,0,0-.738-.163,1.887,1.887,0,0,1-.182-.051,2.566,2.566,0,0,0-.788-.146,2.213,2.213,0,0,1-.27-.032,3.341,3.341,0,0,0-.7-.054,1.9,1.9,0,0,0-.989.387l-.046.031-.145-.01a2.54,2.54,0,0,0-1.436.228c-.063.026-.132.055-.178.071l-.121-.017a2.16,2.16,0,0,0-.911.012,2.7,2.7,0,0,0-.709.326,1.836,1.836,0,0,1-.179.1,3.231,3.231,0,0,0-.64.306c-.051.03-.1.06-.148.084l-.074-.007a1.934,1.934,0,0,0-1.024.115,1.856,1.856,0,0,0-.794.773l-.014.021-.09.024a2.713,2.713,0,0,0-.719.27,1.827,1.827,0,0,1-.211.079,2.839,2.839,0,0,0-.682.307c-.07.046-.168.1-.271.149a4.263,4.263,0,0,0-.576.339,1.961,1.961,0,0,1-.2.093,2.76,2.76,0,0,0-.669.38l-.089.072c-.219.178-.446.361-.664.558a1.71,1.71,0,0,0-.494,1.2l0,.034c-.094.107-.177.212-.253.308l-.083.1-.022,0a1.749,1.749,0,0,0-1.08.567,2.64,2.64,0,0,0-.38.7c-.026.065-.062.154-.078.179a2.257,2.257,0,0,0-.341.8v0a1.755,1.755,0,0,0-.9.712,3.111,3.111,0,0,0-.272.677,1.939,1.939,0,0,1-.083.241,2.185,2.185,0,0,0-.209.871c0,.031-.005.068-.008.1l-.068.074a2.2,2.2,0,0,0-.5.735,2.06,2.06,0,0,0-.093.949c0,.026,0,.056.007.083-.019.03-.044.067-.064.1a2.418,2.418,0,0,0-.37.744,3.17,3.17,0,0,0-.09.712,2,2,0,0,1-.019.253c-.07.333-.123.652-.17.951a2.833,2.833,0,0,0,0,.74,1.714,1.714,0,0,1,.014.227c-.011.106-.026.21-.041.314-.026.175-.054.372-.067.581-.012.031-.033.08-.05.117a2.154,2.154,0,0,0-.225.89,2.7,2.7,0,0,0,.133.771c.02.069.047.162.05.188l0,.1c.014.279.028.567.06.865.01.1.019.2.027.294.018.211.037.43.073.662a1.834,1.834,0,0,1-.006.215,2.734,2.734,0,0,0,.034.761,2.691,2.691,0,0,0,.291.73c.033.062.079.148.088.174a2.818,2.818,0,0,0,.3.689c.034.059.074.131.093.172,0,.035,0,.095,0,.141a2.257,2.257,0,0,0,.125.863,2.774,2.774,0,0,0,.385.655l.017.024a1.706,1.706,0,0,0,.051,1.255,2.155,2.155,0,0,0,.623.7c.033.027.076.061.1.084.117.2.238.38.356.557l.14.212a3.848,3.848,0,0,0,.428.525,2.7,2.7,0,0,1,.195.224c.063.087.123.176.183.265.108.161.231.344.377.523a1.91,1.91,0,0,1,.12.207,2.961,2.961,0,0,0,.41.618,2.032,2.032,0,0,0,.824.517l.1.039c.05.054.1.116.157.181a4.754,4.754,0,0,0,.439.47c.023.026.071.1.106.154a2.553,2.553,0,0,0,.524.62,4.421,4.421,0,0,0,.544.362c.1.059.2.116.269.169a2.648,2.648,0,0,0,.7.343l.077.028.009.018a1.839,1.839,0,0,0,.712.868,2.058,2.058,0,0,0,.37.167H3.134A3.139,3.139,0,0,0,0,146.194v.017a3.138,3.138,0,0,0,3.134,3.134h5.8a1.048,1.048,0,1,0,0-2.1h-5.8A1.04,1.04,0,0,1,2.1,146.21v-.017a1.04,1.04,0,0,1,1.039-1.039m54.831-8.38a.35.35,0,0,1,.349.349v5.936h-2.1v-6.285h1.746Zm-5.936.349a.35.35,0,0,1,.349-.349h1.746v6.285h-2.1Zm-30.323,5.432a2.342,2.342,0,0,0-.788.031c-.043.007-.1.017-.133.021a2.716,2.716,0,0,0-.677-.024c-.058,0-.135.008-.171.006-.159-.041-.312-.07-.447-.1a3.377,3.377,0,0,1-.382-.086,2.5,2.5,0,0,0-.765-.1c-.046,0-.1,0-.144,0-.041-.027-.105-.075-.151-.109a2.935,2.935,0,0,0-.576-.359,1.905,1.905,0,0,1-.209-.146,3.4,3.4,0,0,0-.514-.339,2.8,2.8,0,0,0-.66-.225l-.062-.015a1.861,1.861,0,0,0-.647-.82,2.813,2.813,0,0,0-.623-.288c-.063-.022-.148-.053-.181-.07-.149-.108-.3-.195-.425-.272a3.172,3.172,0,0,1-.279-.177c-.024-.029-.069-.1-.1-.149a2.733,2.733,0,0,0-.449-.556,2.993,2.993,0,0,1-.251-.275c-.092-.109-.2-.233-.323-.359a2.115,2.115,0,0,0-.768-.458l-.068-.027c-.026-.043-.056-.1-.08-.146a3.247,3.247,0,0,0-.34-.537c-.086-.106-.173-.236-.265-.372-.075-.111-.15-.222-.227-.328a4.338,4.338,0,0,0-.355-.419,2.219,2.219,0,0,1-.206-.241c-.05-.077-.1-.153-.152-.23-.115-.173-.223-.336-.315-.494a2.031,2.031,0,0,0-.5-.558,1.647,1.647,0,0,0-.048-1.082,2.926,2.926,0,0,0-.349-.568c-.034-.046-.077-.1-.1-.139,0-.035,0-.084,0-.122a2.374,2.374,0,0,0-.1-.779,3.085,3.085,0,0,0-.27-.577,1.747,1.747,0,0,1-.1-.2,2.836,2.836,0,0,0-.265-.624c-.031-.059-.073-.137-.088-.175s0-.134.007-.2a2.973,2.973,0,0,0-.016-.666c-.025-.159-.04-.332-.056-.515-.009-.111-.019-.223-.031-.336-.026-.24-.038-.486-.051-.748l-.005-.1a2.871,2.871,0,0,0-.129-.659c-.014-.047-.031-.107-.041-.147.012-.028.026-.06.038-.087a2.224,2.224,0,0,0,.222-.8c.007-.134.028-.282.051-.438.019-.134.039-.267.052-.4a3.08,3.08,0,0,0-.013-.649,2.031,2.031,0,0,1-.015-.212c.042-.267.089-.554.149-.841a3.531,3.531,0,0,0,.063-.6c0-.083.008-.183.016-.236.018-.032.057-.09.087-.134a2.548,2.548,0,0,0,.342-.651,2.153,2.153,0,0,0,.067-.878l0-.034.036-.038a1.995,1.995,0,0,0,.639-1.447c0-.043.008-.1.012-.132a3.62,3.62,0,0,0,.2-.531L9.8,118.5a1.8,1.8,0,0,0,.871-.655,2.372,2.372,0,0,0,.294-.728c.012-.045.027-.1.038-.137a2.876,2.876,0,0,0,.3-.581l.005-.013a1.733,1.733,0,0,0,.973-.5c.11-.122.206-.244.291-.351a3.483,3.483,0,0,1,.254-.3,1.754,1.754,0,0,0,.442-1.143c.127-.107.26-.215.391-.321l.084-.068a1.957,1.957,0,0,1,.2-.093,2.97,2.97,0,0,0,.588-.318,2.647,2.647,0,0,1,.3-.17,4.964,4.964,0,0,0,.455-.255,1.853,1.853,0,0,1,.209-.078,3.064,3.064,0,0,0,.588-.249,1.846,1.846,0,0,1,.2-.056,2.9,2.9,0,0,0,.628-.22,1.756,1.756,0,0,0,.671-.648,1.868,1.868,0,0,0,.852-.1,3.558,3.558,0,0,0,.53-.267,1.835,1.835,0,0,1,.231-.123,2.873,2.873,0,0,0,.609-.3c.042-.025.095-.057.131-.077l.095.014a2.251,2.251,0,0,0,.839.006,3.3,3.3,0,0,0,.581-.2,1.815,1.815,0,0,1,.225-.084,1.728,1.728,0,0,1,.241.01,3.356,3.356,0,0,0,.627.006,1.956,1.956,0,0,0,.9-.379l.035-.023c.051.006.109.016.163.024a3.833,3.833,0,0,0,.578.057c.036.007.117.032.178.051a2.67,2.67,0,0,0,.685.143,1.815,1.815,0,0,1,.2.059,2.893,2.893,0,0,0,.641.155,1.97,1.97,0,0,0,.955-.174l.05-.019c.071.018.15.043.233.068.144.045.307.095.482.132a2.558,2.558,0,0,0,.751.029l.163-.009c.125.036.263.087.41.142.1.037.2.073.3.108l.076.073a2.142,2.142,0,0,0,.712.5c.031.018.1.071.15.111a2.766,2.766,0,0,0,.583.369,3,3,0,0,0,.62.186,1.637,1.637,0,0,1,.206.052,4.205,4.205,0,0,0,.5.208,2.05,2.05,0,0,1,.29.119,2.446,2.446,0,0,0,.727.256c.048.011.112.025.147.035l.082.053c.17.11.332.215.486.322l.019.049a1.9,1.9,0,0,0,.556.848c.081.067.163.131.244.2.149.118.289.229.417.344s.258.247.393.385c.07.072.14.143.208.21a3.236,3.236,0,0,1,.241.29c.087.112.185.24.3.369a2.333,2.333,0,0,0,.638.474c.038.021.087.048.116.067.074.091.152.179.229.267.108.124.21.24.291.353a2.561,2.561,0,0,0,.537.52l.057.044,0,.023a2.027,2.027,0,0,0,.236.913,1.833,1.833,0,0,0,.8.692l.011.06a2.9,2.9,0,0,0,.178.646c.007.036.015.116.021.175a2.675,2.675,0,0,0,.147.715,2.386,2.386,0,0,0,.418.666l.012.014a1.905,1.905,0,0,0-.037.982c.041.153.088.3.13.422a4.078,4.078,0,0,1,.116.393,2.222,2.222,0,0,0,.345.76c.022.034.049.077.066.106a2.989,2.989,0,0,0,.194.593c.021.049.047.112.062.155-.009.035-.022.081-.032.119a2.451,2.451,0,0,0-.116.751c-.008.035-.028.1-.043.146a2.463,2.463,0,0,0-.139.753c0,.169.011.328.021.468a3.23,3.23,0,0,1,.014.389c-.007.138-.008.274-.009.411,0,.154,0,.3-.015.432-.01.034-.043.11-.067.166a2.716,2.716,0,0,0-.213.668,3.337,3.337,0,0,0-.028.619,1.739,1.739,0,0,1,0,.241,2.734,2.734,0,0,0-.038.709c0,.042,0,.095,0,.135l-.059.076a2.272,2.272,0,0,0-.41.709,1.962,1.962,0,0,0-.019.985c0,.021.008.046.012.069-.03.084-.06.169-.089.254-.055.159-.107.309-.161.433-.078.175-.172.357-.272.549L39,134.2c-.067.131-.125.259-.181.382-.068.149-.132.29-.195.4a4.527,4.527,0,0,0-.241.5,2.435,2.435,0,0,1-.143.3c-.081.124-.185.259-.3.4l-.045.057a1.7,1.7,0,0,0-1.19.546,1.556,1.556,0,0,0-.327.866,1.572,1.572,0,0,0-.782.409,5.043,5.043,0,0,0-.337.381,2.637,2.637,0,0,1-.226.255,1.773,1.773,0,0,0-.508,1.092l0,.021c-.067.062-.13.122-.188.179s-.126.122-.181.171l-.063.006a1.993,1.993,0,0,0-.937.279,1.942,1.942,0,0,0-.577.624,1.755,1.755,0,0,0-.952.158c-.115.059-.229.121-.342.183-.148.082-.288.159-.412.215-.23.1-.468.194-.721.292l-.076.03a2,2,0,0,0-.77.586l-.013.015H29.22a2.7,2.7,0,0,0-.731.072c-.241.065-.473.123-.694.172l-.053-.019a1.933,1.933,0,0,0-.991-.145,1.539,1.539,0,0,0-.83.443h0a1.554,1.554,0,0,0-.845-.215c-.186.009-.379.008-.584.006l-.265,0a1.559,1.559,0,0,0-.763.211h-.9A1.425,1.425,0,0,0,21.706,142.555Z" transform="translate(0 -108.001)"/></svg>