<svg xmlns="http://www.w3.org/2000/svg" width="71.513" height="71.514" viewBox="0 0 71.513 71.514"><ellipse cx="35.757" cy="35.757" rx="35.757" ry="35.757" fill="#ecf0f1"/><ellipse cx="35.757" cy="35.757" rx="35.757" ry="35.757" fill="#fad24d"/><path d="M202.509,237.355l-.972,4.882-3.255,1.12,1.927,30.392,12.387-.07.579-30.9-2.079-.654-1.06-4.981-7.526.207Z" transform="translate(-170.587 -204.024)" fill="#f0ba7d"/><path d="M191.767,342.31c5.42,2.628,10.995,3.179,16.863.149l-.2,22.683a36,36,0,0,1-16.862-.274Z" transform="translate(-164.811 -294.498)" fill="#21d0c3"/><path d="M259.88,275.471l9.441,2.575c2.448.756,4.636,2.2,4.706,4.8l.518,19.226a35.692,35.692,0,0,1-6.938,3.783l-.6-10.633-1.653,11.468a35.687,35.687,0,0,1-11.266,1.813c-.1,0-.2,0-.307,0l0-9.747Z" transform="translate(-218.326 -236.995)" fill="#eef3f7"/><g transform="translate(15.359 38.379)"><path d="M259.79,274.993l1.244.5,4.244,6.371-4.974-.08,3.083,1.65-9.614,14.91,6.017-23.353Z" transform="translate(-233.687 -274.962)" fill="#fff"/><path d="M125.113,274.774l-9.485,2.408c-2.461.713-4.674,2.121-4.79,4.721l-.875,19.618a35.7,35.7,0,0,0,6.871,3.738l.807-10.857,1.477,11.7a35.683,35.683,0,0,0,10.935,1.8l0-9.747-4.937-23.383Z" transform="translate(-109.964 -274.774)" fill="#fff"/></g><path d="M184.534,274.306l-1.483.568-4.125,6.207,4.975.008-3.112,1.6,8.591,15.07-4.846-23.448Z" transform="translate(-153.935 -235.992)" fill="#eef3f7"/><path d="M182.361,101.889c-.159,1.6.162,5.153,2.1,5.018,0,0,2.794,8.142,8.173,9.064,4.644-.849,7.468-8.223,7.683-8.925.64.218,2.43-2.759,1.057-5.2-.394-.7-1.508-.133-1.508-.133l-.086-2.034c-7.338.713-11.914-6.385-11.914-6.385-2.8,3.043-3.47,4.78-3.769,8.564a2.492,2.492,0,0,0-1.108-.339,1.089,1.089,0,0,0-.631.365Z" transform="translate(-156.859 -80.267)" fill="#fed298"/><path d="M173.474,87.509l.95-4.773a20.412,20.412,0,0,1-4.189-6.8c-1.876.209-2.63-4.961-1.367-5.142a1.834,1.834,0,0,1,.964.1c.284-4,1.054-5.211,3.7-8.564,0,0,4.626,7.783,11.958,7.07l.1,1.678a.869.869,0,0,1,1.508.207c.859,1.413-.265,4.624-1.3,4.82a17.781,17.781,0,0,1-3.757,6.651l.989,4.647c2.751.891,5.4,1.579,8.067,2.287-1.353-8.246-2.128-17.169-3.743-24.786-1.55-7.309-10.024-9.354-14.9-6.107A9.079,9.079,0,0,0,167.49,66.1c-.767,5.615-.473,6.156-.473,6.156l-1.354,17.289c2.51-.637,5.417-1.214,7.811-2.037Z" transform="translate(-142.524 -49.296)" fill="#666"/><path d="M335.419,387.555a2.564,2.564,0,1,1,2.963-2.09A2.564,2.564,0,0,1,335.419,387.555Z" transform="translate(-286.738 -329.043)" fill="#fefefe"/><path d="M336.364,388.328a2.415,2.415,0,1,1,2.79-1.968A2.414,2.414,0,0,1,336.364,388.328Z" transform="translate(-287.658 -329.964)" fill="#0f7986"/><path d="M343.192,393.913a1.336,1.336,0,1,1,1.544-1.089,1.336,1.336,0,0,1-1.544,1.089Z" transform="translate(-294.303 -336.611)" fill="#ebecec"/><path d="M351.147,381.163l.587.1.316-1.828-.587-.1-.316,1.828Z" transform="translate(-302.101 -326.351)" fill="#fefefe"/><path d="M140.9,343.551l1.1-.218a1.737,1.737,0,0,0,1.362-2.037l-1.294-6.518a5,5,0,0,0-4.611-3.992,8.293,8.293,0,0,0-5.006.993,4.989,4.989,0,0,0-2.727,5.45l1.294,6.518a1.729,1.729,0,0,0,.737,1.1h0a1.725,1.725,0,0,0,1.3.261l1.1-.218-.09-.453-1.1.218a1.268,1.268,0,0,1-.953-.191h0a1.27,1.27,0,0,1-.541-.807l-1.294-6.518a4.549,4.549,0,0,1,2.5-4.959,7.824,7.824,0,0,1,4.722-.937,4.557,4.557,0,0,1,4.215,3.625l1.294,6.518a1.274,1.274,0,0,1-1,1.493l-1.1.218.09.453Z" transform="translate(-111.514 -284.532)" fill="#21d0c3"/><path d="M141.464,334.8l-.2-1a5.143,5.143,0,0,0-4.744-4.115,8.447,8.447,0,0,0-5.1,1.011,5.136,5.136,0,0,0-2.8,5.614l.2,1,.755-.15-.2-1a4.4,4.4,0,0,1,2.425-4.8,7.679,7.679,0,0,1,4.628-.918,4.411,4.411,0,0,1,4.083,3.5l.2,1,.755-.15Z" transform="translate(-110.563 -283.587)" fill="#4d4d4d"/><g transform="translate(21.639 58.284)"><path d="M155.054,426.738l.588-.117a.646.646,0,1,0-.127-.641l-.588.117Z" transform="translate(-154.927 -424.391)" fill="#076673"/><path d="M202.357,418.025l-.588.117a.646.646,0,1,1-.127-.641l.588-.117.127.641Z" transform="translate(-194.145 -417.284)" fill="#076673"/></g><path d="M162.714,323.413l-.224-1.131-.446.089-.446.088.227,1.142q.255-.075.516-.126Q162.526,323.438,162.714,323.413Z" transform="translate(-139.027 -277.267)" fill="#666"/><g transform="translate(22.491 58.457)"><path d="M161.258,427.19a.2.2,0,1,0-.23-.154.2.2,0,0,0,.23.154Z" transform="translate(-161.024 -425.646)" fill="#0f7986"/><path d="M202.911,418.909a.2.2,0,1,0-.23-.153A.2.2,0,0,0,202.911,418.909Z" transform="translate(-196.859 -418.522)" fill="#0f7986"/></g><path d="M343.052,394.711a1.264,1.264,0,1,1,1.46-1.031A1.264,1.264,0,0,1,343.052,394.711Z" transform="translate(-294.234 -337.421)" fill="#fefefe"/><g transform="translate(22.542 38.252)"><path d="M167.977,274.523c-.02,0-6.964.058-5.791,6.133l-.646.123c-1.322-6.849,6.407-6.913,6.43-6.913l.008.656Z" transform="translate(-161.387 -273.867)" fill="#4d4d4d"/><path d="M307.68,274.091a6.572,6.572,0,0,1,5.009,2.39c1.65,2.007,2.806,5.692,1.941,12.449l-.651-.082c.837-6.54-.245-10.061-1.8-11.95a5.928,5.928,0,0,0-4.518-2.151l.016-.656Z" transform="translate(-287.233 -274.06)" fill="#4d4d4d"/></g></svg>