<svg xmlns="http://www.w3.org/2000/svg" width="72" height="66.394" viewBox="0 0 72 66.394"><path d="M243.848,201.146h13.512V180.535l-16.128-11.847-16.128,11.847V182.8" transform="translate(-193.177 -145.196)" fill="#fcd888"/><path d="M313.35,306.1V290.683H302.8v6.529" transform="translate(-260.167 -250.152)" fill="#5396a8"/><path d="M204.451,14.205a4.84,4.84,0,0,0-1.934-3.026,3.867,3.867,0,0,0-3.144-.55c-1.14.269-1.636.98-2.739,2.116-1.1-1.136-1.6-1.847-2.739-2.116a3.868,3.868,0,0,0-3.144.55,4.837,4.837,0,0,0-1.934,3.026,6.109,6.109,0,0,0,.528,4.005c1.243,2.486,7.243,5.981,7.289,5.981s6.046-3.5,7.289-5.981A6.108,6.108,0,0,0,204.451,14.205Zm0,0" transform="translate(-162.1 -9.112)" fill="#ff6a81"/><path d="M188.032,16.976c-.427,0-.589-.09-1.722-.8-.543-.338-1.381-.877-2.284-1.522-2.42-1.726-3.9-3.177-4.532-4.435A7.509,7.509,0,0,1,178.85,5.3a6.224,6.224,0,0,1,2.513-3.886,5.229,5.229,0,0,1,4.251-.755,4.8,4.8,0,0,1,2.419,1.453A4.8,4.8,0,0,1,190.451.657a5.231,5.231,0,0,1,4.251.755A6.228,6.228,0,0,1,197.215,5.3a7.515,7.515,0,0,1-.644,4.925c-.63,1.259-2.112,2.709-4.532,4.435-.9.645-1.741,1.183-2.284,1.522-1.134.706-1.295.8-1.722.8ZM184.305,3.295a2.383,2.383,0,0,0-1.369.425,3.454,3.454,0,0,0-1.356,2.168,4.71,4.71,0,0,0,.412,3.085c.774,1.548,4.407,4,6.04,4.993,1.632-1,5.266-3.445,6.04-4.993a4.709,4.709,0,0,0,.412-3.085,3.455,3.455,0,0,0-1.355-2.168,2.473,2.473,0,0,0-2.037-.344c-.52.122-.785.384-1.544,1.191-.158.168-.327.348-.513.539a1.4,1.4,0,0,1-2,0c-.186-.192-.355-.371-.513-.539-.759-.807-1.024-1.068-1.544-1.191a2.906,2.906,0,0,0-.668-.081Zm0,0" transform="translate(-153.5 -0.5)"/><path d="M231.955,144.032v-4.645h-5.286v8.528" transform="translate(-194.776 -119.988)" fill="#ff4f4f"/><path d="M77,243.473v13.681h4.094c.518,0,1.174,2.156,1.813,5.868.8,4.631,3.472,11.5,12.6,11.5l36.332.01a4.523,4.523,0,0,0,4.521-4.651,4.584,4.584,0,0,0-4.616-4.4H116.43" transform="translate(-65.759 -209.536)" fill="#ffd4b8"/><path d="M92.97,247.942l15.96,12.944a4.523,4.523,0,1,0,5.653-7.063l-19.075-16.63c-4.225-3.861-14.689-3.145-18.507-2.733v1.265" transform="translate(-66.083 -201.493)" fill="#ffd4b8"/><path d="M207.891,138.486l17.4-12.742L244,139.494v-6.972l-18.717-13.749L206.57,132.522v4.806" transform="translate(-177.231 -102.253)" fill="#ff4f4f"/><path d="M157.106,304.218a1.4,1.4,0,0,1-.272-.028,1.446,1.446,0,0,1-.261-.08,1.511,1.511,0,0,1-.242-.129,1.349,1.349,0,0,1-.385-.385,1.512,1.512,0,0,1-.129-.242,1.445,1.445,0,0,1-.08-.261,1.409,1.409,0,0,1,.381-1.261,1.413,1.413,0,0,1,.454-.3,1.446,1.446,0,0,1,.261-.08,1.394,1.394,0,0,1,.546,0,1.447,1.447,0,0,1,.261.08,1.412,1.412,0,0,1,.454.3,1.389,1.389,0,0,1,.381,1.261,1.445,1.445,0,0,1-.08.261,1.511,1.511,0,0,1-.129.242,1.649,1.649,0,0,1-.173.212,1.432,1.432,0,0,1-.212.173,1.512,1.512,0,0,1-.242.129,1.447,1.447,0,0,1-.261.08A1.4,1.4,0,0,1,157.106,304.218Zm0,0" transform="translate(-133.808 -259.393)"/><path d="M10,216.066h9.358v22.278H10Zm0,0" transform="translate(-8.603 -185.957)" fill="#5396a8"/><path d="M72,153.957a6.032,6.032,0,0,0-6.053-5.755h-.408V131.747l.368.268a1.414,1.414,0,0,0,1.468.121,1.4,1.4,0,0,0,.771-1.246v-6.972a1.392,1.392,0,0,0-.573-1.126L48.725,109.043a1.413,1.413,0,0,0-1.665,0l-8.457,6.17v-2.165a1.4,1.4,0,0,0-1.406-1.4H31.874a1.4,1.4,0,0,0-1.406,1.4v8.1l-2.252,1.644a1.394,1.394,0,0,0-.573,1.126V126.6c-4.6-1.987-11.346-1.844-15.408-1.516v-1.323a1.4,1.4,0,0,0-1.406-1.4H1.406A1.4,1.4,0,0,0,0,123.758v22.278a1.4,1.4,0,0,0,1.406,1.4h9.422a1.4,1.4,0,0,0,1.406-1.4v-3.372h2.047a26.61,26.61,0,0,1,1.108,4.709c1.414,8.164,6.411,12.661,14.07,12.661l36.579.009a5.934,5.934,0,0,0,4.273-1.792A5.855,5.855,0,0,0,72,153.957ZM62.724,148.2H54.611V134.18a1.4,1.4,0,0,0-1.406-1.4H42.581a1.4,1.4,0,0,0-1.406,1.4v3.459l-8.71-7.542,15.428-11.224,14.832,10.822Zm-11.093,0a5.88,5.88,0,0,0-2.062-3.294l-5.582-4.834v-4.5H51.8V148.2ZM33.281,114.444h2.51v2.821l-2.51,1.831Zm-2.826,10.18L47.893,111.9,65.33,124.625v3.506l-16.6-12.116a1.414,1.414,0,0,0-1.664,0L30.455,128.095ZM9.422,144.639H2.813V125.155H9.422ZM68.3,156.3a3.134,3.134,0,0,1-2.256.946l-36.58-.009c-7.858,0-10.481-5.624-11.3-10.341a38.05,38.05,0,0,0-1-4.5c-.274-.883-.783-2.528-2.211-2.528H12.234V127.884c4.07-.341,12.811-.652,16.278,2.5l.024.022,19.205,16.63.045.038a3.135,3.135,0,0,1-3.927,4.888L27.792,139.013a1.413,1.413,0,0,0-1.978.205,1.39,1.39,0,0,0,.206,1.965L42.1,154.132a5.941,5.941,0,0,0,3.713,1.3,6.123,6.123,0,0,0,.669-.037,5.931,5.931,0,0,0,4-2.185A5.87,5.87,0,0,0,51.59,151H65.944a3.209,3.209,0,0,1,3.242,3.038,3.094,3.094,0,0,1-.89,2.269Zm0,0" transform="translate(0 -93.649)"/></svg>