<svg xmlns="http://www.w3.org/2000/svg" width="69.279" height="69.279" viewBox="0 0 69.279 69.279"><path d="M41.721,104.9a26.809,26.809,0,1,0,19.012,19.012Zm0,0" transform="translate(-6.883 -89.474)" fill="#ff826e"/><path d="M253.92,128.74c-.132-.737-.283-1.468-.473-2.185l-19.012-19.012c-.716-.19-1.447-.341-2.185-.473a18.86,18.86,0,0,0,21.67,21.67Zm0,0" transform="translate(-199.596 -92.116)" fill="#fc6e51"/><path d="M69.213,137.086a22.369,22.369,0,1,0,14.4,14.4Zm0,0" transform="translate(-34.413 -117.005)" fill="#f5f7fa"/><path d="M232.574,139.48a19.009,19.009,0,0,0,17.31,17.31,22.177,22.177,0,0,0-.6-2.315l-14.4-14.4a22.65,22.65,0,0,0-2.316-.6Zm0,0" transform="translate(-200.089 -119.998)" fill="#e6e9ed"/><g transform="translate(25.7 1.117)"><path d="M281.522,24.761A16.761,16.761,0,1,1,264.761,8,16.761,16.761,0,0,1,281.522,24.761Zm0,0" transform="translate(-239.061 -8)" fill="#fcd770"/><path d="M188.47,282.235A2.235,2.235,0,1,1,186.235,280,2.235,2.235,0,0,1,188.47,282.235Zm0,0" transform="translate(-184 -242.008)" fill="#fcd770"/><path d="M428.47,282.235A2.235,2.235,0,1,1,426.235,280,2.235,2.235,0,0,1,428.47,282.235Zm0,0" transform="translate(-390.478 -242.008)" fill="#fcd770"/><path d="M188.47,42.235A2.235,2.235,0,1,1,186.235,40,2.235,2.235,0,0,1,188.47,42.235Zm0,0" transform="translate(-184 -35.53)" fill="#fcd770"/></g><path d="M298.057,71.644H290.6l6.21-7.1a5.027,5.027,0,0,0,1.245-3.311v-.207a5.028,5.028,0,1,0-10.057,0V62.7h2.235V61.028a2.793,2.793,0,1,1,5.587,0v.207a2.792,2.792,0,0,1-.692,1.839L288,71.223v2.655h10.057Zm0,0" transform="translate(-247.774 -48.178)"/><path d="M382.7,73.878h2.235V70.526h2.235V68.291h-2.235V56h-2.926L376,68.028v2.5h6.7Zm-4.338-5.587,4.338-8.676v8.676Zm0,0" transform="translate(-323.482 -48.178)"/><path d="M55.2,35.34A17.874,17.874,0,1,0,33.938,14.074,28,28,0,1,0,55.2,35.34ZM51.4,2.235A15.644,15.644,0,1,1,35.756,17.878,15.66,15.66,0,0,1,51.4,2.235ZM49.121,40.226H46.93v2.235h2.178a21.119,21.119,0,0,1-5.416,13.06l-1.536-1.536-1.58,1.58L42.112,57.1a21.113,21.113,0,0,1-13.06,5.416V60.339H26.817v2.178A21.119,21.119,0,0,1,13.757,57.1l1.536-1.536-1.58-1.58-1.536,1.536a21.113,21.113,0,0,1-5.416-13.06H8.939V40.226H6.761a21.119,21.119,0,0,1,5.416-13.06L13.713,28.7l1.58-1.58-1.536-1.536a21.113,21.113,0,0,1,13.06-5.416v2.178h2.235V20.157a21.176,21.176,0,0,1,4.754.8,17.9,17.9,0,0,0,14.51,14.511,21.24,21.24,0,0,1,.805,4.754ZM27.934,67.044A25.7,25.7,0,1,1,33.6,16.288c-.047.525-.08,1.054-.08,1.59,0,.234.026.462.034.694a23.515,23.515,0,1,0,17.15,17.15c.231.009.459.034.694.034.536,0,1.065-.033,1.59-.08A25.651,25.651,0,0,1,27.934,67.044Zm0,0" transform="translate(0)"/><path d="M182.7,192.761a3.348,3.348,0,0,0-2.235-3.146V176h-2.235v13.614a3.344,3.344,0,0,0,1.117,6.5,3.3,3.3,0,0,0,1.436-.336l7.831,7.831,1.58-1.58-7.831-7.831A3.3,3.3,0,0,0,182.7,192.761Zm-4.47,0a1.117,1.117,0,1,1,1.117,1.117A1.118,1.118,0,0,1,178.235,192.761Zm0,0" transform="translate(-151.417 -151.417)"/><path d="M376.06,272a3.35,3.35,0,0,0-1.272,6.451,32.374,32.374,0,0,1-9.109,19.585l1.6,1.565a34.611,34.611,0,0,0,9.749-21.054A3.342,3.342,0,0,0,376.06,272Zm0,4.47a1.117,1.117,0,1,1,1.117-1.117A1.118,1.118,0,0,1,376.06,276.47Zm0,0" transform="translate(-314.603 -234.008)"/><path d="M32.91,45.11a32.434,32.434,0,0,1,18.938-8.469,3.373,3.373,0,1,0-.1-2.253,34.7,34.7,0,0,0-20.357,9.084ZM54.941,34.234a1.117,1.117,0,1,1-1.117,1.117A1.118,1.118,0,0,1,54.941,34.234Zm0,0" transform="translate(-27.006 -27.53)"/></svg>