<svg id="Layer_1" data-name="Layer 1" width="200" height="200" opacity="0.25" xmlns="http://www.w3.org/2000/svg" viewBox="0 0 200 200"><defs><style>.cls-1{fill:#fff;}</style></defs><title>horseshoe-bg</title><path class="cls-1"  d="M167.05,198.64l-27.75-7.43a10,10,0,0,1-7.05-5.74c-2.17-5.11-.3-12.66,5.85-23.75a199.35,199.35,0,0,0,17.68-43.46c8.11-30.27-6.93-60.7-33.54-67.83l-2.58-.69c-26.6-7.13-54.84,11.7-62.95,42a199.12,199.12,0,0,0-6.42,46.47c-.22,12.69-2.38,20.16-6.81,23.5a10,10,0,0,1-9,1.44L6.75,155.69A8.69,8.69,0,0,1,.62,145.06l3.45-12.89A8.7,8.7,0,0,1,14.7,126l1.47.4c0-23,4.46-44.47,8.3-58.83a87.43,87.43,0,0,1,107-61.75c.42.11.86.23,1.28.38s.89.2,1.3.31a87.41,87.41,0,0,1,61.75,107c-3.85,14.37-10.76,35.21-22.22,55.1l1.47.4a8.67,8.67,0,0,1,6.13,10.62l-3.45,12.89A8.69,8.69,0,0,1,167.05,198.64ZM121.39,43.29,124,44c30.16,8.08,47.32,42.18,38.26,76a206.47,206.47,0,0,1-18.29,45c-6.48,11.67-6.25,16.22-5.54,17.9.26.63.8,1.41,2.63,1.9l27.75,7.43a2,2,0,0,0,2.45-1.41l3.45-12.9a2,2,0,0,0-1.41-2.45l-5.72-1.53a3.34,3.34,0,0,1-2-5c13.06-21.4,20.49-45,23.75-57.17a80.75,80.75,0,0,0-57-98.78,7.09,7.09,0,0,0-.91-.22,3.44,3.44,0,0,1-.78-.2,7.54,7.54,0,0,0-.89-.27,80.74,80.74,0,0,0-98.78,57c-3.26,12.16-8.64,36.32-8,61.38A3.36,3.36,0,0,1,18.7,134L13,132.48a2,2,0,0,0-2.45,1.42L7.07,146.79a2,2,0,0,0,1.41,2.45l27.75,7.44c1.83.49,2.69.08,3.23-.33,1.45-1.1,3.93-4.93,4.15-18.28A206.6,206.6,0,0,1,50.26,90C59.32,56.16,91.23,35.21,121.39,43.29ZM32.59,129a3.33,3.33,0,0,1-2.47-3.14c-.29-11.48,2-25.35,2.05-25.93A3.34,3.34,0,1,1,38.76,101c0,.14-2.24,13.85-2,24.69a3.35,3.35,0,0,1-4.2,3.31ZM158,162.63a3.78,3.78,0,0,1-.88-.38,3.33,3.33,0,0,1-1.1-4.59c5.66-9.27,10.59-22.23,10.64-22.36a3.34,3.34,0,1,1,6.24,2.36c-.21.55-5.2,13.69-11.19,23.48A3.35,3.35,0,0,1,158,162.63ZM37.33,88.73a3.35,3.35,0,0,1-2.41-3.85C36.6,76,40.74,65.3,44.55,60A3.34,3.34,0,1,1,50,63.85c-3.27,4.57-7,14.36-8.5,22.27a3.33,3.33,0,0,1-3.9,2.66Zm137.48,33.78-.24-.08a3.33,3.33,0,0,1-2-4.25c2.66-7.61,4.32-17.94,3.77-23.54a3.34,3.34,0,0,1,6.64-.65c.64,6.52-1.13,17.87-4.12,26.4A3.35,3.35,0,0,1,174.81,122.51ZM56.6,49.82a3.4,3.4,0,0,1-1.43-.8A3.35,3.35,0,0,1,55,44.3a74.22,74.22,0,0,1,18.26-14,3.34,3.34,0,1,1,3.2,5.86A67.91,67.91,0,0,0,59.88,48.89,3.32,3.32,0,0,1,56.6,49.82ZM176.15,80.77a3.36,3.36,0,0,1-2.39-2.45,67.6,67.6,0,0,0-8-19.38,3.34,3.34,0,0,1,5.7-3.47,74.56,74.56,0,0,1,8.79,21.29,3.34,3.34,0,0,1-4.11,4ZM94,30.05a3.34,3.34,0,0,1,.17-6.49,73.53,73.53,0,0,1,22.34-1.22,3.34,3.34,0,1,1-.65,6.64A66.62,66.62,0,0,0,95.55,30.1,3.24,3.24,0,0,1,94,30.05ZM154.38,46.1a3.34,3.34,0,0,1-1.32-.71,67.45,67.45,0,0,0-17.18-10.91,3.34,3.34,0,0,1,2.69-6.11,73.83,73.83,0,0,1,18.88,12,3.34,3.34,0,0,1-3.07,5.73Z"/><path class="cls-1" d="M175.16,121.22l-.15,0a2,2,0,0,1-1.22-2.55c2.71-7.76,4.4-18.35,3.84-24.11a2,2,0,0,1,4-.39c.63,6.36-1.12,17.46-4,25.82A2,2,0,0,1,175.16,121.22Z"/><path class="cls-1" d="M176.49,79.48A2,2,0,0,1,175.06,78a68.87,68.87,0,0,0-8.15-19.76,2,2,0,1,1,3.42-2.08A73.1,73.1,0,0,1,179,77.07a2,2,0,0,1-1.48,2.42A2.07,2.07,0,0,1,176.49,79.48Z"/><path class="cls-1" d="M154.73,44.81a2,2,0,0,1-.79-.42,68.41,68.41,0,0,0-17.52-11.13,2,2,0,0,1-1-2.64,2,2,0,0,1,2.64-1,72.7,72.7,0,0,1,18.54,11.78,2,2,0,0,1-1.84,3.44Z"/><path class="cls-1" d="M167.4,197.35l-27.75-7.43a8.69,8.69,0,0,1-6.17-5c-2-4.7-.15-11.88,5.79-22.58a200.27,200.27,0,0,0,17.8-43.77c8.3-31-7.16-62.14-34.48-69.46L120,48.45C92.7,41.13,63.72,60.38,55.42,91.37A200.27,200.27,0,0,0,49,138.16c-.21,12.25-2.2,19.38-6.28,22.45a8.63,8.63,0,0,1-7.82,1.22L7.1,154.4a7.35,7.35,0,0,1-5.19-9l3.45-12.9a7.36,7.36,0,0,1,9-5.19l3.17.85c-.22-23.45,4.32-45.58,8.24-60.23A86.09,86.09,0,0,1,131.08,7.14a13.85,13.85,0,0,1,1.51.47,4.24,4.24,0,0,1,1.07.22,86.08,86.08,0,0,1,60.8,105.32c-3.92,14.65-11.05,36.07-23,56.28l3.16.84a7.36,7.36,0,0,1,5.19,9l-3.45,12.89A7.35,7.35,0,0,1,167.4,197.35ZM121.05,44.58l2.57.69c29.45,7.89,46.19,41.26,37.32,74.37a204.93,204.93,0,0,1-18.17,44.67c-6.41,11.56-6.59,16.75-5.6,19.07.35.84,1.1,2,3.52,2.67l27.74,7.43a3.34,3.34,0,0,0,4.09-2.36L176,178.23a3.3,3.3,0,0,0-2.36-4.09l-5.72-1.53a2,2,0,0,1-1.19-3c13.15-21.53,20.62-45.28,23.9-57.52a82.08,82.08,0,0,0-58-100.41,9.09,9.09,0,0,0-1.06-.25c-.8-.26-1.18-.36-1.52-.44A82.07,82.07,0,0,0,29.63,69c-3.28,12.24-8.69,36.54-8.07,61.76a2,2,0,0,1-.76,1.62,2,2,0,0,1-1.76.37l-5.72-1.54a3.3,3.3,0,0,0-4.09,2.36L5.78,146.44a3.34,3.34,0,0,0,2.36,4.09L35.88,158c2.41.64,3.66,0,4.38-.55,2-1.52,4.47-6.11,4.69-19.32a204.32,204.32,0,0,1,6.6-47.77C60.42,57.21,91.6,36.69,121.05,44.58Z"/><path class="cls-1" d="M37.68,87.44a2,2,0,0,1-1.44-2.31c1.64-8.7,5.68-19.19,9.4-24.39a2,2,0,0,1,3.25,2.33c-3.36,4.71-7.2,14.73-8.72,22.8a2,2,0,0,1-2.34,1.6Z"/><path class="cls-1" d="M56.94,48.53a1.91,1.91,0,0,1-.85-.48A2,2,0,0,1,56,45.22a73.1,73.1,0,0,1,17.93-13.8,2,2,0,0,1,1.92,3.52A68.79,68.79,0,0,0,58.92,48,2,2,0,0,1,56.94,48.53Z"/><path class="cls-1" d="M94.35,28.77a2,2,0,0,1,.1-3.9,72.44,72.44,0,0,1,21.93-1.21,2,2,0,1,1-.39,4,68.33,68.33,0,0,0-20.72,1.14A2,2,0,0,1,94.35,28.77Z"/><path class="cls-1" d="M158.36,161.33a1.86,1.86,0,0,1-.53-.22,2,2,0,0,1-.67-2.75c5.73-9.38,10.71-22.46,10.76-22.59a2,2,0,1,1,3.74,1.42c-.2.55-5.16,13.56-11.08,23.25A2,2,0,0,1,158.36,161.33Z"/><path class="cls-1" d="M32.94,127.73a2,2,0,0,1-1.49-1.89c-.28-11.35,1.94-25.1,2-25.68a2,2,0,1,1,3.95.65c0,.14-2.25,14-2,24.94a2,2,0,0,1-2,2A2.1,2.1,0,0,1,32.94,127.73Z"/><path class="cls-1" d="M175.5,119.93l0,0a.66.66,0,0,1-.41-.85c2.82-8,4.5-18.66,3.91-24.68a.67.67,0,0,1,1.33-.13c.6,6.19-1.11,17-4,25.25A.66.66,0,0,1,175.5,119.93Z"/><path class="cls-1" d="M176.84,78.19a.66.66,0,0,1-.48-.49,70,70,0,0,0-8.31-20.15.66.66,0,0,1,.22-.91.67.67,0,0,1,.92.22,71.6,71.6,0,0,1,8.47,20.53.65.65,0,0,1-.49.8A.62.62,0,0,1,176.84,78.19Z"/><path class="cls-1" d="M155.08,43.52a.59.59,0,0,1-.27-.14A69.82,69.82,0,0,0,137,32a.67.67,0,0,1-.35-.88.69.69,0,0,1,.89-.34,71,71,0,0,1,18.19,11.56.66.66,0,0,1,.06.94A.64.64,0,0,1,155.08,43.52Z"/><path class="cls-1" d="M167.74,196.06,140,188.63a7.39,7.39,0,0,1-5.28-4.21c-1.79-4.23.08-11.23,5.73-21.41A201.54,201.54,0,0,0,158.36,119c8.49-31.7-7.4-63.59-35.43-71.1l-2.58-.69C92.33,39.65,62.62,59.33,54.13,91a202.56,202.56,0,0,0-6.52,47.12c-.19,11.64-2.07,18.64-5.74,21.41a7.43,7.43,0,0,1-6.68,1L7.45,153.11a6,6,0,0,1-4.25-7.36l3.45-12.89A6,6,0,0,1,14,128.61l4.86,1.31c-.46-24,4.18-46.7,8.18-61.63A84.75,84.75,0,0,1,130.73,8.43a11.21,11.21,0,0,1,1.36.42,7.91,7.91,0,0,1,1.22.27A84.75,84.75,0,0,1,193.18,112.8c-4,14.93-11.36,37-23.74,57.46l4.87,1.3a6,6,0,0,1,4.24,7.36l-3.45,12.89A6,6,0,0,1,167.74,196.06Zm-47-150.19,2.58.69c28.74,7.7,45.06,40.33,36.37,72.74a203.51,203.51,0,0,1-18.05,44.36c-5.35,9.66-7.26,16.47-5.66,20.24a6,6,0,0,0,4.4,3.44l27.75,7.43a4.67,4.67,0,0,0,5.72-3.3l3.45-12.89a4.68,4.68,0,0,0-3.3-5.73l-5.72-1.53a.67.67,0,0,1-.45-.4.65.65,0,0,1,.05-.59c12.57-20.6,20-42.84,24-57.87A83.43,83.43,0,0,0,133,10.41a12,12,0,0,0-1.22-.28,8.11,8.11,0,0,0-1.36-.41,83.42,83.42,0,0,0-102,58.91c-4,15-8.71,38-8.11,62.15a.69.69,0,0,1-.84.66l-5.73-1.54a4.69,4.69,0,0,0-5.72,3.31L4.49,146.1a4.67,4.67,0,0,0,3.3,5.72l27.75,7.44a6.07,6.07,0,0,0,5.53-.78c3.27-2.47,5-9.32,5.21-20.36a203.55,203.55,0,0,1,6.56-47.44C61.52,58.27,92,38.17,120.7,45.87Z"/><path class="cls-1" d="M38,86.15a.66.66,0,0,1-.48-.77c1.61-8.54,5.56-18.8,9.17-23.86a.67.67,0,0,1,.94-.16.68.68,0,0,1,.15.94c-3.52,4.92-7.37,15-9,23.33a.67.67,0,0,1-.78.53Z"/><path class="cls-1" d="M57.29,47.24a.67.67,0,0,1-.31-1.1,71.54,71.54,0,0,1,17.6-13.55.69.69,0,0,1,.91.27.67.67,0,0,1-.27.91A70.14,70.14,0,0,0,58,47.06.68.68,0,0,1,57.29,47.24Z"/><path class="cls-1" d="M94.69,27.48a.67.67,0,0,1,0-1.3A71,71,0,0,1,116.25,25a.68.68,0,0,1,.6.73.66.66,0,0,1-.73.6A69.68,69.68,0,0,0,95,27.48.65.65,0,0,1,94.69,27.48Z"/><path class="cls-1" d="M158.7,160.05a.53.53,0,0,1-.17-.08.67.67,0,0,1-.23-.92c5.8-9.48,10.82-22.68,10.87-22.81a.63.63,0,0,1,.86-.39.68.68,0,0,1,.39.87c-.06.13-5.12,13.44-11,23A.67.67,0,0,1,158.7,160.05Z"/><path class="cls-1" d="M33.28,126.44a.67.67,0,0,1-.5-.63c-.27-11.23,2-25.29,2-25.43a.67.67,0,0,1,.76-.56.64.64,0,0,1,.55.77c0,.14-2.27,14.09-2,25.19a.66.66,0,0,1-.65.68A.58.58,0,0,1,33.28,126.44Z"/></svg>
